<svg xmlns="http://www.w3.org/2000/svg" height="204.27" width="302"><g clip-path="url(#d)" transform="matrix(21.955 0 0 -21.955 -2043.1 10481)"><path d="M105.72 468.11c-.64 0-1.02.33-1.05.8h.61c0-.16.1-.37.47-.38.26 0 .4.16.4.27-.02.19-.26.2-.49.24-.26.04-.46.1-.6.16a.6.6 0 0 0-.33.56c0 .42.35.74.96.74.58 0 .96-.3.99-.75h-.58c0 .11-.03.31-.38.31-.23 0-.38-.04-.4-.2 0-.25.49-.23.87-.32.34-.1.58-.32.58-.63 0-.58-.47-.8-1.05-.8"/></g><path d="M33.54 118.8l44.04-25.58 23.62 40.53H41.84"/><path d="M126.15 202.12v-51.16" stroke="#000" stroke-width="12.95"/><g clip-path="url(#c)" transform="matrix(21.955 0 0 -21.955 -2043.1 10481)"><path d="M93.66 469.31c0-.37.32-.67.66-.67.38 0 .67.3.67.67 0 .35-.29.67-.67.67a.7.7 0 0 1-.66-.67m.63-1.2a1.2 1.2 0 1 0 0 2.4c.27 0 .5-.08.7-.22v.18h.58v-2.31H95v.14a1.2 1.2 0 0 0-.7-.2"/></g><path d="M197.59 133.74L136.31 26.86 180.36 1l76.6 132.74"/><g clip-path="url(#b)" transform="matrix(21.955 0 0 -21.955 -2043.1 10481)"><path d="M96.33 469.31c0-.37.3-.67.67-.67.35 0 .67.3.67.67a.7.7 0 0 1-.67.67.67.67 0 0 1-.67-.67m.64-1.2c-.67 0-1.2.53-1.2 1.2s.53 1.2 1.2 1.2c.26 0 .5-.08.7-.22v.98h.58v-3.11h-.58v.14c-.2-.13-.44-.2-.7-.2"/></g><path d="M85.25 73.12l44.68-25.27 49.15 85.89h-46.6v12.64h-12.76v-12.64"/><g clip-path="url(#a)" transform="matrix(21.955 0 0 -21.955 -2043.1 10481)"><path d="M106.39 470.7c-.15 0-.3.13-.3.29s.15.29.3.29c.17 0 .3-.13.3-.3s-.13-.28-.3-.28m0 .54c-.15 0-.23-.12-.23-.25s.08-.25.23-.25c.14 0 .23.12.23.25s-.09.25-.23.25"/><path d="M106.45 470.83l-.06.13h-.06v-.13h-.04v.31h.13c.03 0 .09-.04.09-.09s-.03-.08-.06-.09l.06-.13m-.12.27h-.06v-.1h.06c.06 0 .06.01.06.05 0 .03 0 .05-.06.05m-3.84-1.79c0-.37.3-.67.67-.67.35 0 .67.3.67.67a.7.7 0 0 1-.67.67.67.67 0 0 1-.67-.67m.64-1.2c-.67 0-1.2.53-1.2 1.2s.53 1.2 1.2 1.2c.26 0 .5-.08.7-.22v.18h.55v-2.31h-.55v.14c-.2-.13-.44-.2-.7-.2m-3.31 1.21c0-.37.32-.67.67-.67.37 0 .66.3.66.67 0 .35-.29.67-.66.67a.7.7 0 0 1-.67-.67m1.33 1.96h.59v-3.11h-.59v.14a1.1 1.1 0 0 0-.66-.2c-.67 0-1.23.54-1.23 1.21s.56 1.2 1.23 1.2c.26 0 .49-.07.66-.22v.98z"/></g></svg>