<svg xmlns="http://www.w3.org/2000/svg" width="299.5" height="45.41"><defs><linearGradient id="a" x1="2314.29" y1="-4444.21" x2="2314.29" y2="-4661.38" gradientTransform="matrix(.09 0 0 -.09 80.07 -358.47)" gradientUnits="userSpaceOnUse"><stop offset="0" stop-color="#eb2023"/><stop offset=".1" stop-color="#e92026"/><stop offset=".2" stop-color="#e31e27"/><stop offset=".3" stop-color="#e01e26"/><stop offset=".4" stop-color="#d81f27"/><stop offset=".5" stop-color="#cf2027"/><stop offset=".6" stop-color="#c62127"/><stop offset=".7" stop-color="#b92025"/><stop offset=".8" stop-color="#ae1f23"/><stop offset=".9" stop-color="#a01d22"/><stop offset="1" stop-color="#901c1c"/></linearGradient><linearGradient id="b" x1="2148.46" y1="-4491.25" x2="2269.12" y2="-4413.98" gradientTransform="matrix(.09 0 0 -.09 80.07 -358.47)" gradientUnits="userSpaceOnUse"><stop offset="0" stop-color="#6c221f"/><stop offset=".25" stop-color="#7f2620"/><stop offset=".5" stop-color="#982b24"/><stop offset=".75" stop-color="#b53125"/><stop offset="1" stop-color="#cb3327"/></linearGradient><linearGradient id="c" x1="2131.2" y1="-4454.12" x2="2307.98" y2="-4351.84" gradientTransform="matrix(.09 0 0 -.09 80.07 -358.47)" gradientUnits="userSpaceOnUse"><stop offset="0" stop-color="#e7ebee"/><stop offset=".25" stop-color="#dfe4e8"/><stop offset=".5" stop-color="#cad1d7"/><stop offset=".75" stop-color="#a8b5bd"/><stop offset="1" stop-color="#93a6ad"/></linearGradient><linearGradient id="d" x1="2072.28" y1="-4137.76" x2="2072.28" y2="-4347.75" gradientTransform="matrix(.09 0 0 -.09 80.07 -358.47)" gradientUnits="userSpaceOnUse"><stop offset="0" stop-color="#05aee9"/><stop offset=".1" stop-color="#00a9e0"/><stop offset=".2" stop-color="#07a3dc"/><stop offset=".3" stop-color="#089dd5"/><stop offset=".4" stop-color="#0a92cc"/><stop offset=".5" stop-color="#0f87c3"/><stop offset=".6" stop-color="#127cb8"/><stop offset=".7" stop-color="#0e70ad"/><stop offset=".8" stop-color="#0f63a3"/><stop offset=".9" stop-color="#135393"/><stop offset="1" stop-color="#184485"/></linearGradient><clipPath id="e"><path fill="none" d="M-5.01-6.15h307.22v53.66H-5.01z"/></clipPath></defs><path d="M267.73 33l5.21 8.66c1.62 2.6 4.28 3.77 7.6 3.77H294l-15.7-19-2.3-1.32-5.85 1.89-3 4.31z" fill="url(#a)"/><path d="M278.25 26.38l-3.28-4-8.66 4.66.92 4.7.5 1.2c-.19-3.15 5.27-6.86 10.52-6.56z" fill="url(#b)"/><path d="M267.73 33L263 25.22a4.35 4.35 0 0 1-.72-2.54c0-1 .42-1.53 2-2.38 1.88-.9 5.67-1.29 9.57-1.29 6.34 0 7.86 2 8.51 4.23a9.05 9.05 0 0 0-3-.36c-6.68 0-12 3.24-12 8.15a6.64 6.64 0 0 0 .37 1.97z" fill="url(#c)"/><path d="M247.6 0h6.31a5.94 5.94 0 0 1 4.83 2.16c1.23 1.12 5 6.17 12.86 16H263c-3.49 0-4.6-.6-5.95-2.66z" fill="url(#d)"/><g><path d="M297.88 43.36l.46 1.64.46-1.64h.39l.3 2.05h-.31l-.18-1.67-.48 1.67h-.33l-.47-1.67-.21 1.67h-.3l.3-2.05zm-1 0v.26h-.6v1.79H296v-1.79h-.6v-.26z" fill="#334357"/></g><g><g clip-path="url(#e)"><path d="M149 18.2h-.07l-3.59 10.14h7.26zm6.42 18.13l-1.76-5h-9.39l-1.76 5h-4l8.41-22.18h4.47l8.29 22.18zm34-23.07h3.92V17h-3.92zm0 6.17h3.83v16.91h-3.83zm-28.31-6.18h3.92V17h-3.92zm0 6.18H165v16.91h-3.8zm24.08-6.15h-3.83v23h3.83zM173.05 28.1v8.24h-3.85V23.79c0-1.21-.14-3.5-.18-4.34h3.1c.33 0 .43.14.44.47v2.09h.09a4.65 4.65 0 0 1 4.58-2.92 5.22 5.22 0 0 1 2 .4c0 .73-.08 2.32-.11 2.74s-.14.37-.28.37a.59.59 0 0 1-.26-.06 4.23 4.23 0 0 0-1.57-.27c-2 0-4 1.48-4 5.83M208 36.34V25.43c0-2.08-1-3.35-2.73-3.35-2.36 0-3.92 2.51-3.92 5.9v8.37h-3.84V23.93c0-1.37-.12-3.36-.19-4.48h3.08c.35 0 .45.14.45.46v2.11h.09a5.39 5.39 0 0 1 5.18-2.92c3.64 0 5.68 2.49 5.68 5.29v12zm10.61-10.18h7.1c.15-2.72-1.28-4.25-3.44-4.25s-3.55 1.63-3.66 4.25m9.39 6.47c.21 0 .28.19.29.38.07.72.13 2.35.12 2.77a16.2 16.2 0 0 1-5.24.89c-5.38 0-8.61-2.78-8.61-8.77 0-5.14 2.76-8.8 7.72-8.8s7.18 3.26 7.18 7.3c0 .48-.05 1.28-.14 2.35h-10.79c0 2.88 1.84 5 5.23 5a9.19 9.19 0 0 0 4-1 .65.65 0 0 1 .32-.11m9 4c5 0 7.38-2 7.38-5.08s-2.12-4.24-4.37-5l-1.93-.56c-1.54-.51-2.34-1.18-2.34-2.18s1-1.79 3-1.79a8.69 8.69 0 0 1 3.8 1 .7.7 0 0 0 .33.11c.12 0 .27-.08.29-.37 0-.57.11-1.59.11-2.58a10.77 10.77 0 0 0-4.84-1.08c-4.12 0-6.66 2.15-6.66 5s1.88 4 3.94 4.68l1.87.62c2.16.72 2.77 1.37 2.77 2.37 0 1.32-1.4 2-3.81 2a8.51 8.51 0 0 1-3.88-1 .68.68 0 0 0-.33-.11c-.28 0-.29.38-.29.44S232 35 232 35.59a12.6 12.6 0 0 0 5 1.08M11 18.2h-.07L7.34 28.35h7.25zm6.42 18.13l-1.76-5H6.27l-1.76 5H.5l8.41-22.17h4.47l8.29 22.18zm62.66-23.06H84V17h-3.92zm0 6.18H84v16.89h-3.88zm-8.19 8.65v8.24h-3.84V23.79c0-1.21-.14-3.5-.19-4.34H71c.33 0 .43.14.44.47v2.09h.09a4.65 4.65 0 0 1 4.57-2.91 5.3 5.3 0 0 1 2 .39c0 .73-.08 2.32-.12 2.75s-.15.36-.28.36a.61.61 0 0 1-.27-.06 4.2 4.2 0 0 0-1.57-.27c-2 0-4 1.48-4 5.83m-28.29 8.24V25.53c0-1.95-.82-3.46-2.81-3.46-2.24 0-3.53 2.45-3.53 5.88v8.39H33.4V25.5c0-1.77-.74-3.42-2.8-3.42-2.27 0-3.54 2.44-3.54 6v8.27h-3.83V24c0-1.59-.14-3.84-.19-4.59h3.07c.35 0 .46.11.47.47v2.09h.09a5.29 5.29 0 0 1 5-2.92 5.08 5.08 0 0 1 4.85 3.08 5.57 5.57 0 0 1 5.06-3.08c3.44 0 5.78 1.84 5.78 5.55v11.7h-3.79zm10.61-10.19h7.1c.15-2.72-1.28-4.25-3.44-4.25s-3.55 1.63-3.66 4.25m9.46 6.48c.21 0 .27.19.29.38.07.72.13 2.35.12 2.77a16.18 16.18 0 0 1-5.24.89c-5.38 0-8.61-2.79-8.61-8.77 0-5.14 2.76-8.79 7.72-8.79s7.18 3.25 7.18 7.3c0 .48-.05 1.28-.14 2.34H54.14c0 2.89 1.84 5 5.23 5a9.13 9.13 0 0 0 4-1 .64.64 0 0 1 .32-.1m48.1-4.86h-.65c-4.82 0-5.77 1.67-5.77 3.38a2.59 2.59 0 0 0 2.63 2.68c2.39 0 3.7-2.31 3.7-4.74zm.92 8.57a.52.52 0 0 1-.6-.55c0-.55-.11-1.62-.11-1.62h-.05a5.89 5.89 0 0 1-5.13 2.49 5.19 5.19 0 0 1-5.29-5.43c0-3.94 3.83-5.92 9.51-5.92h.76v-.62c0-1.77-1.26-2.72-3.61-2.72a10.56 10.56 0 0 0-4.56 1.09.7.7 0 0 1-.28.09c-.18 0-.28-.11-.29-.31 0-.64-.1-1.86-.11-2.63a16.16 16.16 0 0 1 5.51-1.12c5 0 7.17 2.33 7.17 6.05v6.59a33.58 33.58 0 0 0 .3 4.61zm-13.29-3.73c.1 0 .24.07.28.36.07.8.1 2.12.11 2.53a10.18 10.18 0 0 1-4.46 1.13c-5.12 0-8.26-3-8.26-8.78 0-5.44 2.79-8.79 8.26-8.79a10.2 10.2 0 0 1 4.46 1.14c0 .6-.06 2-.11 2.54 0 .24-.14.36-.28.36a.57.57 0 0 1-.3-.08 7.9 7.9 0 0 0-3.44-.9c-3.26 0-4.6 2.13-4.6 5.74 0 3.21 1.07 5.73 4.6 5.73a7.92 7.92 0 0 0 3.32-.85c.2-.1.24-.13.4-.13m30 3.71V25.43c0-2.08-1-3.35-2.73-3.35-2.36 0-3.93 2.51-3.93 5.9v8.37h-3.84V23.93c0-1.37-.12-3.36-.18-4.48h3.08c.35 0 .45.15.45.46v2.11h.08a5.4 5.4 0 0 1 5.18-2.92c3.65 0 5.68 2.49 5.68 5.29v12z" fill="#334357"/></g></g></svg>