<svg data-name="Слой 1" xmlns="http://www.w3.org/2000/svg" width="136.31" height="162"><path d="M133.45 126.25a88.08 88.08 0 0 1-8.71 15.66q-6.87 9.79-11.22 13.56-6.72 6.18-14.42 6.35c-3.69 0-8.14-1.05-13.32-3.18a38.22 38.22 0 0 0-14.34-3.17 39.52 39.52 0 0 0-14.75 3.17q-7.89 3.2-12.74 3.35-7.39.32-14.75-6.52-4.7-4.09-11.74-14a97.1 97.1 0 0 1-12.4-24.69A90.26 90.26 0 0 1-.15 87.4q0-16.29 7-28.07a41.33 41.33 0 0 1 14.8-14.92 39.69 39.69 0 0 1 19.95-5.63c3.92 0 9 1.21 15.43 3.59S67.47 46 69.26 46c1.34 0 5.88-1.42 13.57-4.24q10.91-3.93 18.44-3.28 20.45 1.63 30.73 16.13-18.29 11.08-18.1 31a34.2 34.2 0 0 0 11.23 25.77 36.9 36.9 0 0 0 11.22 7.36q-1.35 3.92-2.86 7.51zm-31.26-123q0 12.15-8.86 22.67C86.21 34.23 77.59 39 68.26 38.29a25.22 25.22 0 0 1-.19-3.07c0-7.78 3.39-16.1 9.4-22.91a36.19 36.19 0 0 1 11.45-8.6A34.14 34.14 0 0 1 102 0a29.43 29.43 0 0 1 .17 3.24z"/></svg>