<svg xmlns="http://www.w3.org/2000/svg" width="1032.25" height="159.04"><defs><linearGradient id="a" x1="1380.73" y1="-273.06" x2="1259.73" y2="-340.83" gradientTransform="matrix(1 0 0 -1 -348.24 -235.05)" gradientUnits="userSpaceOnUse"><stop offset="0" stop-color="#11266f"/><stop offset="1" stop-color="#4266ae"/></linearGradient><linearGradient id="b" x1="1092.14" y1="-298.73" x2="1369.66" y2="-195.98" gradientTransform="matrix(1 0 0 -1 -348.24 -235.05)" gradientUnits="userSpaceOnUse"><stop offset="0" stop-color="#e0162b"/><stop offset=".57" stop-color="#ff0108"/><stop offset=".75" stop-color="#ffb8bb"/><stop offset=".79" stop-color="#ffb0b3"/><stop offset=".85" stop-color="#ff010a"/><stop offset="1" stop-color="red"/></linearGradient></defs><path d="M38.15 121.06c6.92-1.3 13.32-7.09 13.32-14.44 0-13.84-11.94-18.85-24.13-18.85H0c2.25 1.23 3.2 3.88 3.2 6.3v57.44c0 2.34-1 5.11-3.2 6.23h29.67c11.59 0 28-4 28-19.72.02-11.02-9.58-17.02-19.52-16.96zm-20.5-27a33 33 0 0 1 4.49-.26c8.31 0 14.79 2.77 14.79 12.46s-8.13 12.29-16.52 12.29h-2.76zM27 151.68a48.57 48.57 0 0 1-9.34-.78V125c2.42-.17 4.24-.17 6.23-.17 8.82 0 17.3 2.42 17.3 13-.02 10.74-7.19 13.85-14.19 13.85zm136-63.92L158.21 98c3.11-1.81 7.35-2.24 10.9-2.24h15.49v55.7c0 2.42-1.12 5.19-3.46 6.23h21.36c-2.24-1-3.46-3.81-3.46-6.23V95.63c5.8 0 12.54.25 16.6.35 3.38 0 9.17-3.89 11.16-9.17a60 60 0 0 1-12.46.95zm87.79 0H229.3a7 7 0 0 1 3.55 6.31v57.44a6.87 6.87 0 0 1-3.55 6.23h21.54a6.7 6.7 0 0 1-3.55-6.23V94.07a6.85 6.85 0 0 1 3.55-6.31zM94.2 122c10.21 0 19.37-5.71 19.37-16.78 0-13.23-13.75-17.47-24.74-17.47H63.49c2.25 1.21 3.29 3.89 3.29 6.31v57.44c0 2.42-1 5.11-3.29 6.23h21c-2.25-1-3.29-3.89-3.29-6.23v-26.72c9.08.09 12.63 9.52 16.69 16.35 2.59 4.24 9.17 15 13.92 16.35 2.59.78 5.53.69 8.22.69a46.32 46.32 0 0 0 13.32-1.82c-16.06-.09-24.62-34.25-39.15-34.35zm-9.69-3.46c-1.12 0-2.16-.09-3.29-.17V94.16a24.91 24.91 0 0 1 3.55-.35c7.7 0 13.41 3.11 13.41 11.85-.01 8.57-5.8 12.89-13.67 12.89zM156 87.76h-21.58a7 7 0 0 1 3.58 6.31v57.44a6.87 6.87 0 0 1-3.55 6.23H156a6.71 6.71 0 0 1-3.55-6.23V94.07a6.85 6.85 0 0 1 3.55-6.31zm224.81 0H360c1.56.78 3.2 3.11 3.2 6.31v23.53c-3.81.35-9 .61-14.88.61a143.53 143.53 0 0 1-15-.61V94.07c0-3.2 1.56-5.53 3.12-6.31h-20.81c1.56.78 3.2 3.11 3.2 6.31v57.44c0 3.11-1.64 5.54-3.2 6.23h20.76c-1.56-.78-3.12-3.12-3.12-6.23v-26a143.23 143.23 0 0 1 15-.61 140.87 140.87 0 0 1 14.88.61v26c0 3.11-1.64 5.54-3.2 6.23h20.76c-1.56-.78-3.12-3.12-3.12-6.23V94.07c.06-3.2 1.62-5.53 3.17-6.31zM275.75 101c0-5.8 5.28-8.31 10.38-8.31 6.4 0 13.32 4.15 16.09 10l-.78-13.06c-4.49-2.07-11.59-2.76-16.52-2.76-11 0-23.53 4.32-23.53 17.47 0 21.28 31.4 24.31 31.4 37.63 0 7.62-5.19 10.64-12.2 10.64-9.17 0-16.52-6.32-20.07-14.44a56.75 56.75 0 0 0-.69 8.56 49.07 49.07 0 0 0 .52 7.18c5.71 3.89 14.88 5.19 21.62 5.19 12.89 0 25.69-6.06 25.69-20.67.01-20.22-31.91-23.6-31.91-37.43zm483-13.24a2.58 2.58 0 0 1 1.47 2.34c0 .78-.86 2.33-2.16 4.58 0 0-10.56 18.34-11.68 20.41L733.09 94c-4.15-6.49-7.52-7.09-14.27-7.09a45.28 45.28 0 0 0-12.11 1.91c7.26 0 13.32 10 14.62 12.19l14.36 23.1v27.42c0 2.17-1 5.11-3 6.23h20.58c-2.16-1-3.11-4-3.11-6.23v-27.35l16.61-29.07c1.56-2.77 4-6 6.92-7.35zm-93.76 0h-13.64a2.45 2.45 0 0 1 1.21 2.07 7.2 7.2 0 0 1-.52 2.25l-13.76 41.17-18.16-45.5L603.6 135l-15.48-41.88a9.08 9.08 0 0 1-.6-2.42 3.39 3.39 0 0 1 1.48-2.94h-20.69a12.43 12.43 0 0 1 5.37 6.66l23.78 63.31H604l13.84-39.18 9.6 24.3c1.21 3.11 4.49 11.59 6.66 13.58a8.08 8.08 0 0 0 4.41 1.3l21.28-63.14c.9-2.59 2.72-5.54 5.21-6.83zM788.45 101c0-5.8 5.28-8.31 10.38-8.31 6.4 0 13.32 4.15 16.09 10l-.78-13.06c-4.5-2.07-11.6-2.76-16.52-2.76-11 0-23.53 4.32-23.53 17.47 0 21.28 31.4 24.31 31.4 37.63 0 7.62-5.19 10.64-12.2 10.64-9.17 0-16.52-6.32-20.07-14.44a57.48 57.48 0 0 0-.69 8.56 49.07 49.07 0 0 0 .52 7.18c5.71 3.89 14.88 5.19 21.63 5.19 13 0 25.69-6.06 25.69-20.67 0-20.22-31.92-23.6-31.92-37.43zm-69.63 51.29l-23.53-64.53h-18.17a4.73 4.73 0 0 1 2.6 4 2.62 2.62 0 0 1-.17.86l-23.18 59.77a10.66 10.66 0 0 1-4.75 5.37h14.1c-.78-.35-1.64-.87-1.64-1.91a11.89 11.89 0 0 1 1.13-3.29l6.75-17.12a120.61 120.61 0 0 1 12.53-.52 111.08 111.08 0 0 1 13.24.52c.69 1.81 6.4 17.47 6.4 17.47a10.84 10.84 0 0 1 .69 2.42 3.11 3.11 0 0 1-1.3 2.42h20.07a10.65 10.65 0 0 1-4.77-5.46zm-34.52-23.53a90.48 90.48 0 0 1-9.69-.44l10.64-27.24 9.86 27.24a89.1 89.1 0 0 1-10.81.44zm-211.4 23.53l-23.53-64.53h-18.16a4.73 4.73 0 0 1 2.59 4 2.62 2.62 0 0 1-.17.86l-23.18 59.77a10.7 10.7 0 0 1-4.76 5.37h14.1c-.78-.35-1.64-.87-1.64-1.91a11.89 11.89 0 0 1 1.13-3.29s6.14-15.56 6.72-17.14a120.72 120.72 0 0 1 12.54-.52 111.08 111.08 0 0 1 13.24.52c.69 1.81 6.4 17.47 6.4 17.47a7.46 7.46 0 0 1 .69 2.42 3.11 3.11 0 0 1-1.3 2.42h20.07a10.7 10.7 0 0 1-4.74-5.44zm-34.51-23.53a90.35 90.35 0 0 1-9.69-.44l10.64-27.24 9.86 27.24a89 89 0 0 1-10.81.44zm64.36-41h-21.54a7 7 0 0 1 3.55 6.31v57.44a6.87 6.87 0 0 1-3.55 6.23h21.54a6.7 6.7 0 0 1-3.55-6.23V94.07a6.83 6.83 0 0 1 3.55-6.31zM546.69 122c7.61 0 17.64-5.71 17.64-16.78 0-13.23-13.75-17.47-24.74-17.47h-25.34c2.25 1.21 3.29 3.89 3.29 6.31v57.44c0 2.42-1 5.11-3.29 6.23h21c-2.25-1-3.29-3.89-3.29-6.23v-26.72c9.08 0 14.36 9.52 18.42 16.35 2.6 4.24 9.17 15 13.92 16.35 2.6.78 5.54.69 8.22.69a46.38 46.38 0 0 0 13.32-1.82c-14.94 0-24.02-33.47-39.15-34.35zm-11.42-3.46c-1.12 0-2.17-.09-3.29-.17V94.16a25 25 0 0 1 3.55-.35c7.7 0 13.41 3.11 13.41 11.85-.01 8.57-5.8 12.89-13.67 12.89z" fill="#00054c"/><path d="M1003.19 38.83c-12.27 11.62-38.09 21.95-50.36 26.47-17.43 6.46-25.17 9-34.86 12.27A1830.32 1830.32 0 0 0 885 87.89c45.19 13.56 77.47 17.42 77.47 17.42s14.85-4.49 38.74-17.42c12.91-6.45 18.72-10.33 23.24-14.85 1.94-1.29 6.45-5.81 7.1-11.62 0-.65.65-1.29.65-2.59v-1.28a2 2 0 0 1-.65-1.29 6.46 6.46 0 0 0-.65-2.59 10.79 10.79 0 0 0-3.87-5.81c-1.94-1.3-4.52-4.52-14.2-7.75a76.69 76.69 0 0 0-9-2.58l-.63 1.28z" fill="url(#a)"/><path d="M1032.24 58.19a3.19 3.19 0 0 0-.65-1.94c0-1.29-.65-1.94-1.28-3.23a24.52 24.52 0 0 1-3.23-3.87 17.37 17.37 0 0 1-3.87-3.23c-6.46-3.88-14.2-5.81-21.3-7.1a244.77 244.77 0 0 0-25.17-1.29c-3.88 0-30.34 0-36.8.65-29.7.65-66.49.65-76.17.65-98.76 0-142-1.94-189.79-11.62-40.68-7.75-63.28-15.49-63.28-15.49 36.15-1.29 246-10.33 284-11 25.17-.65 42.61-1.3 56.81 0a93.55 93.55 0 0 1 22.6 2.59 133 133 0 0 1 18.73 4.52c8.39 3.23 16.14 7.75 19.36 12.92a7.74 7.74 0 0 1 2.58 2.58 29.12 29.12 0 0 0 3.88 5.81c5.17 8.39 7.75 12.91 8.39 14.85a23.17 23.17 0 0 1 2.59 5.81A4.18 4.18 0 0 1 1031 53c.65 1.94.65 3.88 1.29 4.52v.63z" fill="url(#b)"/></svg>