<svg xmlns="http://www.w3.org/2000/svg" width="152.87" height="97.86"><path fill="#161413" d="M22 91.42a1.3 1.3 0 0 0-.07.16 11.67 11.67 0 0 1-10.23 6.28 12 12 0 0 1 0-24A11.65 11.65 0 0 1 22 80.21a1.16 1.16 0 0 1 .13.22s-3.73 2.72-3.77 2.67a.35.35 0 0 0-.07-.16 6.94 6.94 0 0 0-6.58-4.42 7.35 7.35 0 0 0 0 14.7A7.17 7.17 0 0 0 18.17 89a2.5 2.5 0 0 0 .11-.24zm4.9-17.37h4.5v8.39h11.81v-8.39h4.53V97.4h-4.53V87.14H31.39V97.4H26.9zm84.33 23.35V74.05h16.33v4.72h-11.78v4.66h10.88v4.66h-10.88v4.66h13.44v4.65zm24.37 0V74.05h4.57v18.71h12.69v4.64zm-48.91 0h-4.57V74.05h6.34l10 14v-14H103V97.4h-3.62L86.69 79.79zM64.91 78.77l-4 9.33h8.16zm-6 14l-2.12 4.63h-5.41l10.35-23.35h6.33L78.48 97.4h-5.41L71 92.76zM116.15 47a.68.68 0 0 0-.14.19 23.74 23.74 0 0 1-20.2 11.3 25.07 25.07 0 0 1-7.74-1.25 34.14 34.14 0 0 0 8.42-22.5 34.52 34.52 0 0 0-8.32-22.5A23.42 23.42 0 0 1 95.81 11a23.84 23.84 0 0 1 20.48 11.78.18.18 0 0 1 0 .14l9.86-5.1a1.13 1.13 0 0 0-.14-.24A34.85 34.85 0 0 0 95.81 0a33.58 33.58 0 0 0-17 4.57A33.58 33.58 0 0 0 61.77 0a34.85 34.85 0 0 0-30.25 17.6 1.13 1.13 0 0 0-.14.24l9.86 5.1a.18.18 0 0 1 0-.14A23.84 23.84 0 0 1 61.77 11a23.42 23.42 0 0 1 7.65 1.25 34.52 34.52 0 0 0-8.32 22.5 34.14 34.14 0 0 0 8.42 22.5 25.07 25.07 0 0 1-7.74 1.25 23.74 23.74 0 0 1-20.19-11.3.64.64 0 0 0-.15-.19l-4.9 2.5-4.9 2.55v.2a34.85 34.85 0 0 0 30.13 17.32 34.06 34.06 0 0 0 17-4.52 34.06 34.06 0 0 0 17 4.52 34.85 34.85 0 0 0 30.05-17.31v-.2l-4.91-2.55zm-37.36 4.26a24.06 24.06 0 0 1-6.64-16.49 23.13 23.13 0 0 1 6.64-16.3 23.13 23.13 0 0 1 6.64 16.3 24.07 24.07 0 0 1-6.64 16.49z"/></svg>