<svg data-name="Слой 1" xmlns="http://www.w3.org/2000/svg" width="200" height="65.49"><path d="M167.1 55.85l-.62.55c-.88.79-1.78 1.63-2.88 1.21a1.1 1.1 0 0 1-.56-.82c0-2.25 1-4.34 1.95-6.37l.25-.53c2.83-4.72 6.11-10.28 10.94-14.14a2.72 2.72 0 0 1 2.63-.7 1.36 1.36 0 0 1 .46.9 1.5 1.5 0 0 1-.15.49c-1.35 2.18-2.63 4.46-3.88 6.66a92.39 92.39 0 0 1-8.13 12.75zM141 44.72a5.42 5.42 0 0 1-4.07-4c-.53-2.6 1.26-4.63 3-5.65a3 3 0 0 1 2.68-.49 2.71 2.71 0 0 1 1 2.41 14.65 14.65 0 0 1-.15 1.79v.13a24.36 24.36 0 0 1-2.4 5.8zM128.5 57a2.88 2.88 0 0 1-.45-1.62c-.06-3.59 3.8-10 6.52-13.51a10.6 10.6 0 0 0 5.29 4.78C137.92 51 131.28 60.22 128.5 57zm47.05.64c-.65.44-1.55.1-1.21-.9.84-2.56 4.2-7.78 4.2-7.78l9.35-16.58h-6.4l-1 1.65a8.79 8.79 0 0 0-1.49-1.84c-1.56-1-3.86-.52-5.44.37-6.88 4-11.91 12-15.87 18.18 0 0-4.17 6.89-6.49 7.41-1.81.15-1.62-2.29-1.54-2.86a46.47 46.47 0 0 1 4-11.53 88.56 88.56 0 0 0 10.57-8.64C171.66 28 178 19.88 178.89 18.06a14.59 14.59 0 0 1-2.18.24C171 26.33 159.17 38 155.6 39.74c1.58-3.81 11.81-22 20.51-30.66l1.37-1.32c2.12-2.07 4.31-4.19 6-4.54.18 0 .41 0 .61.42a7.9 7.9 0 0 1-1.19 4.16l-1 2a22.33 22.33 0 0 0 2.26-.55c1-2 2.19-4.15 1.77-6.77a1.94 1.94 0 0 0-1.52-1.65c-2.6-.49-5.42 1.43-7.7 3l-.09.05C164.92 13 155 26.24 146.41 44.28c-.63.47-3 1-3.46.77a29.36 29.36 0 0 0 2.46-6.68 17.76 17.76 0 0 0 .18-2.21 4.66 4.66 0 0 0-1.79-4.08 6.18 6.18 0 0 0-5.08.18c-6.17 2.56-10.79 8.89-14.12 14.11-1.79 3.31-3.58 6.86-4.07 10.92-.35 3.18.36 5.23 2.17 6.26s4.2 0 5.12-.51c6.26-3.29 10.63-9.9 14.07-15.94a20.18 20.18 0 0 0 3.44-.44h.06l-.82 2.47c-2.18 6.4-3.19 10.76-1.13 13.34 2.95 3.64 7.83-.13 11.8-5.1-.85 6 2.24 6.9 4.6 6.44 2.71-.73 5.72-3.62 7.12-5.1-.45 1.74-.33 4.85 2.13 5.16 1.69.31 3-.61 4.41-1.39 5.24-2.85 11.52-12.37 13.15-15.12h-2.14c-2.32 3.5-5.26 8.09-9 10.27zM94.8 22.12h6l3.39-5.5h-6zm95.84-14.61c-4.57 2.6-9.32 4.28-15.06 3.7a93.45 93.45 0 0 0-4.58 5.54c8.06 2 16.6-2.51 21.36-6.84A33.63 33.63 0 0 0 200 0a40 40 0 0 1-9.36 7.48zm-50.45-1.39c-1 10.94-9.46 17.36-11.56 17.87-1.28.26-3.45-.31-1.51-4.9C130 12.9 134.86 7.65 140.1 5a2.8 2.8 0 0 1 .09 1.15zm-16.58 27.57a3.72 3.72 0 0 0-3.6-2.07c-5 .46-9.9 4.57-12.47 10.48a30.1 30.1 0 0 0-2.54 9.54 26.37 26.37 0 0 1 8.33-6.35 17.34 17.34 0 0 1 3-7.23c.95-1.41 2.84-3.68 5-3.07 1.86.62 1.2 5.76-1.26 10.74a34.5 34.5 0 0 1-7.45 9.84c-2.5 2.12-6.2 4.68-9.44 2.71-2-1.21-3.08-3.73-2.86-7 1-9.24 5.18-17.11 11.2-26.07 6.21-8.32 13-16.87 22.26-21.43a6.22 6.22 0 0 1 5.13-.59S130.19 8 126.07 16.77c-1 2.23-2.51 5.25-1 7.92a3.09 3.09 0 0 0 3.23 1.43c5.05-1.17 8.32-5.89 11-10.21 1.55-3.27 2.92-6.53 2.92-10.15 0-.44 0-1-.06-1.46 2.41-1.28 7.37 1 7.37 1 3.87 1.28 12.11 7.59 14.89 8.8 1.36-1.57 3.58-4 4.84-5.14l-1.82-1.12c-2.91-1.77-6-3.46-9-5.12a18 18 0 0 0-15.31-1.41l-2.14.75C138.82-.27 135.36 0 132.81.57c-9.18 2.63-17.7 9.06-26.84 20.2C99.25 29.5 95.09 37 92.87 44.48c-1.71 5-2.23 12.39 1.95 16.76 3.55 3.71 8.26 2.91 11.59 1.57 7.21-3.55 13.68-11.2 16.91-20 .78-2.62 1.64-6.31.3-9.13zM43.73 25.2L42.51 28c-.18.15-.45.07-.77 0l-.54-.09a4.88 4.88 0 0 1-3.39-3c-.55-2.63 1.7-4.7 2.69-5.45s2.43-1 3.29-.33a3.45 3.45 0 0 1 .73 2.31 12.52 12.52 0 0 1-.78 3.77zm-2.6 5.29s-.05.17-.08.22l-2.75 4.48c-1.66 2.21-3.73 5-6.32 6.33-.77.26-1.83.42-2.37-.26-1.15-1.37-.56-3.28-.08-4.81l.17-.55a45.54 45.54 0 0 1 5.68-10.08h.11a.16.16 0 0 1 0 .05 9.12 9.12 0 0 0 5.7 4.3v.05a.9.9 0 0 1-.1.29zm34.37-2.95a87.59 87.59 0 0 1 5.68-7c2.93-2.58 4.11-1.45 4.21-.64-2.74 4.9-6 10.52-9 15.57l-1 1.45a14 14 0 0 1-4.9 5 1.42 1.42 0 0 1-1.18-.13 1.25 1.25 0 0 1-.53-1.21c.13-1.57 1.73-6.38 6.68-13zM45 16.42c-3.79-2.49-11.41 2.27-17.52 10.43-5.58 7.32-8 15.83-5.37 19.76 3.9 4.63 11.15-2.1 14.23-5.71l.4-.42a44.92 44.92 0 0 0 5.28-7.56l1.51-2.49c.89-.16 2-.42 3.17-.77 0 .05-4.62 7.79-4.15 11.64.15 1.17 0 5.45 4.21 6.75 5.57.93 10-3.38 13.94-7.23l1-1-.22.89c-1.63 5.67.57 6.86 1.94 7.3 4.16 1.21 9.12-4.83 9.14-4.83-.13 1.9-.51 3.48 1.5 4.74 1.89.68 3.81-.36 5.26-1.32 5.24-3.7 9.47-9.48 12.88-14.48h-2.09s-5.37 7.75-8.84 9.43c0 0-.64.32-1 .07s-.27-1.18 0-1.75l13.4-23.25h-6.31s-.69 1.12-.75 1.19-.14-.23-.21-.32c-3.91-5.42-12.78 2.91-19.46 12.57A63.46 63.46 0 0 1 57.71 41s-5 4.61-7.17 1.3a6.39 6.39 0 0 1-.1-4.76c2.49-7.14 6.8-13.6 11.7-17.54 1.38-1.08 2.89-1.39 3.63-.93a1.59 1.59 0 0 1 .38 2.18 3.52 3.52 0 0 0-2.8 1.08c-1.46 1.54-2 3-1.51 4.41 2.26 3.22 6.78-3.15 6.56-7a4.17 4.17 0 0 0-1.93-3.35 6.64 6.64 0 0 0-5.8.06c-2.18.82-5.63 3.7-7.65 5.93-2.54 2.8-6.89 5.91-8.25 5.56.45-1.19 4.12-8.71.25-11.53zm31.8 40.71C69.36 52.33 59.26 51.49 43 56c-17.36 4.08-23.15 6.7-30.76 1.45-2.92-2.58-4-6.73-3.19-12.71 1.79-9.74 6.69-19.14 15.4-29.55 4.86-5.41 9.37-10.06 15.32-11.93 4.56-1.17 4.14 2.41 3.58 2.93a4.42 4.42 0 0 0-2.35.59 6 6 0 0 0-2.39 4.08c-.13 3.16 3.14 2.51 4.56.77 1.52-2 3.77-5.71 2-9.2A5.2 5.2 0 0 0 41.59 0c-5.45-.29-10.53 2.31-15.21 5.18A66.47 66.47 0 0 0 3.3 33C.63 39.47-1.79 48.8 1.84 56.4c2.8 5.27 8.62 8.07 15.57 7.48a122.73 122.73 0 0 0 14.72-3c4-1 24.24-7.92 30.9 4.21a9 9 0 0 1 7.75-4.39c4.55-.42 11.12 1.32 15.9 4.83-1.59-2.4-6.11-5.93-9.88-8.36z" fill="#f40009"/></svg>