<svg xmlns="http://www.w3.org/2000/svg" width="433.27" height="83.89"><path fill="#014593" d="M33.9 13.15c-5.1 0-6.58 2.27-6.58 7.25v8.28h13.61l-1.36 13.38H27.32v40.59H11V42.06H0V28.68h11v-8C11 7.14 16.44 0 31.63 0a77.18 77.18 0 0 1 9.52.56v12.59"/><path fill="#014593" d="M42.06 54c0-15.08 7.14-26.42 22.11-26.42 8.16 0 13.15 4.2 15.53 9.41v-8.31h15.65v54H79.7v-8.19c-2.27 5.21-7.37 9.29-15.53 9.29-15 0-22.11-11.33-22.11-26.41m16.33.23c0 8.05 3 13.37 10.54 13.37C75.62 71 79 66.09 79 58.39v-5.45c0-7.71-3.4-12.59-10.09-12.59-7.59 0-10.54 5.33-10.54 13.38z"/><path fill="#014593" d="M129.35 27.54c6.35 0 12.36 1.36 15.64 3.63l-3.63 11.56a25.68 25.68 0 0 0-10.88-2.49c-8.85 0-12.7 5.1-12.7 13.83v3.17c0 8.73 3.85 13.83 12.7 13.83a25.68 25.68 0 0 0 10.88-2.49L145 80.15c-3.28 2.27-9.3 3.63-15.64 3.63-19.16 0-27.89-10.32-27.89-26.87v-2.5c0-16.55 8.73-26.87 27.89-26.87"/><path fill="#014593" d="M147.15 57.7v-4.76c0-15.3 8.73-25.4 26.53-25.4 16.78 0 24.14 10.21 24.14 25.17v8.61h-34.35c.34 7.38 3.63 10.68 12.7 10.68a46.47 46.47 0 0 0 17.35-3.28l2.94 11.22c-4.3 2.27-13.15 4-21 4-20.63 0-28.34-10.31-28.34-26.19m16.33-7h19.75v-1.44c0-5.9-2.38-10.54-9.52-10.54-7.37 0-10.2 4.65-10.2 11.9m94.88 6.69c0 15.08-7.25 26.42-22.22 26.42-8.16 0-13.83-4.08-16.1-9.3v8.16h-15.41V1.58L221 .11v36.05c2.38-4.76 7.59-8.61 15.19-8.61 15 0 22.22 11.33 22.22 26.41M242 53.62c0-7.6-3-13.26-10.77-13.26-6.69 0-10.32 4.76-10.32 12.47v5.67c.09 7.7 3.67 12.5 10.36 12.5 7.82 0 10.73-5.7 10.73-13.3zM263.8 57v-2.7c0-15.53 8.84-26.76 26.87-26.76s26.87 11.23 26.87 26.76V57c0 15.54-8.85 26.76-26.87 26.76S263.8 72.56 263.8 57m37.41-3.85c0-7.14-3-12.81-10.54-12.81S280.13 46 280.13 53.17v5c0 7.14 2.94 12.81 10.54 12.81s10.54-5.67 10.54-12.81zM323 57v-2.7c0-15.53 8.84-26.76 26.87-26.76s26.87 11.23 26.87 26.76V57c0 15.54-8.85 26.76-26.87 26.76S323 72.56 323 57m37.41-3.85c0-7.14-3-12.81-10.54-12.81S339.3 46 339.3 53.17v5c0 7.14 2.94 12.81 10.54 12.81s10.54-5.67 10.54-12.81z"/><path fill="#014593" d="M399.15 54.41l16.1-25.73h17.35l-16.9 26.64 17.57 27.32h-17.33l-16.79-26.41v26.41h-16.32V1.58L399.15.11"/></svg>