<svg xmlns="http://www.w3.org/2000/svg" width="371.06" height="300"><defs><linearGradient id="a" x1="59.84" y1="295.86" x2="141.98" y2="295.86" gradientTransform="matrix(1.42 .1 .1 -1.42 -11.12 491.33)" gradientUnits="userSpaceOnUse"><stop offset="0" stop-color="#30a14f"/><stop offset="1" stop-color="#1b6b47"/></linearGradient></defs><path d="M22.87 150c0-82.85 68.44-150 152.86-150s152.86 67.15 152.86 150-68.44 150-152.86 150S22.87 232.84 22.87 150" fill="#fff"/><path d="M36.49 150.5c0-75.58 62.67-136.84 140-136.84s140 61.27 140 136.84-62.66 136.84-140 136.84-140-61.26-140-136.84" fill="#ff8300"/><path d="M94 92.42c-8.67-9.17-26.76-10.54-44-2.35C42.27 93.75 3.38 113.71.33 145l-.14 1.91Q0 150.8 0 154.62c0 46.7 21.61 87.69 44 108.38 12.34 11.37 22.35 18.16 31.14 14.29 5-2.22 8.78-7.12 10-16.37a131.62 131.62 0 0 0 .53-20.58c9.57 12.17 25.79 17 38.65 14.18 10.43-2.27 22.57-10.68 24.58-23.78l.44-2.91 3.48.9c6.64 1.18 16.19.91 21.41-3.74a11.22 11.22 0 0 0 3.38-5.22l.79-2.62 2.6.85a22.45 22.45 0 0 0 17.31-1.39 24.19 24.19 0 0 0 8.77-7.21l1.82-2.4 2.17 2.1a21.56 21.56 0 0 0 6 4.3 24.44 24.44 0 0 0 26.51-4.34c2.6-2.32 5.36-6.47 7.75-11.7l1.39-3 2.85 2.18 1.51 1.15c3 1.72 7.85 2.52 14.5-3.38 4.95-4.41 9.17-10.67 12.54-18.61l1.62-3.82 2.79 3.07a28.1 28.1 0 0 0 5 4.42c8 5.43 18.77 6.94 26.76 3.74a23.82 23.82 0 0 0 6.6-4l1.55-1.32L330 179c4.28 2.94 9.64 5.09 16.38 6.59s10.35-1.7 11.79-3.76c2.47-3.49 2.36-8.44-.27-12.61-2.43-3.86-1.26-8.18 1.17-16.09 1.7-5.5 3.63-11.73 4.11-19.14 1.46-22.14-7.26-33.36-14.82-38.87C335.9 86 320 87.3 310.17 91.19l-2.16 1-3.44 1.72-1.08-2.64a17.75 17.75 0 0 0-5.49-7.19c-5.29-4.12-12.75-5.4-22.17-3.82l-1.6.27-1-1.31C257.52 57.9 245 62 241.49 63.75c-5.34 2.69-8.67 8.18-9.38 15.48-.07.73-.1 1.49-.1 2.3a43.57 43.57 0 0 0 .75 7.49l.49 2.8-6.38.67c-4.09.41-7.62.76-10 1.26-4.53 1-7.8 3.93-8.77 8l-.23 1.4v4.02l-2.36.49-1.71.18c-8.1 1.38-16.07 6.26-21.71 13.37l-1.36 1.71-1.94-1c-3.41-1.75-6.45-2.24-9.29-1.46a11.54 11.54 0 0 0-7.46 6.14 13 13 0 0 0-1.13 4l-.78 6.2-3.92-4.86a38.67 38.67 0 0 0-10.49-9.19c-12.9-7.57-28-6.3-37.77-2.58C103 122 94.69 125 87.8 133.26c11.49-13.78 17.53-28.87 6.22-40.84" fill="#fff"/><path d="M297.36 98.62c.18-5.47-4.76-15.78-26.5-9.5-20.7-33.26-39-19.19-27.82 8.81-5.7 1.7-19.65 2.3-24.61 3.33-4.5 1-3.43 5.13.37 8.16 7 5.61 24.95 7.56 31.91 8.28 9.91 24.59 12.52 54.35 9.67 67.9-1.61 7.71 2.28 6.38 6.08 3 16.92-15.07 20.2-50.5 15.46-74.47 12.72-5.26 15.29-10.82 15.43-15.51M313 98.3a33.18 33.18 0 0 0-14.4 10.7c-2.48 3.17.11 6.34 3.18 5.58 6.93-1.69 18.06-1.61 19.81 12.17-23.42.75-32.66 13-32.72 28.78-.06 18.39 19 24.25 28.51 20.44 4.53-1.81 7.31-4.13 7.87-8.74 1.18-9.74-10.88-9.64-13.58-10.58-9.33-3.26-6.28-14.09-.38-17.07 5.21-2.63 12.51.46 13.37 8.43 1.65 15.15 1.6 25.22 23.43 30 5.22 1.16 4.7-2.72 3.39-4.81-7.16-11.36 3-22.84 4.13-39.81C358 96.94 329.69 91.68 313 98.3M86.26 165.17c-3.7-7-17.16-3.08-30.77 4.31-3.4-6.54-6.95-16-6.95-16S71.88 142.15 87.26 119c16.63-25-11.68-32.61-33.94-22-15.17 7.19-44.21 25.55-45.48 50.29-2.36 46.19 18.38 88.87 41.4 110.13 21.27 19.63 27.45 16.46 27.32-2.26A197.28 197.28 0 0 0 67.29 197c12.13-10.47 22.64-25 19-31.85m84.2 51.08c-.21-3.41-10.5-6.47-9.77-27.42a162.07 162.07 0 0 0-1.33-29.24c-5.41-36.77-34.16-37.75-48.66-32.26-10.44 4-17.64 12.63-19.86 17.26-2.3 4.81-1 9.74 4.79 6.92 5.44-2.67 13.27-4.1 17.66.85 4.09 4.61 4.23 10.71 5.1 16.53-3 .59-11.85 3.41-14.91 5.43-13.37 8.81-29.52 27-17.32 52.43 5.93 12.37 19.86 24 36.56 20.33 9.09-2 20.81-10.24 18.68-23.15-1.72-10.38-17.35-9.88-25.92-10.4-18.29-1.13-13.61-17.89-7.5-24.06 7.92-8 17.55-2 20.2 5.38 4.87 13.5 9.82 23.49 26 26.37 7.32 1.31 16.66.18 16.33-5m12.47-81c6.08-19.37 33.55-32.3 55.4-3 20.64 27.63 9.67 62.7.15 71.16-10.51 9.34-27.11 3.79-26.64-11.78.32-11.28 4.53-13.32 7.6-31.93 2.8-17.06-.86-32.66-16.45-28.17-10.09 2.89-11.82 16.47-5.08 34 7.9 20.51 10.63 37.57-3 44.34-11.2 5.58-23.16-2-24.09-19.62-1.11-21.24 3.82-40.9-1.31-53.05-1.58-3.73-1.74-8.22 2-9.26 3.54-1 8.63 4.28 11.4 7.36" fill="#134683"/><path d="M353 163.53a9 9 0 1 1 9 9 9 9 0 0 1-9-9" fill="#fff"/><path d="M361.28 163.5h.62c.7 0 1.28-.31 1.24-.89s-.42-.83-1.24-.77a3 3 0 0 0-.71.12zm.15 3.13l-1.28.08-.33-5.55a11.47 11.47 0 0 1 2.12-.32 3.24 3.24 0 0 1 2 .33 1.56 1.56 0 0 1 .61 1.16 1.43 1.43 0 0 1-1.08 1.4v.07c.55.13.88.56 1.1 1.3a3.21 3.21 0 0 0 .49 1.32l-1.39.08a4.2 4.2 0 0 1-.52-1.28c-.14-.61-.49-.86-1.21-.82h-.6zm.41-7.39a4.46 4.46 0 0 0 .6 8.9 4.27 4.27 0 0 0 4-4.7 4.32 4.32 0 0 0-4.55-4.21zm0-1.13a5.61 5.61 0 1 1-5.44 5.89 5.59 5.59 0 0 1 5.45-5.92z" fill="#134683"/><path d="M221.6 85.2s-15.71-10.05-34.68 5.38c0 0-15.92 12.79-29.88 13.22 0 0 1.57-2 2-8.07 0 0-24.53 23.25-55.78-14.35 0 0 9.52 6.75 29.78-16.8 0 0 22.24-26.27 39-16.14 0 0-1.42-5.1-3.81-6.7.03 0 46.95-6.65 53.37 43.46z" fill="#30a14f"/><path d="M186.92 90.58c16.5-13.43 30.53-7.57 33.9-5.81-7.44-12.58-30.49-43.19-65.1-12.49-24.35 21.6-43.7 14.61-52.06 9.58C134.72 118.79 159 95.74 159 95.74c-.43 6-2 8.07-2 8.07 14-.43 29.92-13.23 29.92-13.23z" fill="url(#a)"/></svg>