<svg xmlns="http://www.w3.org/2000/svg" xmlns:xlink="http://www.w3.org/1999/xlink" width="300" height="112.49"><defs><clipPath id="d"><path fill="none" d="M-37.52 208.47H337.2V-37.5H-37.52v245.97z"/></clipPath><radialGradient id="e" cx="-154.76" cy="452.47" r="1" gradientTransform="matrix(647.66 0 0 -631.53 100382.31 286366.71)" gradientUnits="userSpaceOnUse"><stop offset="0" stop-color="#00050d"/><stop offset=".7" stop-color="#051125"/><stop offset=".9" stop-color="#173e7e"/><stop offset=".95" stop-color="#4ca9e3"/><stop offset="1" stop-color="#4ca9e3"/></radialGradient><linearGradient id="a" x1="-157.95" y1="451.66" x2="-156.95" y2="451.66" gradientTransform="matrix(0 -114.32 -114.32 0 51783.8 -17942.87)" gradientUnits="userSpaceOnUse"><stop offset="0" stop-color="#08142e"/><stop offset=".81" stop-color="#17326e"/><stop offset="1" stop-color="#0d69a9"/></linearGradient><linearGradient id="f" x1="-157.95" y1="451.66" x2="-156.95" y2="451.66" gradientTransform="matrix(0 -114.33 -114.33 0 51790.36 -17944.47)" xlink:href="#a"/><linearGradient id="g" x1="-159.25" y1="451.07" x2="-158.25" y2="451.07" gradientTransform="matrix(0 -79.21 -79.21 0 35904.74 -12520.44)" xlink:href="#a"/><linearGradient id="h" x1="-159.2" y1="451.09" x2="-158.2" y2="451.09" gradientTransform="matrix(0 -80.27 -80.27 0 36416.78 -12683.75)" xlink:href="#a"/><linearGradient id="i" x1="-159.58" y1="450.92" x2="-158.58" y2="450.92" gradientTransform="matrix(0 -73.53 -73.53 0 33369.44 -11642.48)" xlink:href="#a"/><linearGradient id="j" x1="-159.43" y1="450.99" x2="-158.43" y2="450.99" gradientTransform="matrix(0 -76 -76 0 34446.87 -12025.23)" xlink:href="#a"/><linearGradient id="k" x1="-159.21" y1="451.09" x2="-158.21" y2="451.09" gradientTransform="scale(80.14) rotate(-90 147.79 -305.8)" xlink:href="#a"/><linearGradient id="l" x1="-159.21" y1="451.09" x2="-158.21" y2="451.09" gradientTransform="matrix(0 -80.12 -80.12 0 36273.76 -12661.16)" xlink:href="#a"/><linearGradient id="m" x1="-159.23" y1="451.08" x2="-158.23" y2="451.08" gradientTransform="matrix(0 -79.57 -79.57 0 36060.24 -12576.27)" xlink:href="#a"/><linearGradient id="n" x1="-159.2" y1="451.09" x2="-158.2" y2="451.09" gradientTransform="matrix(0 -80.15 -80.15 0 36366.75 -12666.61)" xlink:href="#a"/><linearGradient id="o" x1="-159.2" y1="451.09" x2="-158.2" y2="451.09" gradientTransform="matrix(0 -80.21 -80.21 0 36362.63 -12674.48)" xlink:href="#a"/><linearGradient id="p" x1="-159.21" y1="451.09" x2="-158.21" y2="451.09" gradientTransform="matrix(0 -80.14 -80.14 0 36374.37 -12663.57)" xlink:href="#a"/><linearGradient id="q" x1="-159.3" y1="451.05" x2="-158.3" y2="451.05" gradientTransform="matrix(0 -78.29 -78.29 0 35459.18 -12377.8)" xlink:href="#a"/><linearGradient id="r" x1="-159.23" y1="451.08" x2="-158.23" y2="451.08" gradientTransform="scale(79.6) rotate(-90 147.36 -305.4)" xlink:href="#a"/><linearGradient id="s" x1="-159.21" y1="451.09" x2="-158.21" y2="451.09" gradientTransform="scale(80.13) rotate(-90 147 -305.04)" xlink:href="#a"/><linearGradient id="t" x1="-159.21" y1="451.09" x2="-158.21" y2="451.09" gradientTransform="matrix(0 -80.11 -80.11 0 36250.54 -12660.38)" xlink:href="#a"/><linearGradient id="u" x1="-159.21" y1="451.09" x2="-158.21" y2="451.09" gradientTransform="scale(80.13) rotate(-90 147.17 -305.2)" xlink:href="#a"/><linearGradient id="v" x1="-159.2" y1="451.09" x2="-158.2" y2="451.09" gradientTransform="matrix(0 -80.17 -80.17 0 36269.22 -12669.67)" xlink:href="#a"/><linearGradient id="w" x1="-159.3" y1="451.05" x2="-158.3" y2="451.05" gradientTransform="scale(78.43) rotate(-90 147.7 -305.82)" xlink:href="#a"/><linearGradient id="x" x1="-159.21" y1="451.09" x2="-158.21" y2="451.09" gradientTransform="scale(80.13) rotate(-90 147.5 -305.53)" xlink:href="#a"/><linearGradient id="y" x1="-159.45" y1="450.98" x2="-158.45" y2="450.98" gradientTransform="matrix(0 -75.7 -75.7 0 34276.24 -11978.97)" xlink:href="#a"/><linearGradient id="z" x1="-159.21" y1="451.09" x2="-158.21" y2="451.09" gradientTransform="scale(80.13) rotate(-90 147.4 -305.45)" xlink:href="#a"/><linearGradient id="A" x1="-159.2" y1="451.09" x2="-158.2" y2="451.09" gradientTransform="matrix(0 -80.14 -80.14 0 36244.66 -12663.89)" xlink:href="#a"/><linearGradient id="b" x1="-157.73" y1="452.55" x2="-156.73" y2="452.55" gradientTransform="scale(-133.9 133.9) rotate(-75 -373.52 124.6)" gradientUnits="userSpaceOnUse"><stop offset="0" stop-color="#b2b1b1"/><stop offset=".35" stop-color="#deddde"/><stop offset=".65" stop-color="#deddde"/><stop offset="1" stop-color="#b2b1b1"/></linearGradient><linearGradient id="B" x1="-157.74" y1="452.55" x2="-156.74" y2="452.55" gradientTransform="scale(-133.28 133.28) rotate(-75 -374.22 124.78)" xlink:href="#b"/><linearGradient id="C" x1="-152.07" y1="454.33" x2="-151.07" y2="454.33" gradientTransform="matrix(0 114.91 114.91 0 -52057 17472.59)" gradientUnits="userSpaceOnUse"><stop offset="0" stop-color="#fff"/><stop offset=".55" stop-color="#fff"/><stop offset=".69" stop-color="#fafafa"/><stop offset=".8" stop-color="#d3d2d2"/><stop offset="1" stop-color="#bdbcbc"/></linearGradient><linearGradient id="c" x1="-149.09" y1="455.68" x2="-148.09" y2="455.68" gradientTransform="matrix(0 56.99 56.99 0 -25795.1 8531.53)" gradientUnits="userSpaceOnUse"><stop offset="0" stop-color="#fff"/><stop offset=".55" stop-color="#fff"/><stop offset=".69" stop-color="#efeeee"/><stop offset=".8" stop-color="#e9e9e9"/><stop offset="1" stop-color="#d3d2d2"/></linearGradient><linearGradient id="D" x1="-150.74" y1="454.94" x2="-149.74" y2="454.94" gradientTransform="matrix(0 79.05 79.05 0 -35835.81 11929.88)" xlink:href="#c"/></defs><g clip-path="url(#d)"><path d="M299.08 51.9l.14.82c0-.27-.09-.55-.14-.82M150 0C66.74 0 0 25 0 56.25c0 31.1 67.29 56.25 150 56.25s150-25.24 150-56.25S232.71 0 150 0" fill="#d3d2d2"/></g><path d="M2.31 56.22c0 29.83 66.09 54 147.7 54 81.61 0 147.7-24.13 147.7-54 0-29.85-66.09-54-147.7-54-81.6 0-147.7 24.12-147.7 54" fill="url(#e)"/><path d="M13.42 56.23a16 16 0 0 0 1.19 6 15.28 15.28 0 0 1-.51-3.91c0-24.7 61.15-44.73 136.57-44.73 69.38 0 126.67 16.95 135.41 38.88-5.82-23.1-64.52-41.24-136.08-41.24-75.43 0-136.57 20.14-136.57 45" fill="url(#a)"/><path d="M291.53 56.23c0 27.21-63.37 49.26-141.54 49.26C80.42 105.49 22.59 88 10.69 65c9.05 24 68.42 42.48 140.31 42.48 78.16 0 141.52-21.86 141.52-48.84a18.36 18.36 0 0 0-1.91-8 17.94 17.94 0 0 1 .92 5.63" fill="url(#f)"/><path d="M176.36 61c-3.17 3.3-3.4 7.57-1.33 9.49a3.91 3.91 0 0 0 2.51 1.06 7.05 7.05 0 0 1-.31-7.74 4.51 4.51 0 0 1-.19-2.56.35.35 0 0 0-.35-.41.46.46 0 0 0-.33.16" fill="url(#g)"/><path d="M209.05 68c0 .5.17 1.43.28 2.13l.5-1c.13-.27.07-.35-.05-.39-.33-.12-.66-.36-.7-.62a.22.22 0 0 1 0-.15z" fill="url(#h)"/><path d="M212.94 57.24a5.71 5.71 0 0 1 1.83 3.37c0 .54.46.6.79.13l.3-.47-.29-.37a28.36 28.36 0 0 0-2.63-2.66z" fill="url(#i)"/><path d="M169 55.15a7.9 7.9 0 0 1 1.19 4.94c0 .55.39.51.65.14l.42-.59a13.93 13.93 0 0 0-2.26-4.49z" fill="url(#j)"/><path d="M198.29 66.25c-3 3.64-4.55 7.33-4.61 10.94a3.81 3.81 0 0 0 1.59 3.44 3.68 3.68 0 0 0 1.13.39 6.23 6.23 0 0 1-.2-1.45 16.78 16.78 0 0 1 4.07-11.06c3.59-4.42 7.35-6.62 10-5.41a2.87 2.87 0 0 0-1.75-2.33 3.58 3.58 0 0 0-1.57-.35c-2.49 0-5.69 2.2-8.64 5.82" fill="url(#k)"/><path d="M138.92 58.55a23.76 23.76 0 0 0-10.82 7.62c-3.15 4.23-4 9.33-1.89 12.26A4.89 4.89 0 0 0 128 80c-1.14-3.51-.32-8.21 2.36-11.82 2.76-3.74 5.86-5.15 9.4-6.68a.66.66 0 0 0 .43-.88c-.15-.71-.64-2.46-.79-2.88a.64.64 0 0 1-.45.86" fill="url(#l)"/><path d="M168.92 69.82c-3.74 5.72-7.23 11.24-10.94 17a.87.87 0 0 1-.75.47h-7.33a.49.49 0 0 1-.51-.31c.2.89.52 2.49.61 2.87a.49.49 0 0 0 .54.39h8.31a1 1 0 0 0 .75-.47c3.37-5.28 7-11 10.42-16.31.76 2.66 1.14 3.91 2.55 5.17a6.31 6.31 0 0 0 4.7 1.63 14.59 14.59 0 0 0 5.58-1.55 12.71 12.71 0 0 0 2-1.07 16 16 0 0 1 .27-2.91c0-.1-.08-.75-.64-.36a15.89 15.89 0 0 1-3.76 2 10.65 10.65 0 0 1-4.57 1 6.47 6.47 0 0 1-5.64-3.16 9.47 9.47 0 0 1-1.19-4.33c0-.09-.09-.24-.2-.24-.06 0-.14 0-.21.16" fill="url(#m)"/><path d="M233.31 72.76A73.57 73.57 0 0 1 222 84.15c-5.88 4.55-11.74 5.7-14.65 2.79a6.32 6.32 0 0 1-1.75-4c0-.71-.4-.75-.74-.42-3.47 3.43-9.49 7.23-15 4.53a9.1 9.1 0 0 1-4.79-6.66 24.64 24.64 0 0 0 1.73 6.67 8.23 8.23 0 0 0 2.89 3c4.86 2.4 11.81-.32 16.27-4.61l.12-.13.49 1.83a7 7 0 0 0 1.2 2.38c3.05 3.45 9.53 1.88 16.28-3.33a65.5 65.5 0 0 0 10-9.83c.13-.17.12-.41.05-.78-.2-.86-.51-2.44-.68-3.23a.56.56 0 0 1-.14.36m-48.21 7.48a2 2 0 0 0 0 .24v-.15a.11.11 0 0 0 0-.1z" fill="url(#n)"/><path d="M186.81 60.75a6.63 6.63 0 0 1-3.52 5.08 4.53 4.53 0 0 1-5.06-.55 4 4 0 0 1-1-1.37 11.9 11.9 0 0 0 1.1 3.49c1.31 2 3.57 2.47 6.07 1.12a6.43 6.43 0 0 0 3.19-6.41 11.51 11.51 0 0 0-1.37-4.79 5.57 5.57 0 0 1 .56 3.44" fill="url(#o)"/><path d="M238.12 40.11C237 42.09 215 75.53 213.63 79a2.56 2.56 0 0 0 0 2.54 2.15 2.15 0 0 0 1.87.83 6.93 6.93 0 0 1 .44-1.4c1.39-3.47 22-34.73 23.09-36.71a.68.68 0 0 0 0-.49l-.82-3.95a.57.57 0 0 1-.07.31" fill="url(#p)"/><path d="M146.93 55.68c.07.07.12.14.17.21a14.56 14.56 0 0 1 2.11 7.6c.08.6.34.62.64.3.27-.27.53-.55.78-.83a23.55 23.55 0 0 0-1.6-4.25 13.52 13.52 0 0 0-2.1-3.03z" fill="url(#q)"/><path d="M158.13 62.3c-4.74 3.59-8.72 9.18-10.74 11.68A70.57 70.57 0 0 1 142 81c-4.89 5.3-11.36 8.35-17.61 6.25a10.59 10.59 0 0 1-6.84-7.25c-.19-.65-.55-.83-.9-.4a25.52 25.52 0 0 1-4.8 4.28 1.1 1.1 0 0 1-1.05.21 10.9 10.9 0 0 1-1.9-2.49.4.4 0 0 1-.06-.17c.45 2.23.51 2.48 1.11 3.51a8.87 8.87 0 0 0 1.51 2 1.11 1.11 0 0 0 1-.09 20.64 20.64 0 0 0 5.07-4.1c.34-.32.67-.1.78.24a15.87 15.87 0 0 0 1.93 3.86 8.25 8.25 0 0 0 4.76 3.37 14.83 14.83 0 0 0 9.89-.6 26 26 0 0 0 9.11-6.55 67.3 67.3 0 0 0 5.41-7c2-2.49 5.16-6.91 9.56-10.67 1.54-1.31 3.23-2.17 4.28-1.75.64-1.64.34-2.54-.35-3a1.44 1.44 0 0 0-.81-.21 7.93 7.93 0 0 0-4 1.88" fill="url(#r)"/><path d="M79.26 57.82c-2.67 1.36-5.87 3.69-7.45 6.87a8.43 8.43 0 0 0 .42 8.7 7.65 7.65 0 0 0 .54.7 10.65 10.65 0 0 1 1-7.13 14.51 14.51 0 0 1 6-6.08c.94-.59 1.35-1.17.8-2.72-.16-.44-.25-1.23-.42-1.94a1.6 1.6 0 0 1-.9 1.6" fill="url(#s)"/><path d="M99.41 25.85c-7.7 2.88-11.08 9-9.45 13.07a3.88 3.88 0 0 0 1.46 1.82c-.54-3.77 2.28-9.93 9.68-12.38 9.69-3.2 20.48-1.18 29.17.68 1.21-.76 2.28-1.29 3.34-1.86.53-.27-.07-.6-.23-.6-6.95-1.31-14.07-2.85-21.14-2.85a36.52 36.52 0 0 0-12.83 2.14" fill="url(#t)"/><path d="M131.68 48.77c-3.48.2-8.93.73-12.61 1.19-.9.11-1 .28-1.21.59-5.88 9.69-12.15 20.14-19 27.13-7.38 7.5-13.53 9.47-20 9.53-7.52.05-14.23-4.22-15.91-11.71.9 4.18 3.6 9.23 6.72 11.42a16.67 16.67 0 0 0 9.95 3c7.42.13 14.19-2.93 21.36-10.22 6.89-7 12.86-16.76 18.74-26.45.2-.35.4-.5 1.39-.62 3.69-.46 7-.67 10.26-1 1-.09 1.71-.18 2.06.17a19.29 19.29 0 0 0 3.45 2.78 2.18 2.18 0 0 1 1.46.46 1.78 1.78 0 0 0 1-.48 1.39 1.39 0 0 0 .37-1.31 15.4 15.4 0 0 0-.62-2.85 1.16 1.16 0 0 1-.29 1.24 1.53 1.53 0 0 1-1.18.56 2.46 2.46 0 0 1-1.21-.44 11.44 11.44 0 0 1-3.37-2.71.81.81 0 0 0-.79-.37h-.46" fill="url(#u)"/><path d="M99.85 54.63a1.76 1.76 0 0 1-2.49-.27 1.59 1.59 0 0 1-.26-.84 8 8 0 0 0 .84 3.72 1.93 1.93 0 0 0 2.7.28 15.64 15.64 0 0 1 6.55-3.05l1.94-2.68a.26.26 0 0 0 0-.24c0-.08-.11-.11-.25-.12a15.24 15.24 0 0 0-9.06 3.2" fill="url(#v)"/><path d="M193.52 23.78l.13.22a1.49 1.49 0 0 0-.13-.22z" fill="url(#w)"/><path d="M193.87 25.21c-.12 2.14-1.78 4.21-5.88 6.44A29.92 29.92 0 0 1 173.38 35c-12.31.1-23.77-4.69-35.63-7.27 0 .52.15 1.14-.28 1.46C130.9 34.07 125 39 121 45.9c-.13.16-.06.32.17.3l3.07-.15c3.62-5.67 7.5-8.93 13.42-13.3.44-.33.88-.57.74-1.83 11.89 2.64 20.94 7 36.3 7.06 4.58 0 11-1.52 14.52-3.62 4-2.4 5.06-4.17 5.21-6a7.85 7.85 0 0 0-.2-1.9c-.13-.63-.23-1.44-.41-2a2.52 2.52 0 0 1 .07.83" fill="url(#x)"/><path d="M136.59 39.67l-.47.43a5 5 0 0 0-1.36 4c.09.5.28.59.51.55a4.17 4.17 0 0 0 .68-.21 3 3 0 0 1 1-1.92 2 2 0 0 1 1.63-.54c.45-.91.58-2 0-2.46a1.29 1.29 0 0 0-.86-.31 2.14 2.14 0 0 0-1.2.42" fill="url(#y)"/><path d="M141.33 43.89a7.9 7.9 0 0 1-4.78 3.87s-.38.08-.32.42c0 .39 1.31 1.19 2.1 1.75l.28-.1a6.22 6.22 0 0 0 3.33-3.23 7 7 0 0 0 .63-4.36 10.65 10.65 0 0 0-.88-3.55 6 6 0 0 1-.37 5.18" fill="url(#z)"/><path d="M108.47 33.8a3.1 3.1 0 0 1-.2 2.38c-3.26 7.65-9.48 13.72-17.05 14a9.79 9.79 0 0 1-9.58-5.65 15.6 15.6 0 0 0 5.67 6.2 10.5 10.5 0 0 0 6 1.51c7.89-.27 13.87-6.77 15.85-12.26a7.35 7.35 0 0 0-.13-4.14 11.17 11.17 0 0 0-.54-2z" fill="url(#A)"/><g clip-path="url(#d)"><path d="M299.08 51.9l.14.82c0-.27-.09-.55-.14-.82m-298 5c0-6.58 2.87-13.12 9-19.28C31.47 15.93 87.74 1.29 149.75 1 231.89.69 298.83 25.18 299 55.63c0 6.58-3 13-9.15 19.19-21.48 21.67-77.56 36.39-139.57 36.65C68.11 111.81 1.17 87.31 1 56.86M150 0C66.74 0 0 25 0 56.25c0 31.1 67.29 56.25 150 56.25s150-25.24 150-56.25S232.71 0 150 0" fill="#4f4c4d"/></g><path d="M.45 56.25a21.15 21.15 0 0 0 .47 4.36 21.41 21.41 0 0 1-.36-3.74c0-6.67 3-13.4 9.1-19.61C31.26 15.48 87.58.82 149.75.56c8.61 0 17.05.21 25.27.7-8.14-.51-16.5-.78-25-.78C67.08.47.45 25.33.45 56.25" fill="url(#b)"/><path d="M299.44 55.64c0 6.67-3.13 13.32-9.28 19.52-21.52 21.71-77.82 36.52-139.9 36.78-8.78 0-17.39-.2-25.75-.71 8.28.53 16.8.79 25.5.79 82.45 0 149.53-25.17 149.53-55.76a21.41 21.41 0 0 0-.3-3.48 20.79 20.79 0 0 1 .21 2.86" fill="url(#B)"/><path d="M8.44 56.23c0 27.21 63.37 49.26 141.55 49.26 78.17 0 141.54-22.05 141.54-49.26C291.53 29 228.16 7 150 7 71.82 7 8.44 29 8.44 56.23m5 0c0-24.85 61.14-45 136.57-45 75.43 0 136.56 20.14 136.56 45 0 24.85-61.13 45-136.56 45s-136.57-20.15-136.57-45" fill="url(#C)"/><path d="M230.1 39.52c-.56 0-.85.07-1.11.59-.87 1.67-11.46 17.54-13.43 20.63-.33.47-.74.4-.79-.13a6.64 6.64 0 0 0-4.27-4.94 10.89 10.89 0 0 0-5.68-.66 20.24 20.24 0 0 0-9.32 4.38c-4.12 3.12-7.66 7.18-12.25 10.17-2.5 1.63-5.93 3.05-8.21.93-2.07-1.92-1.84-6.19 1.33-9.49.34-.35.74-.06.68.25a4.19 4.19 0 0 0 1.2 4 4.53 4.53 0 0 0 5.06.55 6.63 6.63 0 0 0 3.52-5.08 5.78 5.78 0 0 0-5.31-6.58 10.61 10.61 0 0 0-7.63 2.77 14.51 14.51 0 0 0-3 3.3c-.26.37-.66.41-.65-.14.12-4.32-1.66-6.74-5.23-6.83-2.77-.07-5.73 1.44-8 3.28a74.18 74.18 0 0 0-7.11 7.25c-.3.31-.55.3-.64-.3a14.57 14.57 0 0 0-2.11-7.6 1.76 1.76 0 0 0-2.28-.56 16.27 16.27 0 0 0-2.68 1.6 1.51 1.51 0 0 0-.46 1.7 19.94 19.94 0 0 1-.74 13.23c-1.59 3.76-4.69 7.15-8.32 8.29-2.4.76-4.89.39-6.43-1.73-2.12-2.93-1.26-8 1.89-12.26a23.76 23.76 0 0 1 10.82-7.62.63.63 0 0 0 .44-.89c-.22-.66-.57-1.56-.71-2-.37-1-1.4-1.14-2.66-1a22.66 22.66 0 0 0-8.15 2.73c-6.81 3.64-10.22 10.7-11.72 14.47a14.71 14.71 0 0 1-2.15 4.02 38.89 38.89 0 0 1-4.89 4.74.87.87 0 0 0-.2 1 10.9 10.9 0 0 0 1.9 2.49 1.1 1.1 0 0 0 1.05-.21 25.52 25.52 0 0 0 4.8-4.28c.35-.43.71-.25.9.4a10.59 10.59 0 0 0 6.82 7.25c6.24 2.1 12.72-.94 17.61-6.25a70.57 70.57 0 0 0 5.42-7c2-2.5 6-8.09 10.74-11.68 1.74-1.33 3.8-2.34 4.83-1.67.83.54 1.1 1.79-.23 4.21-4.85 8.82-11.96 19.15-13.27 21.71-.24.43 0 .78.43.78h7.33a.87.87 0 0 0 .75-.47c3.71-5.8 7.2-11.33 10.94-17 .21-.33.4-.07.41.07a9.46 9.46 0 0 0 1.19 4.33 6.47 6.47 0 0 0 5.64 3.16 10.65 10.65 0 0 0 4.57-1 15.89 15.89 0 0 0 3.76-2c.56-.39.66.26.64.36-.86 4.61.2 10.07 4.78 12.33 5.48 2.7 11.51-1.1 15-4.53.34-.33.7-.29.74.42a6.33 6.33 0 0 0 1.75 4c2.9 2.91 8.77 1.76 14.65-2.79a73.61 73.61 0 0 0 11.29-11.39.5.5 0 0 0 0-.72c-.54-.56-1.33-1.22-1.87-1.72a.67.67 0 0 0-.82 0c-3.66 3.48-6.95 7.44-11.71 10.72-1.6 1.12-4.16 2-5.31.47a2.56 2.56 0 0 1 0-2.54C215 75.53 237 42.09 238.11 40.11c.2-.34 0-.59-.44-.59h-7.58m-34.82 41.1a3.83 3.83 0 0 1-1.59-3.44c.06-3.6 1.65-7.3 4.61-10.94 3.61-4.43 7.59-6.74 10.21-5.48 2.71 1.29 1.84 4.42.63 6.88a.69.69 0 0 0 0 .51c0 .25.38.5.7.62.12 0 .18.13.05.39a32.19 32.19 0 0 1-3 4.9 18.27 18.27 0 0 1-3.76 4.07c-1.71 1.41-3.93 2.93-6 2.93a3.78 3.78 0 0 1-1.81-.44" fill="url(#c)"/><path d="M113.32 19.24c-2.1 0-4.2.08-6.32.25-13.5 1.14-26.35 8.74-26.38 20.28 0 5.85 4.15 10.59 10.59 10.39 7.58-.26 13.79-6.32 17.05-14 1.23-2.9-1.06-4.11-2.14-2.44a19.28 19.28 0 0 1-7.64 6.8c-3.56 1.75-7.37 1.27-8.53-1.62-1.62-4.08 1.75-10.19 9.45-13.07 11.13-4.12 22.77-1.39 34 .71.16 0 .76.33.23.6a32.74 32.74 0 0 0-7.05 4.63 58.94 58.94 0 0 0-7.33 7.14c-2.21 2.7-3.79 5.11-5.86 7.78a.82.82 0 0 1-.64.37c-5.07.86-10 1.43-14.57 4.59a2 2 0 0 0-.78 2.68 1.76 1.76 0 0 0 2.49.27 15.24 15.24 0 0 1 9.06-3.2c.15 0 .21 0 .25.12v.24a134.1 134.1 0 0 1-10 12.78 73.87 73.87 0 0 1-5.92 6c-8.52 7.92-17.7 7.79-21 2.82a8.43 8.43 0 0 1-.42-8.7c1.58-3.18 4.79-5.51 7.45-6.87 1-.51 1.27-1.77.28-2.92-.63-.75-2.16-.89-3.29-.68a18.16 18.16 0 0 0-10.06 6.46 17.71 17.71 0 0 0-3.66 12.75c.83 8.77 8 13.83 16.23 13.77 6.52-.05 12.67-2 20-9.53 6.89-7 13.16-17.45 19-27.13.18-.31.31-.48 1.21-.59 3.68-.46 9.13-1 12.61-1.19.78 0 .94 0 1.25.35a11.44 11.44 0 0 0 3.37 2.71 2.46 2.46 0 0 0 1.21.44 1.53 1.53 0 0 0 1.18-.56 1.14 1.14 0 0 0 .28-1.28c-.21-.36-2.64-1.71-2.72-2.25-.05-.34.32-.42.32-.42a7.9 7.9 0 0 0 4.78-3.87c1.11-2.13 1.29-5-.74-6.54-1.78-1.38-4.46-1.16-6.61.76a8 8 0 0 0-2.5 7c0 .41 0 .55-.54.6-3.23.25-6.33.35-9.79.53-.23 0-.3-.13-.17-.3 4-6.91 9.92-11.83 16.48-16.68.43-.32.3-.95.28-1.46 11.86 2.58 23.32 7.37 35.63 7.27A29.92 29.92 0 0 0 188 31.66c4.1-2.24 5.76-4.3 5.88-6.44a1.87 1.87 0 0 0-2.4-2.1C179 26 167.18 25.93 154.8 24.44c-14-1.7-27.5-5.2-41.46-5.2m21.44 24.91a5 5 0 0 1 1.65-4.32 1.74 1.74 0 0 1 2.24-.27c.66.56.35 2-.32 2.92a5.36 5.36 0 0 1-3.07 2.21h-.09c-.19 0-.34-.13-.42-.56" fill="url(#D)"/></svg>