<svg data-name="Layer 1" xmlns="http://www.w3.org/2000/svg" width="216.72" height="152.27"><defs><linearGradient id="a" x1="56.17" y1="153.89" x2="150.96" y2="59.1" gradientTransform="matrix(1 0 0 -1 0 154)" gradientUnits="userSpaceOnUse"><stop offset="0" stop-color="#bed38b"/><stop offset="1" stop-color="#00813f"/></linearGradient><linearGradient id="b" x1="57.18" y1="152.88" x2="149.96" y2="60.1" gradientTransform="matrix(1 0 0 -1 0 154)" gradientUnits="userSpaceOnUse"><stop offset="0" stop-color="#91bb3e"/><stop offset="1" stop-color="#47a043"/></linearGradient><linearGradient id="c" x1="114.98" y1="102.89" x2="105.53" y2="119.93" gradientTransform="matrix(1 0 0 -1 0 154)" gradientUnits="userSpaceOnUse"><stop offset="0" stop-color="#fff"/><stop offset=".33" stop-color="#fdfefc"/><stop offset=".53" stop-color="#f7faf4"/><stop offset=".69" stop-color="#ecf4e6"/><stop offset=".83" stop-color="#ddebd2"/><stop offset=".96" stop-color="#cadfb8"/><stop offset="1" stop-color="#c2daad"/></linearGradient></defs><path d="M149.84 0H56.28v95h94.56V0zm0 94H57.29V1h92.56v93z" fill="url(#a)"/><path fill="url(#b)" d="M57.29 1h92.56v93H57.29z"/><path d="M77 52.26c1.35-.11 2.49-.24 3.43-.39l.3-1.54c-.85.41-2.21 1.11-3.73 1.93z" fill="#4baa42"/><path d="M77 52.26c-4.2 2.25-9.69 5.35-9.69 5.35a4.06 4.06 0 0 1-.36-.53 3.78 3.78 0 0 0 .55.89s6.92.13 11.9-.25c.28-1.74.62-3.7 1-5.84-.91.12-2.05.27-3.4.38zM93.66 48.82c.48-1.72 1-3.41 1.46-5.07-1.47.6-2.85 1.18-4.12 1.73a205.3 205.3 0 0 0-5.06 31.67s-2.15 1.59-5.64-.09a1.38 1.38 0 0 1-.44-.23v.06c-.79 5.51 2.87 7.53 2.87 7.53 3.2 2.14 5.51 1.07 5.51 1.07a258.68 258.68 0 0 1 4.1-29.68c3.31-.72 7.75-2 11.1-3 .51-2.37 1.09-4.9 1.73-7.56-3.69 1.17-7.58 2.33-11.51 3.57zM97.72 35.39c2.94-9.14 5.39-15.65 5.39-15.65a10.06 10.06 0 0 0-4.24 0 208.3 208.3 0 0 0-5.75 17.64q2.31-1.06 4.6-1.99zM125.42 26.67c2.37-6.45 4.07-10.26 4.07-10.26a21.28 21.28 0 0 0-5.8.25c-1.14 3.16-2.44 7-3.82 11.34q2.88-.75 5.55-1.33zM121.44 38.34l1.12-3.5q-2.6.63-5.14 1.32A278.84 278.84 0 0 0 107.83 87a7.53 7.53 0 0 1-5.61.17c-.41 4.25-.56 6.88-.56 6.88H111c1.7-19.25 3.8-32.42 7.74-46.32 13.49-4.35 28.86-14.09 32.15-16.49V31a115.66 115.66 0 0 0-16.69 1.48 258.3 258.3 0 0 1-12.76 5.86z" fill="#008743"/><path d="M125.42 26.67q-2.67.59-5.54 1.33c1.37-4.37 2.68-8.18 3.82-11.34 2.32-6.43 3.93-10.1 3.93-10.1a9.24 9.24 0 0 0-7.87.07c-4.42 2.7-7.27 13.27-7.27 13.27a293.74 293.74 0 0 0-3.56 11.33c-3.6 1.2-7.35 2.58-11.2 4.16q-2.28.94-4.61 2c2-7.28 4.12-13.3 5.75-17.64 1.84-4.88 3.12-7.63 3.12-7.63-.94-1.2-4.87-.75-4.87-.75-3.93.34-6.07 5.24-6.07 5.24a172.73 172.73 0 0 0-8.56 26q-2 1.07-4 2.22a51.22 51.22 0 0 0-10.61 7.27s-2.38 2.45-.93 5a4.26 4.26 0 0 0 .36.53s5.49-3.1 9.69-5.35a80.62 80.62 0 0 1 3.73-1.92 129.39 129.39 0 0 0-1.3 7.38c-.87 5.51-1.12 8.83-1.12 8.83-.95 7.48.74 9.67 1.58 10.28a1.39 1.39 0 0 0 .44.23c3.49 1.69 5.64.09 5.64.09A205.14 205.14 0 0 1 91 45.48a212.2 212.2 0 0 1 15.63-6.02q-.79 3-1.46 5.81c-.65 2.66-1.22 5.19-1.73 7.56-2.7 12.5-3.63 20.58-3.63 20.58-2 10.12 0 12.08 0 12.08a6.7 6.7 0 0 0 2.41 1.72 7.53 7.53 0 0 0 5.61-.17 278.86 278.86 0 0 1 9.61-50.89q2.53-.69 5.14-1.32c3.76-.91 7.64-1.71 11.59-2.34A115.55 115.55 0 0 1 150.85 31v-7.66s-9.91-.13-25.43 3.33z" fill="#fff"/><path d="M141 31.61a94.65 94.65 0 0 1 9.87-.59v-7.68a43.85 43.85 0 0 0-5.06.54C90.25 35.35 67.32 57.61 67.32 57.61s10.19-5.76 13.42-7.27c-1.4 6.92-2 12.16-2.31 14.64a36.26 36.26 0 0 0 9.14-1.91c1-6.27 2.14-12.18 3.44-17.58 4.21-1.83 9.54-4 15.63-6-1.66 6.33-3 12.07-4 17 3.69-1.94 7.45-4.1 11.16-6.36 1.15-5 2.37-9.61 3.59-13.9A147.36 147.36 0 0 1 141 31.61z" fill="url(#c)"/><path d="M119.49 80.86h-.9v-.33h2.2v.33h-.91v2.65h-.39zM123.62 82.2v-1.28c-.11.35-.22.72-.37 1.13l-.53 1.44h-.29l-.48-1.42c-.14-.42-.26-.8-.34-1.15 0 .37 0 .86-.06 1.31l-.08 1.27H121l.21-3h.49l.51 1.44c.12.36.22.69.3 1 .08-.3.18-.63.32-1l.53-1.44h.49l.18 3h-.38z" fill="#fff"/><path d="M9.2 107.71l-3.49 17.77c-2.54 1.09-6 2.67-5.11 5.81l4.4-1.53s-1.76 6-1.76 9.23c.19 1.8.6 4.15 5 3.8q1.58-7.43 3.1-14.91l11.2-2.32-1.54 6.2c-.66 2.78-1.61 6.55-1.19 8.52.52 1.74 1.53 2.64 5 2.52l7.31-35.09H26l-2.75 12.95-10.85 2.26 3.15-15.21H9.2zM58.22 113L54 133.43a26.63 26.63 0 0 0-1.09 6.14c.36 3.38 3.07 3.6 5 3.54L64.14 113zM158.82 107.72l-5.42 25.72a26.65 26.65 0 0 0-1.09 6.14c.36 3.38 3.23 3.6 5.15 3.54l7.47-35.39zM68.24 120.54l-2.67 12.9a26.65 26.65 0 0 0-1.08 6.14c.36 3.38 3.07 3.6 5 3.54l4.68-22.57zM208.17 134.68c.92-4.35 2.23-8.32 1.27-10.7-2.17-5.42-10-4.78-13.43-1.08a16.4 16.4 0 0 0-.38-2.45H191s-.12 2.08-.4 3.8c-.44 3.68-2.21 11.94-3.56 18.25h5.72c1.14-4.05 2.45-12.66 4.25-15.87 1.23-2 5.4-3.4 6.47-.11.54 1.18-1.33 6.52-1.83 10.22-.46 3.33-.86 6.19 4.77 6.07zM183.91 134.68c.92-4.35 2.23-8.32 1.27-10.7-2.17-5.42-10-4.78-13.42-1.08a16.44 16.44 0 0 0-.38-2.45h-4.63s-.12 2.08-.4 3.8c-.45 3.68-2.21 11.94-3.56 18.25h5.72c1.14-4.05 2.45-12.66 4.25-15.87 1.23-2 5.4-3.4 6.47-.11.54 1.18-1.33 6.52-1.83 10.22-.46 3.33-.86 6.19 4.77 6.07zM140.27 120.68S138 133.62 137 135.16c-1.34 2.91-3.15 3.57-5.64 3.18-2.47-.6-1.13-5.33-1.13-5.33.62-2.91 2.5-12.31 2.5-12.31h-5.82l-2.45 11.16c-1.22 5.4-.93 7.37.64 8.93-3.18.74-4.87 2.11-5.1 4.8-.35 4.2 4 6.74 8.38 6.68 10.62-.13 13.4-7 14.77-16.33l3.13-15.26h-6zm-11.82 28c-1.51-.1-3.48-1-3.35-2.87.27-3.92 7.28-2 10.73-4.85-.01 2.66-2.14 8.09-7.39 7.74zM88.95 140.62c.59 1.68 2.15 2.39 4.65 2.17l7.2-34h-6.16l-2.37 11.5c-10.22-1-17.06 5.92-17.18 15.08-.09 7.74 8.43 9.87 13.86 5.25zm2.42-16.33l-1.77 8.26c-.73 4.49-3 7.09-6.31 6-5.11-1.55-.42-16.55 8.07-14.25zM112.39 140.45c.59 1.68 2.32 2.56 4.82 2.35l4.08-20.28c-1.28-1.74-5.44-2.16-5.44-2.16a15.08 15.08 0 0 0-17.16 15c-.19 7.75 8.58 10.02 13.7 5.09zm-6.75-9.6c1.43-4 4.77-7.81 9.34-6.56l-1.77 8.26c-.73 4.49-3 7.2-6.31 6.13-2.36-.74-2.5-4.37-1.27-7.82zM41.33 120.3a12.39 12.39 0 0 0-8.76 5.52c-2 3.09-3.41 8.17-2.21 12.17 1.08 3.58 4.82 5.22 8.17 5.23 4.54 0 9.12-3.1 11.18-6.48 1-1.58 2.95-6.46 2.17-10.25-.94-4.59-4.8-6.95-10.55-6.19zm3.53 13c-.85 2.5-2.19 4.48-3.75 5.24s-4.13.7-4.93-1.9a13.39 13.39 0 0 1 .65-6.76c1.11-2.86 3.19-5.75 5.67-5.71a3.08 3.08 0 0 1 3.19 2.37 12 12 0 0 1-.83 6.8zM75.17 112c1.18 1.18 1 3.32-.5 4.78s-3.6 1.7-4.78.52-1-3.32.5-4.78 3.61-1.7 4.78-.52z" fill="#00733d"/><path d="M8.73 107.19L5.24 125c-2.53 1.09-6 2.67-5.11 5.81l4.36-1.52s-1.76 6-1.76 9.23c.19 1.8.6 4.15 5 3.81q1.58-7.43 3.1-14.91L22 125.06l-1.44 6.19c-.66 2.78-1.61 6.55-1.19 8.52.52 1.74 1.54 2.64 5 2.52l7.31-35.09h-6.14l-2.75 12.95-10.85 2.26 3.16-15.21H8.73zM57.75 112.45l-4.23 20.47a26.65 26.65 0 0 0-1.08 6.14c.36 3.38 3.07 3.6 5 3.54l6.24-30.15h-5.93zM158.35 107.21l-5.42 25.72a26.63 26.63 0 0 0-1.09 6.14c.36 3.38 3.23 3.6 5.15 3.54l7.47-35.39zM67.78 120l-2.67 12.9a26.63 26.63 0 0 0-1.11 6.16c.36 3.38 3.07 3.6 5 3.54l4.7-22.6zM207.7 134.17c.92-4.35 2.23-8.32 1.27-10.71-2.17-5.42-10-4.78-13.43-1.08a16.4 16.4 0 0 0-.38-2.45h-4.63s-.12 2.08-.4 3.8c-.45 3.68-2.21 11.94-3.56 18.25h5.72c1.14-4.05 2.45-12.66 4.25-15.87 1.23-2 5.39-3.4 6.47-.11.54 1.19-1.33 6.53-1.83 10.22-.45 3.33-.86 6.19 4.77 6.07zM183.44 134.17c.92-4.35 2.23-8.32 1.27-10.71-2.17-5.42-10-4.78-13.43-1.08a16 16 0 0 0-.38-2.45h-4.63s-.12 2.08-.4 3.8c-.45 3.68-2.21 11.94-3.56 18.25H168c1.14-4.05 2.44-12.66 4.25-15.87 1.23-2 5.4-3.4 6.47-.11.54 1.19-1.33 6.53-1.83 10.22-.46 3.33-.86 6.19 4.77 6.07zM139.8 120.17s-2.32 12.94-3.31 14.47c-1.34 2.91-3.15 3.57-5.63 3.18-2.47-.61-1.13-5.34-1.13-5.34.62-2.91 2.51-12.31 2.51-12.31h-5.82L124 131.35c-1.22 5.4-.93 7.36.64 8.93-3.18.74-4.87 2.11-5.09 4.8-.34 4.19 4 6.74 8.38 6.68 10.62-.13 13.4-7 14.77-16.34l3.13-15.26h-6zm-11.83 28c-1.51-.1-3.48-1-3.35-2.87.27-3.92 7.28-2 10.73-4.85.01 2.66-2.12 8.09-7.35 7.73zM88.48 140.11c.6 1.68 2.15 2.39 4.65 2.18l7.2-34h-6.16l-2.37 11.5c-10.22-1-17.06 5.92-17.19 15.08-.1 7.73 8.44 9.86 13.87 5.24zm2.42-16.33L89.13 132c-.73 4.49-3 7.09-6.31 6-5.1-1.56-.42-16.54 8.08-14.22zM111.92 139.94c.59 1.68 2.33 2.56 4.82 2.35l4.09-20.29c-1.28-1.74-5.44-2.16-5.44-2.16a15.08 15.08 0 0 0-17.16 15c-.23 7.76 8.58 10.03 13.69 5.1zm-6.75-9.6c1.43-4 4.77-7.81 9.34-6.56l-1.77 8.22c-.73 4.49-3 7.2-6.31 6.13-2.35-.71-2.49-4.33-1.26-7.79zM40.86 119.79a12.38 12.38 0 0 0-8.76 5.52c-2 3.09-3.42 8.18-2.21 12.18 1.08 3.57 4.82 5.21 8.17 5.23 4.54 0 9.12-3.1 11.18-6.48 1-1.57 2.95-6.46 2.17-10.25-.93-4.6-4.79-6.99-10.55-6.2zm3.54 13c-.85 2.5-2.19 4.48-3.76 5.24s-4.13.7-4.93-1.9a13.35 13.35 0 0 1 .65-6.76c1.11-2.86 3.19-5.75 5.67-5.71a3.09 3.09 0 0 1 3.19 2.37 12 12 0 0 1-.82 6.79zM74.7 111.48c1.18 1.18 1 3.32-.5 4.78s-3.6 1.7-4.78.52-1-3.32.5-4.78 3.6-1.69 4.78-.52z" fill="#4baa42"/><path d="M214.14 120.8a2.54 2.54 0 1 1-2.63 2.54 2.56 2.56 0 0 1 2.61-2.54zm0 .51a2 2 0 0 0 0 4 1.93 1.93 0 0 0 1.93-2 2 2 0 0 0-1.95-2zm-.38 3.34h-.59v-2.52a5 5 0 0 1 1-.09 1.44 1.44 0 0 1 .88.2.7.7 0 0 1 .25.54.65.65 0 0 1-.52.6c.25.08.38.28.46.62a1.66 1.66 0 0 0 .19.62h-.63a2.05 2.05 0 0 1-.2-.6c0-.28-.2-.4-.52-.4h-.28v1zm0-1.42h.24c.32 0 .59-.11.59-.37s-.17-.39-.54-.39a1.53 1.53 0 0 0-.33 0z" fill="#4daa47"/></svg>