<svg xmlns="http://www.w3.org/2000/svg" width="849.95" height="311.99"><path fill="#231f20" d="M12.13 263.68h6.7v20.11h25.7v-20.11H51v46.92h-6.47v-21.45h-25.7v21.45h-6.7zm142.78 29.94c0 11.84-7.15 18.1-19.44 18.1-12.51 0-20.11-5.59-20.11-18.1v-29.94h6.7v29.94c0 8.27 4.92 13 13.41 13 8.27 0 13-4.69 13-13v-29.94h6.48zM236 311.94c-14.75.89-23.68-11.62-23.68-23.91 0-13.63 7.82-25.47 23.46-25.47 10.73 0 19.22 4.47 21 15.64h-6.48c-1.34-7.15-7.37-10.5-14.52-10.5-12.07 0-17 10.05-17 20.11 0 9.83 6.26 19.22 18.1 19 6-.22 10.95-1.34 13.41-5.36 1.79-2.46 1.34-6.93 1.12-10.28h-15.62v-5.37h21.45v17.65c-5.59 6.93-12.24 8.05-21.24 8.49zm101.46-5.36c11.84 0 17-10.05 17-19.44s-5.14-19.44-17-19.44c-12.07 0-17 10.05-17 19.44s4.93 19.44 17 19.44zm0-44c15.64 0 23.46 11.84 23.46 24.58s-7.82 24.58-23.46 24.58S314 299.88 314 287.14s7.81-24.58 23.46-24.58zm155.06 21.21h13c7.37 0 10.5-2.46 10.5-7.37 0-6.48-4.69-7.6-10.5-7.6h-13zm0 21.67h16.31c5.59 0 9.16-3.35 9.16-8.49 0-6-5.14-7.82-10.72-7.82h-14.75zM486 263.68h17.65c4.47 0 10.05 0 13 1.56a11.28 11.28 0 0 1 5.81 9.83 11 11 0 0 1-7.15 10.73c6 1.12 9.38 5.59 9.38 11.4 0 6.93-5.36 13.41-15 13.41H486zm120.7 42.9c12.07 0 17-10.05 17-19.44s-4.92-19.44-17-19.44c-11.84 0-17 10.05-17 19.44s5.16 19.44 17 19.44zm0-44c15.64 0 23.68 11.84 23.68 24.58s-8 24.58-23.68 24.58-23.46-11.84-23.46-24.58 7.82-24.6 23.46-24.6zm113.73 14.95c-.67-6.93-5.36-9.83-12.07-9.83-5.59 0-10.95 2-10.95 8 0 5.81 7.82 6.7 15.64 8.49 7.82 1.56 15.64 4.25 15.64 13.63 0 9.83-10.28 13.85-19.22 13.85-10.95 0-20.11-5.14-20.11-16.53h6c0 7.82 6.93 11.4 14.3 11.4 6 0 12.51-1.79 12.51-8.71 0-6.48-7.82-7.37-15.64-9.16-7.82-1.56-15.86-3.8-15.86-12.51 0-9.38 8.94-13.63 17.87-13.63 10.06 0 17.65 4.47 18.1 15zm105.91 0c-.89-6.93-5.59-9.83-12.29-9.83-5.36 0-10.95 2-10.95 8 0 5.81 7.82 6.7 15.86 8.49 7.82 1.56 15.64 4.25 15.64 13.63 0 9.83-10.28 13.85-19.22 13.85-10.95 0-20.33-5.14-20.33-16.53h6.26c0 7.82 6.93 11.4 14.3 11.4 5.81 0 12.51-1.79 12.51-8.71 0-6.48-8-7.37-15.86-9.16-7.82-1.56-15.64-3.8-15.64-12.51 0-9.38 8.71-13.63 17.88-13.63 9.83 0 17.65 4.47 17.88 15zM69.78 15.66v84.46h30.61a28.75 28.75 0 0 0 4.25-.67c17.87-1.56 29.27-23 30.39-38.65 1.79-16.76-8.49-44.46-34.19-45.13-7.6-.23-31.06-.01-31.06-.01zm0 94.29v101.22h27.7a46.22 46.22 0 0 0 29.72-10.28c13.85-11.17 21-27.71 19.44-46.7-1.12-17-14.08-41.11-43.12-44.24zM135 5.83c23 1.34 38 13.63 39.34 15.17 11.85 11 15.42 27.51 12.52 43.37C183.06 91 150 102.13 150 102.13c27.71 3.35 48.49 24.13 51.61 46.48 2.68 21.9-5.36 41.34-23.46 55-18.32 13.63-45.13 18.1-59.66 18.1H.06v-9.38c15.19.22 17 .22 17-5.81-.22-22.79 0-181.88 0-186.12 0-4.92-2.46-5.14-17-5.14a85.08 85.08 0 0 1 .23-9.43zm182.79 11.62c-14.75 9.83-25 32.4-29.94 51.17-7.82 28.38-6.26 61.89 1.56 96.3 8 34.41 30.16 46.48 43.35 49.38 24.58 5.59 40.67-8.71 49.38-21.9 17-25.7 21.23-78.65 15.86-109-4.92-28.15-12.51-47.82-27.26-61-16.53-14.56-40.21-13.4-52.95-4.95zm132.5 133.62c-10.28 30.61-30.83 49.83-54.52 62.34-31.06 16.76-75.52 19.44-106.58.89C270 202.91 221 172.52 227.52 100.79c1.34-15.42 9.16-54.07 52.29-83.12C309.3-1.54 351.75-7.13 391.3 11.2c61.7 28.15 74.63 97.64 58.99 139.87zM631.5 15.89c.22 16.09 0 49.38 0 49.38l-7.82.22c-4.69-20.78-14.75-38.65-32-46.92-16.53-8-41.56-12.07-57.87 2.23-9.61 8.49-10.95 17.2-7.6 27 5.81 14.52 21.9 19 34.41 24.58 10.28 4 32.17 11.17 32.17 11.17 24.35 8.49 51.39 25 58.76 52.51 3.35 11.84 3.35 25.25.67 37.31-6 26.81-23.24 33.29-33.07 40-4.92 3.35-50.94 21-106.36 2.9-11.4-3.8-24.58-8.27-24.58-8.27v-60.1s6 .22 8.49.22c3.8 9.61 7.15 21.23 15.19 32.85 18.77 27.26 45.36 35.53 74.63 29.27 11.62-2.68 24.35-10.73 27.71-22.79 4.25-13.63 2.9-36.2-38.21-51.39-29.72-13.63-67-19.22-84.68-52.28-6.93-18.55-4.92-50.72 17.87-66.36 23-15.64 45.36-19.22 72.39-15.64 26.89 3.83 34.04 7.4 49.9 14.11zm195.73 0c.22 16.09 0 49.38 0 49.38l-7.82.22c-4.69-20.78-14.75-38.65-32-46.92-16.54-8-41.56-12.07-57.87 2.23-9.61 8.49-10.95 17.2-7.6 27 5.81 14.52 21.9 19 34.41 24.58 10.28 4 32.18 11.17 32.18 11.17 24.35 8.49 51.39 25 58.76 52.51 3.35 11.84 3.35 25.25.67 37.31-6 26.81-23.24 33.29-33.07 40-4.92 3.35-50.94 21-106.36 2.9C697.19 212.51 684 208 684 208v-60.1s6 .22 8.49.22c3.8 9.61 7.15 21.23 15.19 32.85 18.77 27.26 45.36 35.53 74.63 29.27 11.62-2.68 24.35-10.73 27.71-22.79 4.25-13.63 2.9-36.2-38.21-51.39-29.72-13.63-67-19.22-84.68-52.28-6.93-18.55-4.92-50.72 18.1-66.36C728 1.81 750.37-1.76 777.18 1.81c27.04 3.8 34.19 7.37 50.05 14.08z"/></svg>