<svg xmlns="http://www.w3.org/2000/svg" xmlns:xlink="http://www.w3.org/1999/xlink" width="302" height="330"><defs><linearGradient id="a" x1="50%" x2="50%" y1="0%" y2="50%"><stop offset="0%" stop-color="#6100B2"/><stop offset="100%" stop-color="#8B00FF"/></linearGradient><linearGradient id="b" x1="50%" x2="50%" y1="0%" y2="100%"><stop offset="0%" stop-color="#F3F7F8"/><stop offset="100%" stop-color="#A4B0BE"/></linearGradient><path id="c" d="M0 0v104h52V60l-8-8 8-8V0z"/><linearGradient id="e" x1="50%" x2="50%" y1="75.87%" y2="13.63%"><stop offset="0%" stop-color="#ED880A"/><stop offset="100%" stop-color="#FD9109"/></linearGradient><linearGradient id="f" x1="50%" x2="50%" y1="0%" y2="100%"><stop offset="0%" stop-color="#9E9E9E"/><stop offset="100%"/></linearGradient><linearGradient id="g" x1="75.53%" x2="5.07%" y1="-4.03%" y2="92.04%"><stop offset="0%" stop-color="#CCB156"/><stop offset="100%" stop-color="#FDDB6D"/></linearGradient><path id="h" d="M0 0v104h52V0z"/><linearGradient id="j" x1="54.26%" x2="86.92%" y1="39.22%" y2="12.94%"><stop offset="0%" stop-color="#45FFFF"/><stop offset="100%" stop-color="#1FA5A2"/></linearGradient><linearGradient id="k" x1="105.33%" x2="30.64%" y1="-18.1%" y2="92.87%"><stop offset="0%" stop-color="#0E6926"/><stop offset="100%" stop-color="#5DA30D"/></linearGradient><path id="l" d="M0 0v44l8 8-8 8v44h52V0z"/><linearGradient id="n" x1="50%" x2="50%" y1="27.2%" y2="50%"><stop offset="0%" stop-color="#AF0031"/><stop offset="100%" stop-color="#FB0045"/></linearGradient><linearGradient id="o" x1="50%" x2="50%" y1="71.62%" y2="0%"><stop offset="0%" stop-color="#FFEC18"/><stop offset="100%" stop-color="#FD8F0A"/></linearGradient></defs><g fill="none" fill-rule="evenodd"><path fill="url(#a)" stroke="#000" stroke-linejoin="round" stroke-width="3" d="M42 272l13 16h192l13-16z"/><path fill="url(#b)" stroke="#000" stroke-linejoin="round" stroke-width="3" d="M0 0h218v130H0z" transform="translate(42 142)"/><g transform="translate(195 155)"><mask id="d" fill="#fff"><use xlink:href="#c"/></mask><use fill="#FFF" xlink:href="#c"/><path stroke="#000" stroke-width="3" d="M46.12 52l7.38 7.38v46.12h-55v-107h55v46.12L46.12 52z"/><g mask="url(#d)"><g transform="translate(11 83)"><circle cx="16" cy="16" r="16" fill="url(#e)" stroke="#000"/><ellipse cx="11.72" cy="8.34" fill="#FFF" fill-opacity=".3" rx="5.46" ry="3.98" transform="rotate(-32 11.72 8.34)"/><path stroke="#000" stroke-linejoin="round" stroke-opacity=".75" d="M15.5 4.5l-2.06 2.06L15.5 4.5l-2.06-1.06L15.5 4.5l2.06-1.06L15.5 4.5l2.06 2.06z"/></g></g><g mask="url(#d)"><g transform="translate(10 35)"><circle cx="16" cy="16" r="16" fill="url(#f)"/><path fill="#FFF" fill-opacity=".75" fill-rule="nonzero" d="M11.72 9.42c.16-.47.31-.95.48-1.42.1.04.13.16.18.25l3.94 7.88a.8.8 0 0 0 .1.17c.08-.08.12-.17.17-.26l3.85-7.72c.06-.1.1-.23.19-.32.05.04.06.1.08.15l3.49 10.47c.17.54.35 1.09.54 1.63l.11.3c-.65.33-1.3.7-1.91 1.1-.53.35-1.04.74-1.5 1.17a.33.33 0 0 1-.1-.16l-1.2-4.77c-.06-.26-.1-.52-.2-.77a.36.36 0 0 0-.09.11l-3.2 6.4c-.06.12-.11.25-.2.36-.06.03-.09-.05-.12-.1l-3.22-6.45c-.05-.1-.1-.21-.17-.3-.05.01-.06.08-.07.12l-1.32 5.25c-.03.1-.05.23-.13.31-.85-.8-1.85-1.43-2.87-2-.18-.1-.38-.17-.55-.29.3-.85.57-1.7.86-2.56.26-.71.49-1.43.73-2.15l2.13-6.4z"/></g></g><g fill="url(#g)" stroke="#000" mask="url(#d)"><path d="M17-6C11.67.67 10 6.67 12 12c-2 8-1 9 6 8 19 4 27-10 25-26-.13-3.4-8.8-3.4-26 0z"/></g></g><g transform="translate(125 155)"><mask id="i" fill="#fff"><use xlink:href="#h"/></mask><use fill="#FFF" xlink:href="#h"/><path stroke="#000" stroke-width="3" d="M-1.5-1.5h55v107h-55v-107z"/><g stroke="#000" mask="url(#i)"><path fill="url(#j)" stroke-linejoin="round" d="M26 0l8 9-17 21L0 9l8-9h9z" transform="translate(10.5 -9)"/><path d="M10.5 0h34"/><path stroke-linejoin="bevel" d="M27.5-9l-7 9 7 21 7-21z"/></g><g mask="url(#i)"><g transform="translate(10 35)"><circle cx="16" cy="16" r="16" fill="url(#f)"/><path fill="#FFF" fill-opacity=".75" fill-rule="nonzero" d="M11.72 9.42c.16-.47.31-.95.48-1.42.1.04.13.16.18.25l3.94 7.88a.8.8 0 0 0 .1.17c.08-.08.12-.17.17-.26l3.85-7.72c.06-.1.1-.23.19-.32.05.04.06.1.08.15l3.49 10.47c.17.54.35 1.09.54 1.63l.11.3c-.65.33-1.3.7-1.91 1.1-.53.35-1.04.74-1.5 1.17a.33.33 0 0 1-.1-.16l-1.2-4.77c-.06-.26-.1-.52-.2-.77a.36.36 0 0 0-.09.11l-3.2 6.4c-.06.12-.11.25-.2.36-.06.03-.09-.05-.12-.1l-3.22-6.45c-.05-.1-.1-.21-.17-.3-.05.01-.06.08-.07.12l-1.32 5.25c-.03.1-.05.23-.13.31-.85-.8-1.85-1.43-2.87-2-.18-.1-.38-.17-.55-.29.3-.85.57-1.7.86-2.56.26-.71.49-1.43.73-2.15l2.13-6.4z"/></g></g><g mask="url(#i)"><g transform="translate(12 76)"><path stroke="#000" d="M22 24c-.67-6.67-3-11.67-7-15l-2 12 9 3z"/><circle cx="9.5" cy="24.5" r="9.5" fill="#FC0045" stroke="#000"/><circle cx="21" cy="30" r="9" fill="#FC0045" stroke="#000"/><ellipse cx="8.5" cy="20" fill="#FB5D8E" rx="3.5" ry="2" transform="rotate(-10 8.5 20)"/><ellipse cx="20.72" cy="24.91" fill="#FB5D8E" rx="2.5" ry="1.5" transform="rotate(-10 20.72 24.91)"/><path fill="#61A10F" stroke="#000" stroke-linecap="round" stroke-linejoin="round" d="M15 9c-2.37 1.78-5.48 2.05-8.4.07C.95 5.49 1.26-1.65 9.7.72 13.1 2.37 15.59 5.42 15 9z"/><path fill="url(#k)" stroke="#000" d="M15.11 8.21c2.44-4.67 4.92-5.34 9.01-5.7 9.76 0 10.81 10.53 0 11.12-2.7.22-7.77-.72-9-5.42z"/></g></g></g><g transform="translate(55 155)"><mask id="m" fill="#fff"><use xlink:href="#l"/></mask><use fill="#FFF" xlink:href="#l"/><path stroke="#000" stroke-width="3" d="M5.88 52l-7.38-7.38V-1.5h55v107h-55V59.38L5.88 52z"/><g stroke="#000" mask="url(#m)"><path fill="url(#j)" stroke-linejoin="round" d="M26 0l8 9-17 21L0 9l8-9h9z" transform="translate(9 83)"/><path d="M9 92h34"/><path stroke-linejoin="bevel" d="M26 83l-7 9 7 21 7-21z"/></g><g mask="url(#m)"><g transform="translate(10 35)"><circle cx="16" cy="16" r="16" fill="url(#f)"/><path fill="#FFF" fill-opacity=".75" fill-rule="nonzero" d="M11.72 9.42c.16-.47.31-.95.48-1.42.1.04.13.16.18.25l3.94 7.88a.8.8 0 0 0 .1.17c.08-.08.12-.17.17-.26l3.85-7.72c.06-.1.1-.23.19-.32.05.04.06.1.08.15l3.49 10.47c.17.54.35 1.09.54 1.63l.11.3c-.65.33-1.3.7-1.91 1.1-.53.35-1.04.74-1.5 1.17a.33.33 0 0 1-.1-.16l-1.2-4.77c-.06-.26-.1-.52-.2-.77a.36.36 0 0 0-.09.11l-3.2 6.4c-.06.12-.11.25-.2.36-.06.03-.09-.05-.12-.1l-3.22-6.45c-.05-.1-.1-.21-.17-.3-.05.01-.06.08-.07.12l-1.32 5.25c-.03.1-.05.23-.13.31-.85-.8-1.85-1.43-2.87-2-.18-.1-.38-.17-.55-.29.3-.85.57-1.7.86-2.56.26-.71.49-1.43.73-2.15l2.13-6.4z"/></g></g><g mask="url(#m)"><g transform="translate(11 -15)"><path stroke="#000" d="M22 24c-.67-6.67-3-11.67-7-15l-2 12 9 3z"/><circle cx="9.5" cy="24.5" r="9.5" fill="#FC0045" stroke="#000"/><circle cx="21" cy="30" r="9" fill="#FC0045" stroke="#000"/><ellipse cx="8.5" cy="20" fill="#FB5D8E" rx="3.5" ry="2" transform="rotate(-10 8.5 20)"/><ellipse cx="20.72" cy="24.91" fill="#FB5D8E" rx="2.5" ry="1.5" transform="rotate(-10 20.72 24.91)"/><path fill="#61A10F" stroke="#000" stroke-linecap="round" stroke-linejoin="round" d="M15 9c-2.37 1.78-5.48 2.05-8.4.07C.95 5.49 1.26-1.65 9.7.72 13.1 2.37 15.59 5.42 15 9z"/><path fill="url(#k)" stroke="#000" d="M15.11 8.21c2.44-4.67 4.92-5.34 9.01-5.7 9.76 0 10.81 10.53 0 11.12-2.7.22-7.77-.72-9-5.42z"/></g></g></g><path fill="url(#n)" stroke="#000" stroke-linejoin="round" stroke-width="3" d="M42 126l13 16h192l13-16z"/><path fill="url(#o)" stroke="#000" stroke-linejoin="round" stroke-width="3" d="M64.39 37H0v48h218V37h-64.39a45.52 45.52 0 0 0-89.22 0z" transform="translate(42 41)"/><path fill="#FFF" fill-opacity=".7" d="M143.56 69.44L135 66.5l8.56-2.94L146.5 55l2.94 8.56L158 66.5l-8.56 2.94L146.5 78zm13.84 10.41l-5.03-1.73 5.03-1.72 1.72-5.03 1.73 5.03 5.03 1.73-5.03 1.72-1.72 5.03z"/><path fill="#000" d="M74.9 106.43c0 2.42-.54 4.19-1.63 5.3a5.93 5.93 0 0 1-4.44 1.67 9.86 9.86 0 0 1-4.81-1.26l1.02-3.46a5.98 5.98 0 0 0 3.47 1.02c.7 0 1.23-.25 1.58-.74.35-.5.53-1.34.53-2.53V90.76h4.29v15.67zm23.24 1.59H90.1L88.41 113h-4.49l8.02-22.24h4.35l8.02 22.24h-4.48l-1.69-4.98zm-6.8-3.57h5.55l-1.1-3.33-1.64-5.68h-.07l-1.65 5.68-1.09 3.33zm31.46 8.95c-1.72 0-3.24-.3-4.57-.88a9.35 9.35 0 0 1-3.35-2.42 10.46 10.46 0 0 1-2.05-3.67c-.46-1.4-.7-2.92-.7-4.55s.24-3.15.7-4.55a10.54 10.54 0 0 1 2.05-3.67 9.35 9.35 0 0 1 3.35-2.42 11.3 11.3 0 0 1 4.57-.88c1.2 0 2.32.12 3.33.37 1.01.24 2 .61 2.94 1.12L128 95.1a10.22 10.22 0 0 0-4.88-1.25c-2.22 0-3.9.7-5.02 2.11-1.12 1.41-1.68 3.38-1.68 5.9 0 2.54.56 4.5 1.7 5.92 1.13 1.4 2.8 2.1 5 2.1a11.4 11.4 0 0 0 5.08-1.39l.99 3.31c-.88.5-1.86.9-2.95 1.17-1.1.28-2.24.42-3.45.42zm25.74-12.21l9.44 11.81h-4.95l-8.22-10.4v-2.7l8.12-9.14h4.82l-9.2 10.43zM143.8 113h-4.3V90.76h4.3V113zm38.94-15.08c0 1.03-.18 2-.56 2.89a6.94 6.94 0 0 1-4.09 3.87c-.99.38-2.09.56-3.3.56h-3.53V113h-4.3l.01-22.24h8.02a9 9 0 0 1 3.27.56 6.66 6.66 0 0 1 3.96 3.79c.35.88.52 1.82.52 2.8zm-4.29 0c0-1.06-.3-1.9-.89-2.53-.6-.62-1.45-.94-2.57-.94h-3.73v7.1h3.53c1.14 0 2.04-.33 2.69-.97a3.6 3.6 0 0 0 .97-2.66zm17.9 3.96c0 2.53.51 4.5 1.54 5.9 1.04 1.41 2.56 2.12 4.56 2.12 2 0 3.52-.7 4.55-2.11 1.04-1.41 1.55-3.38 1.55-5.91 0-2.53-.51-4.5-1.55-5.9-1.03-1.42-2.55-2.12-4.55-2.12s-3.52.7-4.56 2.11c-1.03 1.41-1.55 3.38-1.55 5.9zm-4.3 0c0-1.63.22-3.15.66-4.56.44-1.4 1.1-2.62 1.97-3.66a8.99 8.99 0 0 1 3.25-2.42c1.3-.59 2.8-.88 4.52-.88 1.71 0 3.22.3 4.52.88a8.97 8.97 0 0 1 3.25 2.42 10.48 10.48 0 0 1 1.96 3.66c.44 1.41.66 2.93.66 4.56 0 1.63-.22 3.14-.66 4.55a10.69 10.69 0 0 1-1.96 3.67 8.99 8.99 0 0 1-3.25 2.42c-1.3.58-2.8.88-4.52.88-1.72 0-3.22-.3-4.52-.88a8.99 8.99 0 0 1-3.25-2.42 10.48 10.48 0 0 1-1.97-3.67 15.2 15.2 0 0 1-.66-4.55zm39.7 11.12h-4.28V94.39l-6.37.06v-3.7h17.03v3.7l-6.37-.06V113z"/></g></svg>