<svg data-name="Layer 1" xmlns="http://www.w3.org/2000/svg" width="292.88" height="295.3"><path d="M146.44 2.42c-3.52 0-10.39.37-10.67.38C137.1 3.16 33 56.55 33 56a1 1 0 0 1-.18.45 146.34 146.34 0 0 0-9.93 171.08c.1-.05 36.94 35.63 36.49 39.12a146.33 146.33 0 0 0 120.14 24.85c-.19-1.15-.37-2.31-.53-3.45l-1.92-13.5c-.58-3.69-3.6-28.79-3.6-28.79v-.07l3.22-1.24s4.23.18 4.13.19l5 29.62.81 4.64c.31 1.87.57 3.72 1 5.64.27 1.6.51 3.12.75 4.65q5.21-1.56 10.25-3.48c-.51-2.87-1.07-5.83-1.11-6.26l-1.73-10.27c-2.28-10.6-3.74-18.45-4.81-23.68l-.44-2.09 3.3-1.32 4.36.34s5.56 24.34 7 31.7l1.59 8.19c3-1.35 5.94-2.77 8.8-4.32l-.92-4.2-.33-1.44c-1.87-8.22-6.83-31.12-6.83-31.12l4-1.56 3.88.55s5 21.11 8.23 33.13a145.91 145.91 0 0 0 15.91-11.39s46.37-69.42 46.71-69.19A146.53 146.53 0 0 0 146.44 2.42z" fill="#a3080c" data-name="Layer 2"/><path d="M183.13 75.32s-18.29-34.49-25.75-39.67-19.74-8.41-28.25-7.33C118.35 29.69 93.69 42.73 92 43.17c0 .13-9.19 11.47-11.59 23.16-.53 2.6-10 44-10 44l18 52 64.15 30.6 23.52-25.6s3-25.33 9.33-44.33 4.33-29.33 4.33-29.33z" fill="#fff1e2" data-name="Layer 6"/><g data-name="Layer 4"><path d="M109.85 207.87l-.54.23.54-.23M104.57 108.83a22.19 22.19 0 0 1-2.24 1 1.69 1.69 0 0 0-1 1.8c.19 1 .47 1.31.56 2.08a7.08 7.08 0 0 1-1.15 3.69 8.92 8.92 0 0 1-3 3.15 18.5 18.5 0 0 1-1.69.82c-.1 0-.19.29-.28.76a.76.76 0 0 1 .2-.12 6.19 6.19 0 0 1 .83-.14c.3-.06.53-.13.64-.14l.94-.14a20.24 20.24 0 0 0 3.56-1.07 14.57 14.57 0 0 0 4.93-3.31 10.08 10.08 0 0 0 2.25-5.4v-.71a.93.93 0 0 1-.56-.21 12.14 12.14 0 0 1-1.72-1.64 1.38 1.38 0 0 1-.27-1.92 9.92 9.92 0 0 1-2 1.49M158.34 101.94a4 4 0 0 0-.8.14 1.49 1.49 0 0 0-.68.46 1.06 1.06 0 0 0 .18 1.32 3.94 3.94 0 0 1 1 2.38 7.21 7.21 0 0 1-.37 2.48 13.67 13.67 0 0 1-1.31 2.43 6.25 6.25 0 0 0-1.28 2 .78.78 0 0 0 .07.49.46.46 0 0 1 .09-.17 3.49 3.49 0 0 1 1.55-.79 8 8 0 0 0 2.5-1.23 1.13 1.13 0 0 0-.14.29 1.08 1.08 0 0 1 .27-.42c.33-.28 4.67-3.2 4.78-7.9 0-1.77-2.25-2-3.2-2-.71 0-2 .62-2.61.48M112.13 134.41s17.25 5.33 25.5-4.25 22.5 5.08 23.42 9.42-21.42 16.33-28.17 16.58-33.5-3.33-33.5-6.08 12.75-15.67 12.75-15.67zM182.92 65.87c-2.74-29.09-16.13-43.67-25.75-50.75-10.11-6.66-34.16-12.53-45.5-12-13.38.63-44.26 15.21-45.46 16.29S44.36 55.09 46.92 61.27 53.11 96.69 54.29 99c.36.7 6.27 19.74 10.17 19s7.59-18 7.42-19.34c-.5-3.83-7.46-21.11-6.92-23.54S84.09 43.6 85.42 42.57c.94-.71 32.81-4.68 33-4.37 2.23-1.94 7.4-7.06 12-6.88s17.8 1.84 25.25 7 9.76 10.24 10.4 11.66c.25 0 10.63 23.63 13.67 23.72 2 .06 3.51-4.34 3.18-7.83zM170 85.21c-1.11.13-4.13.4-4.47.45-.59.08-.58.41-.54.67s.13 1.26.16 1.68a.81.81 0 0 0 .94.64c.46 0 3.35-.29 3.79-.36s.84-.43.83-.77 0-1.25 0-1.61a.66.66 0 0 0-.7-.69M49.57 224.33l1.78.4c-1.32-.31-2.76-.62-3.59-.82a7.33 7.33 0 0 0-1.79-.15 9.78 9.78 0 0 0-4 .89l-15.65 7.91a147.55 147.55 0 0 0 15.89 19.14c.36-1.5 6.87-8.33 7.79-12.33 1.25-5.49-1.87-12.73-.44-15M215.31 240.21l-7.85 1s5.65 26.06 7.16 32.56l.91 4.2q4.09-2.21 8-4.65c-3.24-12-8.24-33.13-8.24-33.13z" fill="#fff"/><path fill="none" d="M167.9 221.11l-.78-2.25h-.91v3.15h.58v-2.53l.87 2.53h.51l.86-2.53v2.53h.58v-3.15h-.9l-.81 2.25zM163 219.39h1.03v2.62h.62v-2.62h1.03v-.53H163v.53z"/><path d="M260.78 135.93c-4 3-6.16 7-6.15 11.09 0 6 4.87 11.78 16.11 11.74a46 46 0 0 0 7.49-.68c.65-.11 1.29-.22 1.9-.35l1.31-5.58a24.86 24.86 0 0 1-7.14 1.34c-6 0-10-3.53-10-8.19a8.05 8.05 0 0 1 2.85-6.25 12.83 12.83 0 0 1 8.53-2.74c2.88 0 4.57.8 5.72 1.93a6.17 6.17 0 0 1 .63.7h.97l1.83-6.59a26.66 26.66 0 0 0-7.65-1.18c-6.89-.09-12.48 1.83-16.37 4.77M251.41 136.85a3 3 0 0 1 1.93.68 1.52 1.52 0 0 1 .62 1.05h.92l1.79-7.16h-24.3l-.35 1.4-.08.34a2.14 2.14 0 0 1 1.85 3l-6.07 22h12.13l.46-1.89s-2.27-.55-1.68-2.64c0-.13.88-3.26 1.39-5.15l.39-1.4H246a5.84 5.84 0 0 1 2.14.38 3.31 3.31 0 0 1 1.54 1.07l1.61-6.55h-9.36l1-3.74.38-1.4zM221.89 154.22c-.72-.77-7-10.49-7-10.49l11-8.84.37-.29a7.59 7.59 0 0 1 1.37-.92 3.73 3.73 0 0 1 1.93-.52l.44-1.76h-14.19l-.35 1.4-.08.35c1 .07 2.31.93 1.21 2-.14.12-11.4 8.73-11.4 8.73l.09-.3 2.34-8.48a2.84 2.84 0 0 1 2.32-1.9l.45-1.74h-13.5l-.35 1.4-.09.35c.65.17 2.5.53 1.86 3-4.52 16.34-4 14.72-4.31 15.61-1 3.87-2.53 4.41-3.44 4.51h-.5l-.19.73-.29 1.16h14.17l.47-1.92s-2.25-.45-1.82-2.07l1.29-4.71.92-3.32c2.46 3.94 3 4.43 6 8.49 2.73 3.76 5.65 3.59 12.69 3.54h1.81l.47-1.88a5.11 5.11 0 0 1-3.68-2.06M288.69 131.88a1.79 1.79 0 1 0 .52 1.26 1.7 1.7 0 0 0-.52-1.26m-.17 2.36a1.48 1.48 0 0 1-1.09.46 1.46 1.46 0 0 1-1.08-.46 1.55 1.55 0 0 1 0-2.18 1.47 1.47 0 0 1 1.08-.46 1.55 1.55 0 0 1 1.09 2.64" fill="#fff"/><path d="M288.24 132.72a.5.5 0 0 0-.3-.5 1.75 1.75 0 0 0-.54-.07h-.69v2h.29v-.78h.27a.89.89 0 0 1 .39.07.49.49 0 0 1 .18.45v.18h.32v-.39a.53.53 0 0 0-.11-.31.48.48 0 0 0-.33-.19.66.66 0 0 0 .28-.1.44.44 0 0 0 .19-.39m-.55.34a.93.93 0 0 1-.32 0H287v-.71h.29a.88.88 0 0 1 .43.07.31.31 0 0 1 .13.29.32.32 0 0 1-.21.31M268.79 187c-18.67-5.67-57-4.33-57-4.33l31.33 73.83s2.9-1.45 3.26-.66a146.52 146.52 0 0 0 38.11-58.15c-.61-.48 2.97-5.03-15.7-10.69z" fill="#fff"/><path fill="none" d="M169.61 219.24v-.38h-.31l.31.38z"/><path fill="none" d="M169.61 219.24v-.38h-.31l.31.38z"/><path d="M205.14 274.11c-1.4-7.36-7-31.7-7-31.7s7.39-1.94 9.12-6.17-2.19-10.74-2.37-13.31c-.8-7.67-3.81-39.06-8.75-45.56-2.87-3.79-16.1-11.25-17.12-11.21-4.75.21-14.25 20.9-22.19 22.77-5.29 1.25-9-3.9-8.17-3.51a15.66 15.66 0 0 0-.88-3.37 36.33 36.33 0 0 0-3.08-6.38c-.33-.66-1.34-2.11-1.37-2.27a18.43 18.43 0 0 1-.65-2.79 23.75 23.75 0 0 1-.25-5.66c0-.2.1-.79.13-.91s0-.34-.18-.38a1 1 0 0 0-1 .32c-.92.93-1 1.1-1 1.26s.06.43 0 .75a5.68 5.68 0 0 1-.74 2.57c-.46.76-.76 1-1.41 1s-1.21-.58-1.29-1.94a3.29 3.29 0 0 0-.62-2.14 1.65 1.65 0 0 0-1.1-.47c-.21 0-.38.19-1.81.54a24.66 24.66 0 0 1-4 .5c-.34 0-1.58.15-1.59.15.26 1-5.2-.52-6.12.22-1.87 1.5-2.75 11.24-3.67 16.29l-30.75 3.11-10.75 25s3.25 49.5 3.25 50.25 68-14.75 68-14.75l25.65-.55a.39.39 0 0 1 0 .07c.18 1.48 3 25.1 3.6 28.8L179 288c.16 1.15.33 2.3.53 3.45 3-.69 5.92-1.45 8.83-2.32-.24-1.52-.48-3.05-.75-4.64-.38-1.92-.65-3.77-1-5.64l-.81-4.64-5-29.61 4.51-2.85 5.22 1.59.44 2.09c1.07 5.24 2.53 13.09 4.81 23.67l1.73 10.28c0 .44.6 3.39 1.12 6.27q4.11-1.58 8.11-3.39z" fill="#fff"/></g><g data-name="Layer 5" fill="#f5d4b7"><path d="M154.17 86.57c-5.67.83-13.92 5.46-13.54 8.83.23 2.09 12.05 2.41 17.38 2.79s6.2-4.74 5.92-7.52-3.8-4.97-9.76-4.1zM192.84 177.43c-2.81-.29-1.51 4.27-1.54 4.73 1.42 5.37 2.6 10.72 3.52 15.57a8.57 8.57 0 0 0 .11 1.24c.4 2.11 1.24 8.94 2.84 24.36.37 5.13.7 10.49.91 15l9.62.54A228.24 228.24 0 0 0 205 209c-3-16.63-7.36-31.07-12.16-31.57zM167.3 135.68a6.26 6.26 0 0 0-.83-4.87 12.27 12.27 0 0 0-4.1-3.89c-1.82-1.21-5.95-4.85-6.35-5.2s-2.32-2.16-2.76-2.52a18 18 0 0 0-3.34-2.11 10.28 10.28 0 0 0-8.78-.52 14.61 14.61 0 0 0-1.54 1.3c-.67.64-.17 1.86.09 2.31 0 0 25.38 18.61 25.43 19a7.63 7.63 0 0 0 2.15-3.56M156.8 112.76a3.48 3.48 0 0 0-1.55.79.46.46 0 0 0-.08.17.31.31 0 0 0 0 .13v.22l.07.14.06.1a1.5 1.5 0 0 0 .14.17l.07.08.21.2.06.05.27.22.33.23.36.23a1.07 1.07 0 0 0 .51.12 3.47 3.47 0 0 0 .72-.07 13.9 13.9 0 0 0 3-1.09 24.77 24.77 0 0 1-1.75-3 7.92 7.92 0 0 1-2.5 1.23M122.72 130.17l.2.1a1.53 1.53 0 0 1-.51-1 13.34 13.34 0 0 0-.63-1.55c-.16-.37-.86-1.63-1.12-2.44a7.57 7.57 0 0 1-.44-2.13 8.42 8.42 0 0 1-.27-3c.08-1 .3-2.11.92-5.29.42-2.09-.24-4.49-.26-6.72 0-1.72-.19-5.94-.14-10.18-.29.1-38.1-8-37.83-8.05a79.17 79.17 0 0 0-.05-10.53c1-9.59 2.45-20.69 5.84-28.09C91 45.61 90.69 47.48 92 44.8a1.38 1.38 0 0 0 .18-.51c0-.13-.1-.89-.12-1.13-.08 0-9.29-2.56-20.75 23.75-4.8 11 1.59 38.58 1.59 38.58l10 3.31 6.5-3.53 15.37-3.16 6.28 3.06s-1.93 5.88-1.95 5.88 0 .28 0 .71a10 10 0 0 1-2.25 5.41 14.6 14.6 0 0 1-4.92 3.31 20.24 20.24 0 0 1-3.57 1.07l-.93.14c-.11 0-.33.08-.64.14a5.74 5.74 0 0 0-.83.14.6.6 0 0 0-.2.12.48.48 0 0 0-.17.27.74.74 0 0 0 0 .28 3.11 3.11 0 0 0 .44.82 2.14 2.14 0 0 0 2.29.75 41.82 41.82 0 0 0 4.06-1.12 16.2 16.2 0 0 0 3-1.27c.24-.2.89-.7 1-.75l.39-.35.16-.15c.21 2.48-2.76 9.91-2.76 9.91s-6.92 2.46-6.48 2.14a2 2 0 0 1-2.23-.08l-1.81-2.21a65.7 65.7 0 0 1-1.86-2.46 15.84 15.84 0 0 1-.94-1.48 6 6 0 0 1-.68-1.5.22.22 0 0 1 0-.07 9.93 9.93 0 0 1-.34-1.28 17.42 17.42 0 0 1-3.78-.88c.1.09-8.57 2-8.57 2l9 36.56s16.75 26.33 27.25 21.25c1.57-.76 4.29-6.1 3.17-7.92s-18.92-31.33-18.92-31.33 24.5-13.16 24.74-13.05zM156.76 229.55a36.8 36.8 0 0 0 8 4.19c1.14.54 4.15-.07 5.44-2l-.06.05c-.08.05-17.86-13.9-20.18-14.72-.82-.29-5.37 1.37-4.78 2.21s2.72 3 2.77 3.13c3.1 2.41 7 5.63 8.82 7.14M119 203.82l-29.73-17s.87 8.43.86 8.57a69.32 69.32 0 0 0 6.1 4.63 17.39 17.39 0 0 1 1.88 1.37c.36.4 4 3 4.31 3.2s4.23 2.37 6.63 3.65c.09 0-1.67 1.39-1.64 1.35a10.21 10.21 0 0 0-2.39.74c-4.17 2.34-1.69 7.21-1.3 10.6.8 2.86 1.8 7.82 5.51 8.29 2.82.34 9.28-1.43 12.7-2.13.48-.86 5.43-1.16 5.37-1.09a10.47 10.47 0 0 1 2.4-.61c.21 0-.77 1.09-1.35 2.15s-4.13 11.57-7.44 17.16a21.7 21.7 0 0 0-1.26 3l6.7 1.54 10.83-27.5zM85.24 225.2c1.15 2.14 4.48 6.63 4.64 6.89s.88 1 1.72 2 1.57 1.76 1.78 2 1.79 1.88 2.2 2.25.88 1.14 1.22 1.46c1.17 1.05 5.49 4.81 5.91 5.12a18.32 18.32 0 0 0 2.85 1.75c3.71.47 5.53-1.56 5.91-2.16a1.67 1.67 0 0 0 .22-1.72c0 .06-14.32-10.69-23.82-31.38-.37-.8-3.66-4.79-6.69-2.37-2.48 2-.69 6.74-.69 6.74.94 1.95 3.77 7.62 4.76 9.45M57.13 227.24c1-3.58-7-2.79-7.56-2.91-2.48 4-5.11 17.63-6.44 24-.23.72-.54 1.87-.91 3.36q2.74 2.78 5.6 5.42c1.38-5.38 9.05-28.92 9.31-29.87z"/></g><g data-name="Layer 1"><path d="M287.91 134.08" fill="#a3080c"/><path d="M269.85 185.4a238.69 238.69 0 0 0-29.06-4.4c-14.14-1.29-25.71-2.39-27.3-2.56s-2-1.48-3.3-2.14c-4.79-2.4-13.85-4.63-19.52-6.63-1.4-.49-2.33-1.73-4.26-4.09a23.63 23.63 0 0 0-3-3c-.6-.55-1.92-1.66-2.27-1.93s-.58-1.07-.29-2.62a83.26 83.26 0 0 0 1.15-14.67 3.75 3.75 0 0 1 1.7-3.55c.48-.24 3.58-1.62 3.37-4.67s-1.17-7.4 1.31-13.46c2.4-5.88 5.41-16.36 5.77-23.28.38-7.35-1.46-12.09-4.36-14.66-1.13-1-2.47-2.49-1.38-5.69 1.16-3.44 3.27-12.85 1.2-19.07-.46-1.38-1-1.39-1.31-1.56a6 6 0 0 1-2.39-3.85 68.45 68.45 0 0 0-12.43-27.33 58.05 58.05 0 0 0-12.19-11.77c-1.43-.93-3.93-2.68-6.93-4.27A78.41 78.41 0 0 0 139.82 4c-.65-.2-2.12-.65-4.05-1.17A96.73 96.73 0 0 0 123.6.5a234 234 0 0 0-4.23-.35 59.66 59.66 0 0 0-12.25.36c-.36 0-.73.09-1.09.14l-2.1.31c-10 1.72-20.25 6.43-25.22 8.8a119.95 119.95 0 0 0-7.57 4l-.19.11c-.59.36-1.51.87-2.41 1.36-1.4.79-2.75 1.53-4 2.17a80.66 80.66 0 0 1-10.14 3.85l-1.17.43c-1.86.73-3.05 1.48-3.27 2.71-.4 2.22 2.22 4.28 1.28 7.82-2.3 8.71-12.13 17.07-13.7 18C32.94 53.05 33.22 55 33 56a7 7 0 0 0 .76 3c1.52 3.22 4.33 6 5.71 8.9s2.17 8 1.13 14c-1 5.78-1.29 7.06-1.81 8.11a5.53 5.53 0 0 0-.12 5.58c1.42 2.46 4.43 5 6.31 6.42 1 .77 1.52 1.48.78 2.87-1.22 2.28-.91 7.67.25 10.68a62.06 62.06 0 0 0 5.71 11.79C53.64 130.2 57 135 59 136.72s2.27 4.76 2.23 6.64-.3 7.15 5.13 10.46c2.68 1.65 2.92 1.23 3.9 2s1.44 1.21 2.12 3.35a55.47 55.47 0 0 0 8 14.88 27.22 27.22 0 0 1 2.08 2.86c.15.25.38.53-.16 1.79a162.88 162.88 0 0 0-4.3 15.9c-.31 1.36-.77 3.15-2.48 4s-5.53 2.93-6.92 3.7a9.92 9.92 0 0 0-3.7 3.19c-.72.89-1.24 1.41-1.69 2-.26.31-.37.51-1.74 1.22a241.12 241.12 0 0 0-37.2 18.1c-.46.28-.89.52-1.31.76a114.6 114.6 0 0 0 3.36 5c4.16-2.1 14.09-7.14 15.65-7.91a9.8 9.8 0 0 1 4-.89 7.46 7.46 0 0 1 1.79.15c.83.2 2.26.52 3.59.82l.37.08.25.06 1.47.37h.06l.52.15c1.18.39 1.81 2.6 1.17 4.62-.11.38-.48 1.66-1 3.55-.27.95-.58 2-.91 3.26l-1.1 4c-1.37 5-3 10.93-4.35 16.31a146.7 146.7 0 0 0 11.62 9.53c.45-3.49.93-7.13 1.29-9.78 1-6.9 6.48-32.48 8-38.29 1.13-4.23 1.72-6.16 3.21-6.83.45-.19 1-.49 1.25-.63s.94-.29.74.83c-.23 1.33-1.38 6.76-3.07 24.37a197.64 197.64 0 0 0-.78 29.54c.18 2.77.23 6.69 4.47 5 5-2 21.84-8 30.86-10.82 14.53-4.48 41.76-10.47 68-14.34l7.34-1s4.3 25.24 5 29.62l.82 4.63-.81-4.63c-.75-4.37-5-29.62-5-29.62l3.08-.4 6.63-.84 7.66-1 9.27-1.19a19628.52 19628.52 0 0 0 7.15 32.57l.92 4.2-.91-4.2c-1.51-6.51-7.15-32.57-7.15-32.57l7.85-1c2.32-.3 5.28-.67 6.16-.71 1.84-.08 2.65-1.12 1.24-1.54a24.47 24.47 0 0 0-4.55-.56h-1.77c-1.82 0-2.34-.39-2.73-3.07a348.55 348.55 0 0 0-8.62-37.68c-3-9.9-3.79-12.75-4.52-14.93-.64-1.88.6-2 1.2-2 2.21.11 5.28 1.26 6.16 3.15 1.95 4.22 15.27 39.11 20.61 52.11 3.37 8.19 7.3 18.06 11 26.84 2.38-2 4.67-4 6.92-6.12-6.91-15.19-22.29-49.6-30.4-67-.29-.63-.69-1.64-.88-2.24a1.63 1.63 0 0 1-.1-.53c0-1.11 1.48-1.27 2.21-1.2 2.86.29 28.87 2 36 2.68 4.69.44 9.36 1.16 12.48 1.71l1.9.36c.67.13 1.17.24 1.49.33a53.37 53.37 0 0 1 10.19 4.25 39.8 39.8 0 0 1 5.26 3.51 142.3 142.3 0 0 0 1.67-4.92 46.63 46.63 0 0 0-4.39-2.72 45.89 45.89 0 0 0-11.92-4.65M58.07 99.15c-.71.3-1.35.39-1.83-.58a33.64 33.64 0 0 1-2.43-9.23 127.07 127.07 0 0 1-.72-15.22c.19-4.42-.67-6.9-2.26-9a47.33 47.33 0 0 1-3-4.29c-.49-.89-.16-1.49.77-2.17.45-.32 1.38-.13 2.1-.28a29 29 0 0 0 9.68-4.77c3.52-2.77 9.13-8.12 12.94-10.18s5.48-3 9.92-3.53c.79-.09 2 .33.64 1.34s-5.61 2.53-10.59 10.05c-3.06 4.6-3.56 7.26-4.53 9.33s-1.9 2.65-3.45 4.32a10.67 10.67 0 0 0-2.83 4.9A70.14 70.14 0 0 0 61 93.77c.15 1.51.77 3.51-.64 4.25-.87.45-1.62.84-2.32 1.14m6.1 17.45c-.75-.54-3.83-4.7-5.33-9.33-.17-.49-.35-1.73.47-2.09s1.55-.8 2-1 1.62-.54 1.78 1.13.31 3.65 2.22 8.59a10.53 10.53 0 0 1 .51 1.51 1.11 1.11 0 0 1-1.65 1.2m6.27-15.74c-.2 0-2.32.29-3.46.5-.71.13-1.43.39-1.52-.29s-.32-1.8-.39-2.07a.52.52 0 0 1 .42-.64c.84-.19 4.08-.74 4.39-.75s.63.1.77.75.28 1.34.32 1.63.12.77-.53.87m1.19-10.59a16.31 16.31 0 0 1-.38-3.73 3.8 3.8 0 0 1 .66-2 18.67 18.67 0 0 1 2.27-2c1.11-.91.88-3.28 1-4.63.25-3.94-.1-16.38 8-28.28.31-.45.63-.87.94-1.26l.21-.39c.23-.27.46-.54.7-.78l.3-.31c.29-.28.57-.55.86-.79l.12-.1c.33-.26.65-.5 1-.73l.35-.22c.22-.15.45-.28.68-.41l.39-.21.75-.36.29-.13a12 12 0 0 1 1-.37l.42-.13.67-.2.22-.06c1.64-.44 3.33-.68 5-1a31.9 31.9 0 0 1 13.29.86c2.29.72 3.45 1.28 4.22.56s2.78-3 3.63-3.8a1.41 1.41 0 0 0 .27-.36 1 1 0 0 0 .06-.13 1.24 1.24 0 0 0 .07-.25 1.31 1.31 0 0 0 0-.15 1.66 1.66 0 0 0 0-.25.52.52 0 0 0 0-.13 1.17 1.17 0 0 0-.15-.34 2.45 2.45 0 0 0-.85-.81c-.93-.55-10.31-7.43-23-7.74-12.35-.31-22.38 4.06-25 5a3.73 3.73 0 0 1-1.13.28c-.31 0-1.39-.36-1-1.14a14.08 14.08 0 0 1 2.67-3.15c1.19-1.08 7-6.58 12.81-9.13 1.07-.47 1.33-.66 2-.93.87-.33 1.39-2.3-.54-2.31a17.81 17.81 0 0 0-3.81.37c-1 .17-1.62-.29-1-1.19a13 13 0 0 1 4.27-3.15C89 11.54 98.22 8.63 102.6 7.68a48.6 48.6 0 0 1 10.19-1.56 66.12 66.12 0 0 1 7.71.1A70.32 70.32 0 0 1 155 17.06c9.62 7.08 23.46 18.86 26.2 48a25.43 25.43 0 0 1 0 6.35c-.12.87-1.11 2.48-2 .66a178.7 178.7 0 0 0-12.31-21.34A1.38 1.38 0 0 0 166 50a.45.45 0 0 0-.28 0l-.06.05a.52.52 0 0 0-.14.15 1.27 1.27 0 0 0-.06.14 1 1 0 0 0 0 .2 1.15 1.15 0 0 0 0 .19 2.09 2.09 0 0 0 .05.49c.13.53 1.72 8.42 1.78 9.52s-.47 3.79 3.62 8.75c1.67 2 3.15 3.78 3.91 6.78a38.82 38.82 0 0 1 1 4.59c0 .31.37 1.21-1.07 1.21s-6.92-.39-9.27-.34-18.57 1.65-24.6 2.93-9.28 2.8-12.38 6.06a8.27 8.27 0 0 1-2 1.58 13.47 13.47 0 0 1-2.55-.06 14.51 14.51 0 0 0-5.58.91c-1.4.63-2.4 1.21-4.1.52-2.42-1-6.56-5.44-17.33-4.92a133.94 133.94 0 0 0-14.3 1.16l-.8.12-.52.08h-.29c-1.83.3-3.9.68-6.45 1.18l-1.07.21a1.44 1.44 0 0 1-1.87-1.29m99.12-2.78c0 .34-.42.7-.84.77s-3.32.33-3.78.37a.82.82 0 0 1-.94-.65c0-.42-.13-1.42-.16-1.68s-.06-.59.53-.67c.34 0 3.36-.31 4.48-.44a.67.67 0 0 1 .7.69v1.61m-13.55 3.25a19.08 19.08 0 0 0-3.43-2c-.66-.24-.43-1.06.51-1.19 3.26-.47 5.36-.47 7 .54a3.23 3.23 0 0 1 1.61 3.42c-.43 1.44-1 1.13-1.7 1.12a13.48 13.48 0 0 1-4-1.92m1.89 6.37c-.57.39-2.45 0-3.13-.22a20.94 20.94 0 0 1-4.34-2.16 7 7 0 0 0-5.41-.62c-1.27.39-2.3.71-3.42 1.14s-1.35-.59-1.06-1a10.92 10.92 0 0 1 4.43-3.41 7.71 7.71 0 0 1 2-.3 8.54 8.54 0 0 1 4.85 1.81 34.58 34.58 0 0 0 5.23 3.4c.7.3 2.23.53.87 1.47m-46.91 50.65c-5.69 2-7.29 0-7.79-.6s.12-1.17.72-1.45a17.88 17.88 0 0 0 4.08-2.9c.92-.89 2.71-4 4-5.09a7.54 7.54 0 0 1 6.4-.46c3 1.41 7.56 1.55 10.39 1.19a5.78 5.78 0 0 0 4.51-3.66c.61-1.23 2.11-1.68 2.9-2 2.17-.89 5-3.86 5.33-4.17s1.19-.75 2.61.08c2.59 1.52 3.91 3.54 6.31 6.27a9.2 9.2 0 0 0 6.09 3.21 1.8 1.8 0 0 1 1.39 1.29c0 .27-.65 1.19-1.17 1.58s-.81 1.08-5.41 1.19c-23.11.57-33.51 3.13-40.36 5.53m31.34 2.78a40.39 40.39 0 0 1-7.53 2.63c-2 .39-8.5 1.7-9.59 1.79a8.05 8.05 0 0 1-4.91-1.43c-.33-.23-.78-1.12.42-1.29 2.24-.33 5.85-2 19-2.68l2.41-.11c.34 0 1.55.38.17 1.09m-30.42 29.15c-4.59.76-16.79-2.83-24.73-22.42-2-5 .2-10.05 2.17-11.07a11.49 11.49 0 0 1 2.2-.93 2.11 2.11 0 0 1 2.75 2c.19 1.89 3.86 17.42 8.79 22.55 1.22 1.27 2.18 1.2 2.49-.12s.8-2.79 1-3.39c.11-.44 1.3-1.75 2-.07 1.45 3.56 3.2 8.22 4.36 10.09s.76 3.12-1 3.41m.9-51.22a4.23 4.23 0 0 1 .67 2.16c0 .55-1.94 1.56-3.91-.65a5.9 5.9 0 0 1-.77-6.58c1.3-2.07 3.85-1 3.61-.3a6.57 6.57 0 0 0 .4 5.36M99.34 99.81a12.61 12.61 0 0 0-5.75.77 31.28 31.28 0 0 0-6.35 3.42 9.25 9.25 0 0 1-3.47 1.32c-.51 0-2.36-.2-1.08-1.54.34-.37 1.15-.64 2.38-1.54.88-.65 1.53-1.11 2.53-2 1.78-1.52 5.42-3.72 7-3.91a6.56 6.56 0 0 1 4.4 1.13c1.27 1 1.76 2.4.29 2.35M74 102.42a5.88 5.88 0 0 1 3.43-4.24c.3-.09 1.41-.45 2.33-.69 1.09-.28 2.26-.52 2.86-.62 1.61-.28 1.95.94.93 1.74-.66.53-1.72 1.22-2.66 2-1.42 1.16-2.79 2.46-3.85 3.34-1.29 1.07-3.37.48-3.05-1.49m7.55 27.68a24.5 24.5 0 0 1-1.12-1.74l-.22-.4a15.89 15.89 0 0 1-.93-2c-.5-1.32.34-1.52.89-1.23a15 15 0 0 0 3.91 1.61 1.53 1.53 0 0 0 1.93-1.11l.14-.41a1.91 1.91 0 0 0 .08-.21v-.14c0-.08 0-.16.06-.25a.91.91 0 0 0 0-.13 2.13 2.13 0 0 0 0-.26v-.14a2.38 2.38 0 0 0 0-.26.91.91 0 0 0 0-.12 1.34 1.34 0 0 0-.1-.28v-.08a1.27 1.27 0 0 0-.24-.29 1.66 1.66 0 0 0-.5-.3 15.7 15.7 0 0 1-9-7.94 1.44 1.44 0 0 1 .29-1.82c.31-.25 1.43-1 2-1.29a1.83 1.83 0 0 1 2 .23c.74.53 2.33 1.69 3.61 1.58s1.31-.6 1.52-.91c.84-1.22 3.11-5.67 9.07-5.74 2.46 0 4.76.19 5.58.14a12.49 12.49 0 0 0 5.43-1.48c1.69-1.16 2.4-.32 1.43.94l-.4.52-.13.17-.35.5a1.39 1.39 0 0 0 .28 1.92 12.17 12.17 0 0 0 1.72 1.64.92.92 0 0 0 .56.2 1.15 1.15 0 0 0 .29 0h.13a2 2 0 0 0 .48-.31 10.23 10.23 0 0 0 1.58-1.58c.4-.52.74 0 .64.81-.08.63.2 4.67-4.2 9.65a11 11 0 0 1-.9.8l-.3.26-.16.15-.42.38-.34.34-.35.35-.22.25-.45.52-.13.19c-.17.22-.33.44-.47.67a8.73 8.73 0 0 0-.51.94 10.39 10.39 0 0 0-1.2 4.43c-.12.95-.85 1.32-1.68 1.7a21.67 21.67 0 0 0-3.28 2.1c-.44.33-.88.7-1.33 1.07l-.25.23c-.44.39-.88.8-1.28 1.23a8.43 8.43 0 0 1-.82.75l-.28.2c-.19.14-.39.27-.59.39l-.32.16a5 5 0 0 1-.6.25l-.32.11-.15.05c-.13 0-.25 0-.38.05a4 4 0 0 1-.48.07 5.37 5.37 0 0 1-.54 0h-.46a4.64 4.64 0 0 1-.55-.14c-.15 0-.31-.07-.46-.13s-.35-.16-.52-.25a5.2 5.2 0 0 1-.49-.25 9 9 0 0 1-.89-.65 44.36 44.36 0 0 1-2.46-2.28l-.07-.07-.07-.08c-.43-.44-.86-.9-1.28-1.39 0 0-1-1.22-1.43-1.8m53 92.91c-.27 1.41-1.42 6.15-5.64 15.92l-.83 1.91-.2.43-.32.69v.06l-.47 1-.07.12-.17.32-.23.43-.06.09-.18.32v.06l-.15.23v.08l-.2.32-.23.32-.2.26-.23.27-.13.13-.08.07h-.05a2.21 2.21 0 0 1-.24.2l-.22.16h-.06l-.17.1a1.45 1.45 0 0 1-.24.1h-.06l-.27.07c-.88.19-1.81.32-2.36.42l-.69.12-.74.12c-6.33 1.07-23.55 4-31.54 5.65-5.3 1.06-4.78-1.61-6.11-6.43-.56-2-2.53-19.94-1.5-31.19.34-3.73.51-4.83 1.18-5.24a17.72 17.72 0 0 1 2-1.17c.3-.08 1.21-.32 1.64.45s8.15 16.45 13.21 22.13c4.49 5.07 7.64 8.74 11.42 11.21a2.71 2.71 0 0 0 .66.33h.06l.25.05h.27a.59.59 0 0 0 .3-.17.77.77 0 0 0 .15-.32.26.26 0 0 0 0-.06 2.71 2.71 0 0 0-.73-2.07 93.45 93.45 0 0 1-8.84-10.93c-5.89-8.36-9.88-20.69-10.95-24.64a39.92 39.92 0 0 1-1-9.92v-.41-.31-.65c0-.21 0-.6.08-.88v-.34l.09-.55c0-.1 0-.2.06-.29a5 5 0 0 1 .18-.68c.92-2.62 1.68-2.34 2.49-1.46s8.12 7.52 20.17 12.92c2.56 1.15 4.08 1.67 4.43 2s.9 1.14-.2 1.4a35.12 35.12 0 0 0-7.66 1.7l-.54.23a3.51 3.51 0 0 0-2 1.63 1.92 1.92 0 0 0-.11.34 1.74 1.74 0 0 0 0 .26 6 6 0 0 0 0 .65v.51c0 .18.08.6.11.94.18 1.83.49 3.13.73 5.57s.09 4.67 1.28 5.7 2.82 1.63 7.16.78c4.12-.8 5.49-1.15 6-1.17s1.64-.21.93 1.14l-.26.48c-.95 1.69-3.25 5.5-4 8A32.84 32.84 0 0 0 118 237c-.07.48.26 1.41 1.12.37s2.54-4.91 6.78-9.83c.57-.66 1.09-1.24 1.58-1.77.38-.41.74-.79 1.08-1.13l.28-.27.81-.79.2-.18a20.27 20.27 0 0 1 1.65-1.4l.13-.09c.18-.13.36-.26.53-.36l.14-.09.47-.27.09-.05.46-.23c1.19-.58 1.51.23 1.15 2.1m7 21.56c-.68.16-3.62.6-4.07.61s-.83-.41-.64-.73a22 22 0 0 0 3.32-7.53c.19-.75.65-1.26 1-.19.23.78 1.14 4.68 1.35 6.14 0 .26.19 1.44-.92 1.7m1.23-37.34c-1.93.72-4.08-1.45-5.81-2.6-3.9-2.67-7.5-5.24-10.44-8.84-4.51-5.51-4.09-9.35-2.78-16.47a19.94 19.94 0 0 0-1.1-10.48c-.36-.67 0-1.35 1.11-.85s2.09 2.06 3.18 3.39 1.33.39 1.42-.52a12.64 12.64 0 0 0-.52-4.74v-.16c-.15-.58-.69-1.87-1.83-2.11-1.52-.32-3-.46-3.83-1-.38-.27-.81-.83-.38-1.24a9.23 9.23 0 0 1 3-2.11 13.38 13.38 0 0 1 4.7-1.25c12.44.08 15.79-2.8 20.55-4.77a3 3 0 0 1 2.29-.32c.8.24 3 1.06 3.52 2s.65 5 1.71 7.93 2.83-.11 3.22-1.36a28.09 28.09 0 0 0 .54-5c0-.76.24-3.94 1.24-5a11.64 11.64 0 0 0 2.7-5.62 23 23 0 0 0-.06-6.84c0-.43-.11-.88-.19-1.35-.67-4.22-1.52-4.58-2.66-5.34s-2.35-.43-5.27-2.43c-2.61-1.8-5-4.94-7-6.86a15 15 0 0 0-8.38-4.18h-.56a2.87 2.87 0 0 0-.4 0h-.06a1.43 1.43 0 0 0-.28.08h-.07l-.18.11-.07.07a.59.59 0 0 0-.1.12 1 1 0 0 0-.06.11v.11a1 1 0 0 0 0 .18v.07a1.5 1.5 0 0 0 0 .25 8.52 8.52 0 0 0 .8 2.21c.21.55.73 2.25-.2 3.23s-6.44 5.9-11.58 5.78a15.76 15.76 0 0 1-5.9-1.23l-.2-.1c-.39-.17-.76-.36-1.11-.55l-.19-.1c-.39-.23-.76-.47-1.1-.71l-.3-.23c-.26-.2-.51-.4-.75-.61l-.22-.19c-.28-.27-.54-.53-.78-.79l-.17-.2a9.74 9.74 0 0 1-.52-.64l-.15-.2c-.18-.26-.36-.51-.5-.75v-.08a7.74 7.74 0 0 1-.33-.62l-.07-.15a5.43 5.43 0 0 1-.23-.57c-.75-2.26 1.11-7.6 1-11.42 0-1.68-.37-4.89-.63-7.12a11 11 0 0 1 1.47-6 2.41 2.41 0 0 1 .52-.46l.17-.11a4.7 4.7 0 0 1 .68-.37l.11-.06c.25-.1.52-.21.81-.31a14.64 14.64 0 0 1 1.56-.44c1.83-.41 4 .5 4.53 2 1.92 5.28 4 6.39 4.75 6.74s1.86-.69 2.3-1.08 1.52-1.79 1-2.41a8.18 8.18 0 0 1-1.35-2.11c-.36-1 .94-1 1.25-.88a18.73 18.73 0 0 0 9.6 1.88c3.79-.12 9.69-2.62 10.42-2.63a3.17 3.17 0 0 1 2.21 1l.26.4c.38.57.89 1.32 1.34 1.48h.05a20.13 20.13 0 0 0 2.56.19c1 0 2.62-.3 2.58 1.46-.11 4.7-3.82 7.64-4.16 7.92a1.18 1.18 0 0 0-.27.42.61.61 0 0 0-.06.13 1.15 1.15 0 0 0 0 .25.86.86 0 0 0 0 .23 12.28 12.28 0 0 0 .66 1.57 1.37 1.37 0 0 0 .23.29l.09.07a1.17 1.17 0 0 0 .23.15.9.9 0 0 0 .15 0 .89.89 0 0 0 .26 0h.18a1.23 1.23 0 0 0 .42-.15c3.15-1.88 4.43-4.11 5.8-6.91s2.09-12 2.16-13.5a3.93 3.93 0 0 1 1.3-3.07 37.53 37.53 0 0 1 4.94-3.09c.53-.12 1.13-.17 1.72 1.2s1.92 9.86 2.17 11.17 1 1.22 1.36 1a7.44 7.44 0 0 0 2.06-2.49 3.33 3.33 0 0 0-.51-3.64c-.69-.78-1.79-2-1.33-3.25a3.5 3.5 0 0 1 3.91-2.56c.59.1 2.86 1.12 3.27 7.23.59 9.05-3.1 18.41-4 20.78a50.82 50.82 0 0 0-2.65 10.58c-.29 1.7-1.59 1.4-1.9 1.12s-.72-1.59-.92-1.79-.71-.1-1 1.36a19.29 19.29 0 0 1-2.1 4.56 4 4 0 0 0-.25 2.52 86.72 86.72 0 0 1 .75 14.12c-.44 11.91-4.43 19.41-7.4 23.34-7 9.24-13.54 13.1-14.33 13.65a4.45 4.45 0 0 1-3.27.41 10.81 10.81 0 0 1-2.15-1.52 1.47 1.47 0 0 0-.25-.15c-.85-.4-1 .81-1 1.12s.53 1.57.82 2.77c.56 2.26-.7 5-2 7.15-1.85 3.05-3.9 6.4-3.47 10.09 0 .33 0 .57-.28.67m59.24 3.54a928.48 928.48 0 0 1 3.74 23.73.73.73 0 0 1 0 .14 9.5 9.5 0 0 1 .06.95v.42c0 .1 0 .19-.05.28s0 .07 0 .11a1.63 1.63 0 0 1-.19.48v.06a1.28 1.28 0 0 1-.26.27l-.1.07a1.91 1.91 0 0 1-.44.2h-.16l-.43.12-.29.06-.65.13a14.35 14.35 0 0 1-1.49.21l-2.58.23c-9.22.84-27.27 2.67-41.73 4.49-.27 0-.55.06-.85.1-1.13.16-1.78 0-1.87-1.13a57.64 57.64 0 0 0-6.87-19.6c-.47-.79-1-1.57-1.49-2.32s.28-1.48 1.11-1.19c2.32.81 8.73 3.75 17.88 10.3 2.34 1.67 2.94 2.19 3.47 2.63a1.32 1.32 0 0 0 .27.17h.13l.22.07h.48a.77.77 0 0 0 .29-.1c.21-.13.31-.39.14-.84-.57-1.6-3.63-4.76-11.46-12-1.12-1-1.14-1.47 0-1.59s4.29 0 6 0 5.41-.18 4.68-5.07c-.56-3.79-1-7.7-1.07-8.87s-.27-3.35-3-3.66a29 29 0 0 0-11.49 1.85c-1.13.39-1.52-.13-.69-.89s8-5.42 14.12-12.44c6.72-7.73 9.68-13.42 11.35-18.59.3-.92.69-.61 1.07-.4s2.89 2.26 3.79 7.27 2.61 12-.45 30.3a107.37 107.37 0 0 1-4.19 17.37c-.48 1.4.34 2.19 1.27.93 2.16-2.95 5-11.12 7.43-20.52a126.63 126.63 0 0 0 3.6-22.32c0-.47.07-.91.09-1.33v-.17c0-.41 0-.81.07-1.16a2.3 2.3 0 0 1 .06-.55.87.87 0 0 1 0-.12 1.88 1.88 0 0 1 .07-.2 1.17 1.17 0 0 1 .15-.22.57.57 0 0 1 .13-.08h.48a2.19 2.19 0 0 1 .49.16c.48.19 2.59.8 3.69 5.87 0 .2.09.43.15.65a1.72 1.72 0 0 0 0 .23l.15.63c.91 4 2.57 10.88 5 25"/><path d="M163 219.39h1.03v2.62h.62v-2.62h1.03v-.53H163v.53zM167.9 221.12l-.79-2.26h-.89v3.15h.57v-2.53l.88 2.53h.5l.86-2.53v2.53h.58v-3.15h-.89l-.82 2.26z"/></g></svg>