<svg xmlns="http://www.w3.org/2000/svg" width="299.4" height="143.93" overflow="visible"><path style="marker:none" d="M193.31 52.3c-1.4-1.87-1.64-5.18-4.5-5.47-2.76-.75-5.51-1.54-8.3-2.2l-16.4 2.68-1.92 8.84 26.51 3.46 6.92 4.6 18.06 1.93 8.45-3.08c-8.76-2.82-17.73-5.08-26.25-8.6-1.04-.48-1.77-1.36-2.57-2.16z" color="#000" fill="#db0026" fill-rule="evenodd" overflow="visible"/><path d="M225.53 62.68c-.6-.77-1.55-1.08-2.2-1.38-.65-.3-.56-.93-1.1-1.11-.55-.18-1.52.95-2.27.71s-.7-1.65-1.32-1.85c-.64-.2-1.76.85-2.34.66-.6-.17-.7-1.64-1.27-1.83-.56-.17-1.75.88-2.33.7-.59-.2-.62-1.64-1.27-1.85-.65-.2-1.78.88-2.34.68-.58-.18-.64-1.6-1.26-1.82-.62-.2-1.77.86-2.34.67-.6-.2-.76-1.67-1.3-1.84-.55-.17-1.63.7-2.51.65-6.09-.57-8.42-4.4-8.83-3.27-.4 1.11 1.27 3.81 3.37 4.72 1.68.73 19.82 5.76 20.3 5.98.46.23 1.6.74 1.2 1.4-.63.85-2.4 0-2.86-.36-.45-.38-.35-.52-.78-.64-.97-.23-1.5 1.55-2.54 1.3-.93-.2-.87-2.08-1.82-2.3-1.05-.26-1.52 1.53-2.52 1.3-.83-.2-.94-2.1-1.83-2.32-1.02-.25-1.48 1.54-2.54 1.29-.92-.21-.87-2.08-1.82-2.31-.96-.23-1.62 1.5-2.53 1.3-.9-.21-1.03-2.12-1.84-2.3-.82-.2-1.47.78-2.57.92 0 0-3.17.86-8.2-4.38-5.02-5.23-7.08-6.25-9.94-4.11-4.67 3.47-7.57 1.17-8.41.14-1.02-1.19.04-2.28.04-2.28s1.49 2.3 3.35 2.34c3.01.09 5.28-4.02 10.44-4.1 6.53-.23 8.23 2.1 10.02 2.28 1.65.16 2.2-.1 3.35-.77.92-.33 1.72 1.46 2.7 1.1 1.02-.39.27-2.2 1.37-2.6 1.03-.38 1.7 1.43 2.7 1.07 1.04-.38.37-2.24 1.37-2.6 1.03-.37 1.63 1.46 2.7 1.07 1.07-.38.37-2.22 1.35-2.58 1-.37 1.73 1.43 2.72 1.08.94-.34.4-2.25 1.38-2.6 1-.37 1.66 1.44 2.74 1.05.88-.31.4-2.23 1.31-2.58.92-.34 1.77 1.44 2.73 1.08.9-.33.37-2.24 1.32-2.6 1.01-.36 1.8 1.42 2.75 1.08.94-.34.23-1.88 1.46-2.49 0 0 1.7-.56 1.6-1.81a3.98 3.98 0 0 0-3.18-3.45c-2.7-.55-24.03 5.35-24.31 5.01-1.96-3.88-4.48-2.8-4.86-2.71-.4.1-2.77 1.11-5.41.1-5.18-2.35-9.32 3.62-12.16 2.83a9.5 9.5 0 0 0-5.7.06c-1 .35-2.63 1.66-6.08.47-26.63-9.1-47.45-1.14-47.45-1.14-11.74 3.92-13.24 0-13.24 0s-3.86-5.25 23.34-11.5c39.09-8.99 40.27-23.85 39.8-24.79-.64-1.36-.88.24-2.17 1.72-1.08 1.23-2.34.62-2.34.62-1.23-.59-2.01.82-2.01.82s-1.58 2.45-2.98 1.06c-1.35-1.35-3.13 1.69-3.8 1.8-.8.15-1.19-.24-2.26-.73-1.6-.71-3.33 2.21-4.21 2.42-1.35.3-2.3-1.6-3.46-.8-3.48 2.4-4.02 2.74-4.96 1.8-.7-.7-.8-1.46-3.11.76-1.98 1.9-2.92 2.25-3.72 1.04-.81-1.21-.6-2.86-4 .4-1.62 1.55-2.44 1.58-3.37.88-.7-.53-.7-3.03-3.13-.76-2.2 2.04-3.8 2.93-4.43 1.12-.7-2.04-3.3.37-3.9.94-.62.57-1.95 2.07-2.89.52-.94-1.56-3.18.77-4.51 2.25-1.03 1.14-1.86.26-2.95-.47-1.23-.85-4.92 4.3-5.26 4.62-.33.29-.6 0-1.44-.72-1.3-1.1-4.8 5.02-5.37 5.42 0 0-.24.53-1.2-.38-1.36-1.3-8.58 8.2-11.3 18.97-3.5 13.79 2.06 24.36 2.06 24.36s1.67.05 2.38-1.08l1.08-2.43c.88-2.04 2.32-1.4 2.32-1.4l-3.4 10.14c-.55 1.34-.22 3.23.97 5.01 1.12 1.8 1.9 3.01 2.8 3.84 2.76 2.6 2.47-.47 2.55-.86.32-1.64 2.14-.38 3.58.41 2.6 1.46 2.31-1.76 2.88-2.81.4-.76 1.68-.8 3.06.37 1.08.9 2.16-2.15 2.16-2.15 1.35-6.52-1.82-7.28-3.53-7.37l-3.47-.16s.22-1 .59-1.92l.15-.66c3.78-9.43-2.54-11.25-4.43-11.1-2.09.2-1.94-1.14-1.94-1.14s11.43-2.25 9.3 9.87c0 0-.43 2.1-.68 3.2l3.14.37c2.7.34 3.18 3.54 3.18 3.54s9.94 2.62 15.58 1.57c0 0 2.51-.6 3.21-2.16 0 0 3.65-8.6 14.31-8.97 0 0 .38 1.12-1.33 1.7-2.04.68-8.84 1.22-10.25 9.04v.03a5.12 5.12 0 0 0 2.97 5.27c2.37 1.07 3.2 5.39 3.7 6.55 1.37 3.31 3.44.15 3.44.15s1.3-2.67 2.43-1.19c1.9 2.5 2.78 1.24 3.21-.35.47-1.72 1.16-2.47 3.15-.38.85.9 2.51.2 2.68-1.34.35-3.42 2.65-.7 2.98-.57.4.15 2.81-.4 1.46-4.24 0 0-1.82-3.67-10.05-5.25-1.93-.37-1.62-1.77-1.62-1.77l1.8.26c.55.09 5.33.62 5.84.7 20.07 1.98 35.3-4.83 35.76-5.32 15.59 3 36.79 1.97 40.77.54 4-1.41 4.3-3.75 3.84-4.37zm-32.2-24.88c.33-.52.64-.82.92-.96 1.21-.7 1.99 1.46 1.84 1.54l-.05.02v.01c-.2.1-2.53.76-2.76.6-.46-.32.06-1.2.06-1.2zm-8.86.68s.3-.38.89-.57c.57-.21 1.44-.25 2.6.5 1.32.84 1.28 1.5 1.28 1.5l-.16.06c-.96.37-4.9.86-4.9.86-.77-1.41.3-2.35.3-2.35zM111 19.42c.67.51.03 3.45-.44 3.01l-3.4-1.8s3.16-1.7 3.84-1.21zm-5.53 1.88c.67.5.04 3.44-.43 3l-3.4-1.8s3.16-1.71 3.83-1.2zm-1.91 5.74c.67.5.04 3.45-.44 3.03l-3.4-1.83s3.16-1.7 3.84-1.2zm-3.24 7.72l-3.4-1.81s3.16-1.72 3.83-1.21c.68.5.03 3.45-.43 3.02zm-.64 5.81l-3.4-1.8s3.16-1.71 3.84-1.22c.67.5.04 3.44-.44 3.02zm-.07-17.23c.68.5.04 3.44-.43 3.02l-3.4-1.81s3.16-1.71 3.83-1.2zm-2.95 4.48c.67.5.04 3.44-.43 3.02l-3.4-1.8s3.16-1.73 3.83-1.22zm-6.06 7.03s3.17-1.72 3.83-1.21c.68.5.04 3.44-.43 3.01l-3.4-1.8zm2.6 7.36l-3.4-1.81s3.17-1.7 3.83-1.2c.68.5.05 3.43-.44 3.01zm-2.41-12.35c.67.5.03 3.44-.44 3.01l-3.39-1.81s3.15-1.7 3.83-1.2zm-3.06 5.93c.67.5.04 3.45-.44 3.02l-3.4-1.8s3.17-1.7 3.84-1.22zm-4.47 7.02s3.16-1.7 3.83-1.2c.68.5.04 3.44-.43 3.02l-3.4-1.82zm6.06 6.64l-3.39-1.81s3.16-1.71 3.84-1.21c.67.5.03 3.44-.45 3.02zm4.87 3.94l-3.4-1.8s3.17-1.71 3.84-1.21c.67.49.03 3.45-.44 3.01zm1.53-6.15l-3.4-1.82s3.16-1.7 3.83-1.21c.68.5.04 3.44-.43 3.03zm4.51 8.81l-3.39-1.8s3.15-1.72 3.83-1.21c.67.5.04 3.43-.44 3.01zm1.63-5.67l-3.39-1.8s3.16-1.7 3.83-1.2c.67.49.04 3.43-.44 3zm1.13-5.36l-3.4-1.81s3.16-1.7 3.84-1.2c.67.5.03 3.43-.44 3zm4.77 10.35l-3.4-1.82s3.16-1.7 3.84-1.2c.68.5.04 3.45-.44 3.02zm1.47-5.65l-3.4-1.8s3.17-1.72 3.84-1.21c.66.48.03 3.43-.44 3zm1.23-5.98l-3.4-1.81s3.17-1.7 3.84-1.2c.67.5.03 3.43-.44 3zm4.77 10.57l-3.4-1.81s3.16-1.71 3.83-1.21c.67.51.03 3.45-.43 3.02zm1.14-6.04l-3.4-1.82s3.17-1.7 3.84-1.2c.67.5.03 3.42-.44 3.02zm1.18-6.2l-3.4-1.82s3.16-1.7 3.84-1.2c.67.51.04 3.44-.44 3.01zm5.1 9.85l-3.39-1.8s3.16-1.7 3.83-1.2c.68.5.04 3.43-.43 3zm.94-5.95l-3.4-1.8s3.16-1.7 3.82-1.21c.7.5.05 3.45-.42 3zm1.18-5.83l-3.4-1.8s3.16-1.72 3.83-1.22c.67.5.03 3.45-.43 3.02zm5.2 10.52l-3.4-1.8s3.15-1.72 3.83-1.22c.68.5.04 3.44-.43 3.02zm.92-5.55l-3.4-1.8s3.17-1.73 3.84-1.21c.67.48.03 3.44-.44 3zm1.12-5.93l-3.4-1.8s3.16-1.73 3.84-1.22c.67.5.04 3.44-.44 3.02zm4.7 11.59l-3.38-1.81s3.16-1.72 3.83-1.2c.67.49.03 3.43-.44 3zm1.13-5.97l-3.4-1.8s3.16-1.72 3.83-1.21c.67.5.03 3.44-.43 3.01zm1.27-5.93l-3.4-1.8s3.16-1.73 3.84-1.22c.67.5.03 3.44-.44 3.02zm4.68 11.9l-3.4-1.82s3.16-1.7 3.83-1.2c.68.5.05 3.44-.43 3.02zm1.09-5.64l-3.4-1.81s3.16-1.7 3.83-1.21c.68.5.05 3.45-.43 3.02zm1.28-5.76l-3.38-1.8s3.15-1.71 3.83-1.22c.66.5.03 3.44-.45 3.02zm4.28 12.25l-3.4-1.83s3.17-1.7 3.84-1.19c.68.5.04 3.44-.44 3.02zm1.2-5.47l-3.4-1.8s3.18-1.7 3.84-1.2c.68.5.03 3.44-.44 3zm1.3-5.58l-3.4-1.8s3.16-1.7 3.84-1.22c.67.5.02 3.44-.44 3.02zm5.3 6.76l-3.4-1.79s3.16-1.71 3.84-1.22c.67.5.03 3.44-.45 3.01z" fill="#004526"/><path d="M68.99 98.8c-.7-1.89-2.06-2.7-4.52-2.74l-11.64.01-16.9 46h8.22c.71.06 1.37-.05 1.96-.32 1.6-.73 2.39-2.58 2.62-3.22l2.45-6.83h17l3.46 10.36h11.13l-7.06-22.4-6.72-20.87m-3.43 23.47H54.11c1.23-3.38 4.3-11.94 5.62-15.4 1.14 3.49 5.8 15.28 5.83 15.4zm83.53-26.56c-13.18.02-22.73 9.9-22.73 23.5 0 13.3 9.77 23.35 22.73 23.35 12.95 0 23.11-10.25 23.11-23.36 0-13.17-10.16-23.49-23.11-23.49m.33 36.59c-6.71 0-11.97-5.8-11.97-13.22 0-7.35 5.14-12.88 11.96-12.88 6.77 0 11.68 5.41 11.68 12.88 0 7.54-5.02 13.22-11.67 13.22zm52.57-17.22l-.43-.13-4.3-1.31-.64-.23c-3.5-1.27-6-2.33-6-4.37v-.15c.35-3.39 6.65-3.43 6.7-3.43 3.47 0 6.14.54 9.52 1.9l.07.02.15.04c.78.16 1.46.18 2.01.06l.94-.36c1.34-.73 2.68-4.64 3.19-6.3l.16-.52-.4-.38c-.17-.16-1.16-.97-4.73-2.3-3.64-1.36-8.8-1.58-8.8-1.58h-2.54c-13.29 0-18.36 8.19-18.52 13.7-.1 5.48 3.01 8.3 7.73 10.87 1.98 1.09 5.58 2.1 8.2 2.83l2.7.8c4.95 1.55 6.84 3.27 6.5 5.95-.16.88-1.84 2.35-5.64 2.35-2.89 0-5.5-.45-8.22-1.4a29.03 29.03 0 0 1-4.08-2.03l-.07-.04-.15-.07c-.79-.3-1.5-.41-2.1-.36l-1.05.22c-1.52.57-3.64 4.44-4.49 6.08l-.33.65.57.46c.1.06 2.47 1.94 4.47 3.11a27.96 27.96 0 0 0 8.14 2.9c1.26.22 3.27.51 6.4.51 10.3 0 17.78-5.21 18.64-12.97.37-7.05-3.95-11.64-13.6-14.52zM224 96.13c-.43 0-2.68.04-3.97 1.23-.6.55-.9 1.28-.9 2.1l-.01 7.28 14.04-.01v35.37l11.5-.01v-35.36h9.04c.43 0 2.67-.05 3.97-1.24.58-.56.9-1.27.9-2.1v-7.26H224zM26.66 131.69h-12.9l-.05-31.36c0-1.3-.38-2.34-1.17-3.06-1.25-1.18-3.11-1.17-3.8-1.16l-6.8-.01.02 45.98h28.8l.01-7.3c0-.94-.4-3.1-4.1-3.1zm82.32-25.79c2.79-.18 5.14 0 7.35.6 1.2.4 2.27.48 3.18.23l.91-.41c1.3-.8 2.21-4.83 2.65-7.16l.1-.55-.47-.34c-.12-.08-.48-.34-4.65-1.46a33.99 33.99 0 0 0-8.85-1.14h-.18c-9.53 0-23.87 6.29-24.29 23.6v.1C85.15 136.7 99.5 143 109.03 143h.17c1.67 0 5.04-.13 8.85-1.15 4.17-1.11 4.53-1.37 4.65-1.46l.47-.33-.1-.55c-.44-2.34-1.36-6.37-2.65-7.17l-.91-.41a5.51 5.51 0 0 0-3.2.23c-2.2.6-4.54.79-7.36.6-7.22-.7-11.55-5.61-11.88-13.46.33-7.78 4.66-12.69 11.9-13.39zm183.68 36.16c1.77-.04 4.8-1.09 4.8-4.62l-.04-5.77h-20.28l.04-7.7h16.73l-.03-10.64-16.67.02v-6.61l15.36-.02c.42 0 2.71 0 3.96-1.23.87-.87.9-2.45.9-3.28v-6.07h-31.89l.01 45.95 27.1-.03z"/></svg>