<svg width="175" height="92" xmlns="http://www.w3.org/2000/svg"><g fill="none" fill-rule="evenodd"><path d="M-2-4h181.26v98.94H-2z"/><path d="M174.79 45.97c0 25.23-39.03 45.69-87.15 45.69C39.5 91.66.48 71.2.48 45.96.48 20.75 39.51.27 87.64.27c48.12 0 87.15 20.47 87.15 45.7z" fill="#FFFAC2"/><path d="M171.19 45.93c0 23.18-37.42 41.97-83.58 41.97S4.03 69.12 4.03 45.93c0-23.17 37.42-41.96 83.58-41.96s83.58 18.79 83.58 41.96zM87.6 7.27c-44.34 0-80.3 17.31-80.3 38.66 0 21.35 35.96 38.67 80.3 38.67 44.34 0 80.3-17.32 80.3-38.67S131.95 7.27 87.6 7.27z" fill="#006351"/><path d="M165.83 45.93c0 20.21-35.02 36.59-78.22 36.59-43.2 0-78.22-16.38-78.22-36.6 0-20.2 35.02-36.57 78.22-36.57 43.2 0 78.22 16.37 78.22 36.58zM137.75 28.8h-13.42l-1.64 4.66h8.69l-9.91 3.43-.66 1.9 15.25-5 1.69-5zM52.2 37h-5.45s5.06-13.5 5.46-14.53c.73-1.8 1.15-1.68 1.15-1.68h-7.54c.93.44.1 2.2.1 2.2s-6.05 16.85-6.46 17.68c-.42.84-.74.95-.74.95H51.8l1.82-4.99c-.16.48-1.42.36-1.42.36zm22.93 4.61h6.16s-.41-.62-.16-1.3c.37-.96 3.63-9.84 3.63-9.84l1.42 11.14h5.59l7.3-19.83s.3-.93.7-.93l-5.91-.02s.17.7-.05 1.21l-3.57 9.53-1.32-10.74h-6.37s.34.53.12 1.1l-6.74 18.53s-.43 1.15-.8 1.15zm28.15-20.77s.53.85-.16 2.8c-.68 1.94-6.05 16.4-6.05 16.4s-.42 1.36-1 1.63h8.42s10.2.37 13.36-10.36c0 0 4-10.57-7.58-10.47h-6.99zm.9 16.03h.96c1.44 0 4.1-.33 5.88-4.67 2.92-7.13-1.16-6.88-1.16-6.88h-1.6l-4.09 11.55zM29.3 58.41h13.42l1.63-4.67h-8.67l9.9-3.43.66-1.9-15.24 5-1.69 5zm23.5 8.61c-.2 0-.2-.67-.2-.67l2.47-6.55 3.28 6.45c.22.43.1.77.1.77h7.36c-.7 0-1.43-1.33-1.43-1.33l-3.66-6.57c5.13 0 6.77-5.07 6.77-5.07 2.51-8.07-5.98-7.85-5.98-7.85h-8.7c.63.69.15 2.17.15 2.17L47.14 65a6.62 6.62 0 0 1-1.19 2.02h6.88-.01zM58.04 51l-1.42 4.18h1.33s2.6.23 3.56-1.83c0 0 1.12-2.36-2.02-2.36h-1.45zm70.89 16.11c-.53.01-.16-1.28-.16-1.28l2.2-5.95 3.17 6.46c.22.43.11.77.11.77h7.62c-.7 0-1.48-1.34-1.48-1.34l-3.66-6.56c5.13 0 6.67-4.9 6.67-4.9 2.69-8.44-5.88-8.03-5.88-8.03h-8.63c.63.7.15 2.18.15 2.18l-6.06 16.68c-.27.73-.69 1.4-1.23 1.95l7.17.01v.01zm5.02-11.85s2.58.2 3.37-1.82c.92-2.38-1.4-2.33-1.4-2.33h-1.9l-1.4 4.15h1.33zM76.6 67.55c7.59 0 12.1-7.45 12.1-12.8 0-5.6-2.3-9.09-7.56-9.09-6.71 0-11.09 5.09-12.22 11.42-1.04 5.82 2.26 10.47 7.68 10.47zm.48-4.93c1.88.35 3.96-1.01 5.05-5.37 1.66-6.58-1.38-6.64-1.94-6.71-1.69-.2-3.92 1.73-4.83 5.77-.42 1.84-.86 5.83 1.72 6.3zM90.5 46.27s.52.28.52 1.61v18.03s-.08 1-.45 1.2h5.65s0-.43.55-1.13c.57-.7 12.28-16.41 12.28-16.41s2.68-3.3 3.37-3.3h-8.07s.64.42.14 1.18c-.5.78-7.67 11.51-7.67 11.51l.1-10.81s-.02-1.75.68-1.89h-7.1v.01zm34.1 4.91l1.82-4.92h-13.68s.5.44-.14 2.19c-.63 1.75-6.17 16.69-6.17 16.69s-.99 1.96-1.27 1.96h14.1l1.7-4.98s-.22.3-1.55.3h-5.96l1.26-3.38h4.63s.98-.07 1.19.2l1.88-5.3s-.13.47-1.39.47h-4.49l1.33-3.71h5.68s.78-.1 1.05.5v-.02zm-71.32-9.55h6.76s-.02-.51.16-.85a62.5 62.5 0 0 1 1.15-2.08h6.79l.02 1.83s.03.64-.47 1.12h6.74s-.5-.28-.6-1.1L73 22.22s-.04-1.17.52-1.42h-6.69s.47.59-.43 1.9L54.1 40.95s-.23.43-.8.68zm14.73-13.72L64.27 34h3.81l-.06-6.11z" fill="#006351"/></g></svg>