<svg xmlns="http://www.w3.org/2000/svg" width="537.65" height="91.82"><path d="M91.81 46A45.9 45.9 0 0 1 0 46.09C0 20.3 20.55 0 46.63 0c24.79 0 45.18 20.84 45.18 46M4.76 46a41.14 41.14 0 0 0 82.24.09C87 23 68.85 4.78 45.53 4.78 23.23 4.78 4.76 23.41 4.76 46zm31-1.85l-.56 1.11a61.52 61.52 0 0 1-10-3.77l-.55 1 1.66.91c5.87 3 7.8 3.67 11.2 3.67 6.79 0 11.93-3.85 14.33-10.65a87.23 87.23 0 0 1 16.06-1.19 129.46 129.46 0 0 1 16.44 1l-1.53 1.97A108.73 108.73 0 0 0 71 37.46c-4.49 0-7.34.09-8.81.18l-.73 1.66c3.76-.18 5.13-.18 8.08-.18 5 0 8.9.18 12.11.45l-1.56 2c-5.78-.17-8.44-.27-12.75-.27-2.39 0-4.14.1-7 .18l-.74 1.65c2.4-.13 5.85-.25 9.4-.25 3.4 0 7.43.09 9.82.18l-1.57 2c-1.64-.1-4.86-.1-7.34-.1a99 99 0 0 0-11.47.56l-.7 1.48a114.23 114.23 0 0 1 12.76-.64c2 0 3.3 0 5.61.18l-1.75 2.11c-3.12-.18-4.12-.18-5.32-.18-8.72 0-14.41 1.28-20.11 4.5a32.69 32.69 0 0 0 21.77 8.81c.64 0 1 0 2.66-.09l-3.77 3.78c-20.74-5.42-24.42-6.89-43.42-18.18C18.63 43 12.47 40 7.51 38.57l.65-2.29A44.58 44.58 0 0 1 14.32 38l1.09-2.48 20.39 8.64zM168.36 15.34v49.13h25.9v12.1H153V15.34h15.33m57.93 61.24l-.45-4.31a16.54 16.54 0 0 1-12.67 5.51c-6.25 0-11.29-2.57-13.87-7-1.93-3.31-2.21-5-2.21-12.22V32.51h14.42V58c0 6.44 1.83 9.1 6.34 9.1 4.77 0 7.16-3.12 7.16-9.1V32.51h14.41v44.07zm45.82-51.5h-2.39c-5.33 0-6.7 1.28-6.7 6.15v1.29h8.53v9.73H263v34.32h-14.39V42.24h-6.25v-9.73h6.25v-1.29c0-11.56 4.31-15.88 15.6-15.88h7.9zm22.12-6.34v13.77h8.18v9.73h-8.18v17.44c.1 6.43.47 6.8 6 6.8h2.85v10.1h-10.82c-8.54 0-12.41-3.94-12.41-12.93V42.24h-6.05v-9.73h6.05V18.74h14.42zm26.44-3.4v22.12c2.68-4.32 6.43-6.24 12-6.24 6 0 10.93 2.57 13.58 7.25 1.93 3.4 2.22 5.24 2.22 12.58v25.52h-14.27v-25c0-6.34-1.92-9.18-6.34-9.18-4.77 0-7.16 3.12-7.16 9.18v25h-14.4V15.34h14.4zm34 31.22c0-10 7.81-15.89 20.85-15.89 13.68 0 20.47 5.69 20.47 17.25v22.5c0 3.85 0 3.85 1.19 6.14h-13.3l-.85-3.65c-4.59 4-8.54 5.5-14.32 5.5-9.74 0-16.8-5.78-16.8-13.76 0-6.62 4.31-11.3 12.75-13.69 1.29-.36 5.52-1.19 12.76-2.57 3.13-.64 4.32-1.65 4.32-3.76 0-2.48-2.57-4.14-6.42-4.14-4.68 0-7.43 2.21-7.53 6.06h-13.11zm27.45 8.9c-1.83.56-2.39.73-3.85 1.2-1.74.45-3.3.81-5.23 1.19-4.68 1.19-7 3-7 5.87s2.21 4.5 5.8 4.5c7 0 10.27-3.12 10.27-9.64v-3.12zm32.05-22.95l.46 5a15.09 15.09 0 0 1 12.75-6.24c6.16 0 11.13 2.66 13.7 7.25 1.82 3.4 2.2 5.33 2.2 12.58v25.47h-14.4v-25c0-6.52-1.84-9.18-6.33-9.18-4.69 0-7.07 3.12-7.07 9.18v25H401V32.51zm60.78 13.77c-.38-4.13-2.12-5.69-6.52-5.69-3.59 0-5.78 1.38-5.78 3.68 0 2.11 2.1 3.39 6.88 4.12l5 .92c10.46 1.74 15.33 6.14 15.33 13.77 0 9.36-8 15.33-20.48 15.33-14.78 0-22.86-5.87-22.86-16.51h14v.54c0 3.68 3 6 7.9 6 4.22 0 6.79-1.57 6.79-4s-2.39-4-8-5l-4.58-.73c-10.48-1.84-15-5.6-15-12.57 0-9.56 8-15.34 21.13-15.34 9.17 0 14.87 2.47 17.82 7.8 1.28 2.21 1.46 2.95 1.83 7.81zm20.1.28c.1-9.92 7.9-15.89 21-15.89 13.69 0 20.38 5.69 20.38 17.25v22.5c0 3.76 0 3.76 1.2 6.14h-13.4l-.73-3.66c-5.33 4.31-8.46 5.5-14.32 5.5-9.84 0-16.9-5.78-16.9-13.76 0-6.62 4.31-11.3 12.75-13.69 1.29-.36 5.52-1.28 12.77-2.57 3-.64 4.31-1.65 4.31-3.76 0-2.48-2.57-4.14-6.33-4.14-4.68 0-7.53 2.3-7.53 6.06H495zm27.56 8.9c-1.84.56-2.49.73-4 1.2a52.15 52.15 0 0 0-5.23 1.19c-4.68 1.19-7 3-7 5.87s2.2 4.5 5.88 4.5c7 0 10.29-3.12 10.29-9.64z" fill="#00235f"/></svg>