<svg data-name="Layer 1" xmlns="http://www.w3.org/2000/svg" width="472.5" height="378" viewBox="0 0 354.4 283.5"><g fill="#ffc211"><path d="M232.9 20.3c28 0 50.6 117.8 50.6 263.2H324C324 126.9 283.2 0 232.9 0c-28.7 0-54.2 38.1-70.9 97.8C145.3 38 119.7 0 91.1 0 40.8 0 0 127 0 283.5h40.5C40.5 138 63.2 20.2 91.1 20.2s50.6 108.8 50.6 243h40.5c0-134.2 22.7-243 50.7-243zM344.3 263.2a10.1 10.1 0 1 1-10.2 10 10 10 0 0 1 10.1-10zm0 18.8a8.6 8.6 0 1 0-8.4-8.7 8.3 8.3 0 0 0 8.4 8.7zm-4-14.6h4.6c2.8 0 4 1.1 4 3.4s-1.2 3-3 3.2l3.4 5.3h-2l-3.2-5.1h-2v5h-1.8zm1.9 5.3h1.9c1.6 0 3-.1 3-2 0-1.6-1.3-1.8-2.5-1.8H342z"/></g></svg>