<svg xmlns="http://www.w3.org/2000/svg" xmlns:xlink="http://www.w3.org/1999/xlink" width="64" height="63.3"><defs><linearGradient id="b" x1="8" y1="53.4" x2="56" y2="13.2" gradientTransform="matrix(1 0 0 -1 0 64.6)" gradientUnits="userSpaceOnUse"><stop offset="0" stop-color="#fff"/><stop offset=".1" stop-color="#e7e8e6"/><stop offset=".1" stop-color="#cdd0d0"/><stop offset=".2" stop-color="#b5bbbd"/><stop offset=".2" stop-color="#a5acaf"/><stop offset=".3" stop-color="#9ba3a7"/><stop offset=".3" stop-color="#98a0a4"/><stop offset=".4" stop-color="#828a8f"/><stop offset=".5" stop-color="#667075"/><stop offset=".6" stop-color="#535c63"/><stop offset=".7" stop-color="#475158"/><stop offset=".8" stop-color="#434d54"/><stop offset="1" stop-color="#475157"/></linearGradient><linearGradient id="c" x1="9.47" y1="52.24" x2="54.47" y2="14.44" gradientTransform="matrix(1 0 0 -1 0 64.6)" gradientUnits="userSpaceOnUse"><stop offset="0" stop-color="#0b1f2a"/><stop offset=".2" stop-color="#333f47"/><stop offset=".5" stop-color="#777f84"/><stop offset=".5" stop-color="#81898d"/><stop offset=".7" stop-color="#b3b8b8"/><stop offset=".8" stop-color="#d2d5d3"/><stop offset=".8" stop-color="#dee0dd"/><stop offset="1" stop-color="#fbfbfb"/></linearGradient><linearGradient id="a" x1="1828.74" y1="18.36" x2="1850.64" y2="-41.84" gradientTransform="matrix(-1 0 0 1 1871.67 43.01)" gradientUnits="userSpaceOnUse"><stop offset="0" stop-color="#e1e3e1"/><stop offset=".1" stop-color="#c1c5c4"/><stop offset=".3" stop-color="#9ba1a2"/><stop offset=".5" stop-color="#7d8487"/><stop offset=".7" stop-color="#687074" stop-opacity="0"/><stop offset=".8" stop-color="#5b6469" stop-opacity="0"/><stop offset="1" stop-color="#576065" stop-opacity="0"/></linearGradient><linearGradient id="d" x1="18.2" y1="57.2" x2="45.8" y2="9.4" gradientTransform="matrix(1 0 0 -1 0 64.6)" xlink:href="#a"/><linearGradient id="e" x1="44.49" y1="25.91" x2="42.79" y2="23.11" gradientTransform="matrix(1 0 0 -1 0 64.6)" gradientUnits="userSpaceOnUse"><stop offset="0" stop-color="#27343c"/><stop offset="1" stop-color="#00111e" stop-opacity="0"/></linearGradient><linearGradient id="f" x1="39.58" y1="36.19" x2="36.78" y2="40.69" gradientTransform="matrix(1 0 0 -1 0 64.6)" gradientUnits="userSpaceOnUse"><stop offset=".1" stop-color="#02131f"/><stop offset=".9" stop-color="#02131f" stop-opacity="0"/></linearGradient><linearGradient id="g" x1="31.98" y1="28.96" x2="27.78" y2="27.76" gradientTransform="matrix(1 0 0 -1 0 64.6)" gradientUnits="userSpaceOnUse"><stop offset=".2" stop-color="#02131f"/><stop offset=".9" stop-color="#02131f" stop-opacity="0"/></linearGradient><linearGradient id="h" x1="20.79" y1="23.4" x2="20.19" y2="24.9" gradientTransform="matrix(1 0 0 -1 0 64.6)" gradientUnits="userSpaceOnUse"><stop offset="0" stop-color="#02131f"/><stop offset=".1" stop-color="#02131f"/><stop offset="1" stop-color="#02131f" stop-opacity="0"/></linearGradient><linearGradient id="i" x1="35.6" y1="48.09" x2="32.2" y2="47.69" gradientTransform="matrix(1 0 0 -1 0 64.6)" gradientUnits="userSpaceOnUse"><stop offset=".3" stop-color="#02131f"/><stop offset=".8" stop-color="#02131f" stop-opacity="0"/></linearGradient><linearGradient id="j" x1="35.71" y1="48.14" x2="33.41" y2="47.84" gradientTransform="matrix(1 0 0 -1 0 64.6)" gradientUnits="userSpaceOnUse"><stop offset=".4" stop-color="#27343c"/><stop offset="1" stop-color="#3b474e" stop-opacity="0"/></linearGradient><linearGradient id="k" x1="-.36" y1="32.47" x2="27.54" y2="16.37" gradientTransform="matrix(1 0 0 -1 0 64.6)" gradientUnits="userSpaceOnUse"><stop offset="0" stop-color="#24303a" stop-opacity="0"/><stop offset="0" stop-color="#25323b" stop-opacity="0"/><stop offset=".1" stop-color="#27343c"/></linearGradient><linearGradient id="l" x1="31.95" y1="27.9" x2="31.95" y2="32.7" gradientTransform="matrix(1 0 0 -1 0 64.6)" gradientUnits="userSpaceOnUse"><stop offset=".3" stop-color="#a5abaf"/><stop offset="1" stop-color="#a5abaf" stop-opacity="0"/></linearGradient><linearGradient id="m" x1="47.65" y1="63" x2="47.65" y2="2" gradientTransform="matrix(1 0 0 -1 0 64.6)" gradientUnits="userSpaceOnUse"><stop offset="0" stop-color="#dee0dd"/><stop offset="0" stop-color="#c5c9c7"/><stop offset="0" stop-color="#9ea4a5"/><stop offset="0" stop-color="#82898c"/><stop offset="0" stop-color="#71797d"/><stop offset="0" stop-color="#6b7378"/><stop offset=".2" stop-color="#333f47"/><stop offset=".5" stop-color="#27343c"/><stop offset=".8" stop-color="#333f47"/><stop offset="1" stop-color="#434d54"/></linearGradient><linearGradient id="n" x1="57.29" y1="57.21" x2="43.79" y2="37.41" gradientTransform="matrix(1 0 0 -1 0 64.6)" gradientUnits="userSpaceOnUse"><stop offset=".7" stop-color="#27343c"/><stop offset=".7" stop-color="#2b373f"/><stop offset=".7" stop-color="#36424a"/><stop offset=".7" stop-color="#49545b"/><stop offset=".8" stop-color="#646d73" stop-opacity="0"/><stop offset=".8" stop-color="#868d92" stop-opacity="0"/><stop offset=".8" stop-color="#b0b5b8" stop-opacity="0"/><stop offset=".8" stop-color="#e1e3e4" stop-opacity="0"/><stop offset=".8" stop-color="#fff" stop-opacity="0"/></linearGradient></defs><path d="M63.3 31.3A31.3 31.3 0 1 1 32 0a31.28 31.28 0 0 1 31.3 31.3zM32 1.9a29.4 29.4 0 1 0 29.4 29.4A29.32 29.32 0 0 0 32 1.9z" fill="url(#b)"/><path d="M32 1.9a29.4 29.4 0 1 0 29.4 29.4A29.32 29.32 0 0 0 32 1.9zm0 56.9a27.5 27.5 0 1 1 27.5-27.5A27.48 27.48 0 0 1 32 58.8z" fill="url(#c)"/><path d="M32 62.6A31.3 31.3 0 1 0 .7 31.3 31.28 31.28 0 0 0 32 62.6zM32-.7a32 32 0 1 1-32 32 32.09 32.09 0 0 1 32-32z" style="isolation:isolate" opacity=".4" fill="url(#a)"/><path d="M2.2 31.4A29.9 29.9 0 0 1 32 1.5a29.83 29.83 0 0 1 29.8 29.9A29.73 29.73 0 0 1 32 61.1 29.73 29.73 0 0 1 2.2 31.4zm9.3-20.6a29.11 29.11 0 0 0-8.6 20.6 29 29 0 0 0 8.5 20.5A29.45 29.45 0 0 0 32 60.4a28.62 28.62 0 0 0 20.5-8.5A28.62 28.62 0 0 0 61 31.4a29.45 29.45 0 0 0-8.5-20.6A28.7 28.7 0 0 0 32 2.2a28.7 28.7 0 0 0-20.5 8.6z" fill="#fff"/><path d="M32 58.9a27.58 27.58 0 0 1-19.5-47.1 27.58 27.58 0 1 1 39 39A27.38 27.38 0 0 1 32 58.9zm0-.8a26.7 26.7 0 1 0-18.9-45.6 26 26 0 0 0-7.9 18.8A26.8 26.8 0 0 0 32 58.1z" style="isolation:isolate" opacity=".4" fill="url(#d)"/><path d="M56.3 44.3L36.5 28.6 32 2.9a1.71 1.71 0 0 0-.9.8l-3.2 25L8 44s-.4.5-.6.8a2 2 0 0 0-.1.8l24.6-10.1 24.6 10.1a1.43 1.43 0 0 0-.2-1.3z" fill="#fff"/><path d="M32.2 32.1l-.2 4.6 22.6 9.1a1.8 1.8 0 0 0 2-.2L32.5 32a.19.19 0 0 0-.3.1z" fill="#565f64"/><path d="M32.2 32.1A23.89 23.89 0 0 0 35 36a23.1 23.1 0 0 0 4.9 3.9l14.7 5.9a1.8 1.8 0 0 0 2-.2L32.5 32a.19.19 0 0 0-.3.1z" fill="url(#e)"/><path d="M56.5 44.7c0-.1-.1-.2-.2-.4L35.7 29.2 32.9 31s.2.1.3 0a2.5 2.5 0 0 1 1.5 0c.5.2 21.8 13.8 21.8 13.8z" fill="#a4aaae" fill-opacity=".6"/><path d="M55.8 43.8L36.6 28.6l-.9.6 20.6 15.2a2.65 2.65 0 0 0-.5-.6z" fill="#333e46"/><path d="M32.5 30.6l-.1.1s0 .2.2.1 3-1.6 4-2.2l-3.5-24A1.74 1.74 0 0 0 31.9 3l.4 27.8z" fill="#565f64"/><path d="M30.8 4.6v1.3L28.6 28a.91.91 0 0 0 .4.8l1.3 1 .9-24.4.1-1.9a1.63 1.63 0 0 0-.5 1.1zM29.6 30.2l-1.2-1L8.1 43.9s-.6.4-.7.8l.7-.4 21.3-13.4c.4-.2.5-.4.2-.7z" fill="#a4aaae" fill-opacity=".6"/><path d="M31.7 32.1c0-.1-.1-.2-.2-.1L7.3 45.7a2 2 0 0 0 2 .2l22.6-9.1z" fill="#565f64"/><path d="M32.4 30.7l.1-.1-.1.1a.1.1 0 0 0 .1.1h.1c.1-.1 3-1.6 4-2.2l-.4-2.9-3.1-21.1a1.22 1.22 0 0 0-.3-.9s1.5 20.2 1.5 22.4a6.53 6.53 0 0 1-1.9 4.6z" fill="url(#f)"/><path d="M31.7 32.1c0-.1-.1-.2-.2-.1L7.3 45.7a2 2 0 0 0 2 .2l22.6-9.1z" fill-opacity=".8" fill="url(#g)"/><path d="M9.3 45.8l22.6-9.1-.2-4.4a5.73 5.73 0 0 1-3 3.5c-1.4.8-14.8 7.4-19.6 9.7a6.31 6.31 0 0 1-.9.4 1.1 1.1 0 0 0 1.1-.1z" style="isolation:isolate" opacity=".8" fill="url(#h)"/><path d="M32.5 30.6l-.1.1s0 .2.2.1 3-1.6 4-2.2l-3.5-24A1.74 1.74 0 0 0 31.9 3l.4 27.8z" fill="url(#i)"/><path d="M32.5 30.6l-.1.1s0 .2.2.1 3-1.6 4-2.2l-3.5-24A1.74 1.74 0 0 0 31.9 3l.4 27.8z" fill="url(#j)"/><path d="M5.1 43.7c-.7-1.6-4.7-9.4-.3-24.4H3.1a49.48 49.48 0 0 0-2 7.5s-.2 1-.3 2.1a22.75 22.75 0 0 0-.1 2.4 26.18 26.18 0 0 0 1.5 9.5 29.19 29.19 0 0 0 8.2 12.9A28.68 28.68 0 0 0 23 59.6c-.7-.1-12.7-5.2-17.9-15.9z" fill="url(#k)"/><path d="M32.4 31.9h-.9c.1 0 .2 0 .2.1l.2 4.6h.1l.2-4.6c0-.1.1-.2.2-.1z" fill="url(#l)"/><path d="M42 1.6c10.5 4 20.4 15 20.4 28.9A30.34 30.34 0 0 1 32 61v1.6a31.32 31.32 0 0 0 10-61z" fill="url(#m)"/><path d="M58.8 19.5C51.8 3.4 36 2.5 35.1 2.4H35c12.1 2.2 19.8 10.1 22.5 18.4v.1a31.39 31.39 0 0 1 1.9 10.3 27.34 27.34 0 0 1-2.2 11c-.1.5-.2 1.1-.3 1.1h1.6c4.8-9 2.7-18.1.3-23.8z" fill="url(#n)"/><path d="M2.2 31.4A29.9 29.9 0 0 1 32 1.5a29.83 29.83 0 0 1 29.8 29.9A29.73 29.73 0 0 1 32 61.1 29.73 29.73 0 0 1 2.2 31.4zm9.3-20.6a29.11 29.11 0 0 0-8.6 20.6 29 29 0 0 0 8.5 20.5A29.45 29.45 0 0 0 32 60.4a28.62 28.62 0 0 0 20.5-8.5A28.62 28.62 0 0 0 61 31.4a29.45 29.45 0 0 0-8.5-20.6A28.7 28.7 0 0 0 32 2.2a28.7 28.7 0 0 0-20.5 8.6z" fill="#fbfbfb"/><path d="M7.9 44.1l20.4-14.7a20.69 20.69 0 0 0 3.1 1.4c.2.1.2-.1.2-.1l-2.5-2.1a.91.91 0 0 1-.4-.8l2.4-24.1c-.1.1-.1.3-.2.4a.9.9 0 0 0-.1.5l-3.5 24.1L8.1 43.8c-.1.1-.2.2-.2.3z" fill="#333f47"/></svg>