<svg data-name="Слой 1" xmlns="http://www.w3.org/2000/svg" width="313" height="52.76"><path d="M15.07 52.11H0V.85h26.07L56 39.12V.85h15v51.26H45.5L15.07 13.19v38.92m128.08-15.85c0 7.12-1.26 9.58-3.35 11.94-3.2 3.5-7.8 4.56-16.8 4.56H97.26c-9 0-13.62-1.06-16.82-4.56-2.09-2.36-3.35-4.81-3.35-11.94V16.5c0-7.12 1.26-9.57 3.35-11.93C83.64 1.06 88.29 0 97.26 0H123c9 0 13.62 1.06 16.81 4.57 2.09 2.36 3.35 4.81 3.35 11.93v19.76m-20.79 3.51c3.44 0 4.66-.2 5.48-1s1.11-1.6 1.11-4.62V18.56c0-3-.34-3.91-1.11-4.61s-2-1-5.48-1H97.89c-3.44 0-4.66.2-5.48 1s-1.12 1.6-1.12 4.61V34.2c0 3 .34 3.92 1.12 4.62s2 1 5.48 1h24.47M165 .85v51.26h-15.7V.85H165m26.61 0h20.79l-28.06 24L216 52.11h-22.21L165 25.38 191.65.85m27.28 0h15.75v51.26h-15.74m75.8 0l-4.66-8.93H259.6L255 52.1h-17.4L265.51.85h19.58L313 52.11h-18.27M265.07 32h19.58l-9.79-18.56L265.07 32" fill="#1c4598"/></svg>