<svg xmlns="http://www.w3.org/2000/svg" width="165.33" height="64.62"><defs><clipPath id="a"><path fill="none" d="M0 0h165.33v64.62H0z"/></clipPath></defs><g clip-path="url(#a)"><path d="M25.39 64.48v-3h-3.72v3h-.73v-6.54h.73v2.82h3.72v-2.82h.73v6.55zm7.74.13a3.42 3.42 0 1 1 3.12-3.42 3.13 3.13 0 0 1-3.12 3.42m0-6.11a2.73 2.73 0 1 0 2.35 2.69 2.45 2.45 0 0 0-2.35-2.69m9.07.13v5.85h-.73v-5.85h-2.39v-.7h5.48v.7zm24.56 6a5.61 5.61 0 0 1-2.13-.43v-.67a5.73 5.73 0 0 0 2.13.43c1 0 1.56-.53 1.56-1.2 0-1.93-3.66-.7-3.66-3.22 0-1 .76-1.73 2.19-1.73a5.24 5.24 0 0 1 1.8.33v.66a5.31 5.31 0 0 0-1.65-.33c-1 0-1.6.37-1.6 1 0 1.83 3.69.66 3.69 3.26 0 1.1-.93 1.86-2.29 1.86m56.46-6.68h2.43a1.91 1.91 0 0 1 2.06 1.86 1.74 1.74 0 0 1-1.53 1.83l2 2.86h-.86l-1.89-2.73h-1.43v2.73h-.73zm.73 3.12h1.6c.8 0 1.43-.37 1.43-1.23s-.6-1.2-1.36-1.2H124zm10.01-2.4v5.85h-.73v-5.85h-2.36v-.7h5.45v.7zm-17.71 6a3.42 3.42 0 1 1 3.12-3.42 3.13 3.13 0 0 1-3.12 3.42m0-6.11a2.73 2.73 0 1 0 2.35 2.69 2.45 2.45 0 0 0-2.35-2.69m-28-.57h2.42a1.91 1.91 0 0 1 2.06 1.86 1.74 1.74 0 0 1-1.53 1.83l2 2.86h-.87l-1.89-2.73h-1.42v2.73h-.73v-6.56zm.73 3.12h1.6c.8 0 1.43-.37 1.43-1.23s-.6-1.2-1.36-1.2h-1.63zm18.21 3.56a5.61 5.61 0 0 1-2.13-.43v-.67a5.73 5.73 0 0 0 2.13.43c1 0 1.56-.53 1.56-1.2 0-1.93-3.65-.7-3.65-3.19 0-.9.63-1.76 2.13-1.76a5.33 5.33 0 0 1 1.86.33v.7a5.45 5.45 0 0 0-1.83-.37c-1 0-1.46.47-1.46 1.1 0 1.76 3.69.6 3.69 3.19 0 1.1-.93 1.86-2.29 1.86m34.56 0a5.61 5.61 0 0 1-2.13-.43v-.67a5.72 5.72 0 0 0 2.13.43c1 0 1.56-.53 1.56-1.2 0-1.93-3.65-.7-3.65-3.19 0-.9.63-1.76 2.12-1.76a5.33 5.33 0 0 1 1.86.33v.7a5.44 5.44 0 0 0-1.83-.37c-1 0-1.46.47-1.46 1.1 0 1.76 3.69.6 3.69 3.19 0 1.1-.93 1.86-2.29 1.86m-60.74-.13H82l-3.39-3.39c-.73-.76-1-1.1-1-1.56 0-.7.55-1.07 1.25-1.07a3.86 3.86 0 0 1 1.33.23v-.63a3.47 3.47 0 0 0-1.33-.23c-1.46 0-2 .83-2 1.7a2.3 2.3 0 0 0 .69 1.5zm-3.45-3.92A2.34 2.34 0 0 0 76 62.75a1.9 1.9 0 0 0 2.15 1.87 2.76 2.76 0 0 0 2.73-3.53h-.64c.26 1.76-.62 2.9-2 2.9-.89 0-1.55-.41-1.55-1.24a1.77 1.77 0 0 1 1.33-1.69zm-19.69 2.29c0 .9.33 1 1.5 1a14.61 14.61 0 0 0 1.53-.1v.66a9.41 9.41 0 0 1-1.63.13c-1.53 0-2.13-.3-2.13-1.63v-5h.73zm39.28-4.91h3.89v.7h-3.16v2.09h3v.7h-3v1.13c0 1 .33 1.33 1.5 1.33.43 0 1.06 0 1.69-.1v.66a11.72 11.72 0 0 1-1.79.13c-1.53 0-2.13-.47-2.13-2zm-48.61 0h3.89v.7h-3.17v2.09h3v.7h-3v1.13c0 1 .33 1.33 1.5 1.33.43 0 1.06 0 1.69-.1v.66a11.74 11.74 0 0 1-1.8.13c-1.53 0-2.13-.47-2.13-2zM59.6 14.65C78.1 15.94 90.43 10.19 101.07 0c-8 14.11-25 19.16-41.47 14.65M19 45.92c-6.49 0-11-10.8-15.23-14.38v14.38H0V26.19h1.55c5.4 0 10.56 11.38 15.2 15v-15h3.79v19.73zM38.84 29.38c-4.16 0-6.34 2.73-6.34 6.68s2.19 6.61 6.34 6.61 6.37-2.67 6.37-6.61-2.21-6.68-6.37-6.68m0 16.93c-6.4 0-10.38-4.31-10.38-10.26s4-10.26 10.38-10.26S49.22 30 49.22 36.05s-3.95 10.26-10.38 10.26M65.17 46.07h-1.82l-9.56-19.88h4.37l6.1 13.62 6.1-13.62h4.43zM89.75 29.38c-4.16 0-6.34 2.73-6.34 6.68s2.19 6.61 6.34 6.61 6.37-2.67 6.37-6.61-2.19-6.68-6.37-6.68m0 16.93c-6.4 0-10.38-4.31-10.38-10.26s4-10.26 10.38-10.26 10.38 4.21 10.38 10.26-3.95 10.26-10.38 10.26M115.33 29.62v16.29h-3.83V29.62h-7.1v-3.43h18v3.43zM137.08 46.31c-5.46 0-8.25-1.88-8.25-7.1v-13h14.35v3.58h-10.53v4.31h9.74v3.58h-9.74v1.62c0 2.67 1.46 3.37 4.58 3.37a32.4 32.4 0 0 0 5.95-.45v3.52a28.2 28.2 0 0 1-6.1.58M159 46.31c-5.43 0-7.65-2.09-7.65-7.28V26.19h3.82v12.9c0 2.7 1 3.58 4.1 3.58a42 42 0 0 0 6-.42v3.49a30.54 30.54 0 0 1-6.31.58" fill="#171e52"/></g></svg>