<svg xmlns="http://www.w3.org/2000/svg" width="512" height="157.87"><path fill="#2153a1" d="M316.37 73.59a39.75 39.75 0 0 1-7 1.4 36.85 36.85 0 0 1-4.78.27c-3.06 0-6.38-.24-9.59-.5h-.11c-3-.22-5.79-.44-8.49-.44a42.19 42.19 0 0 0-5.4.33 40.65 40.65 0 0 0-9 2.21v-.41c1-10.12 9.48-18.77 19.78-20.13a25.05 25.05 0 0 1 2.9-.17c9.7 0 19.1 7.35 21.9 17.12l.07.25zm11.85 4.3v-.14c0-.65-.17-1.7-.3-2.84a34.45 34.45 0 0 0-1.33-6c-4.68-14.77-17.21-24.3-31.92-24.3a33.29 33.29 0 0 0-4.48.3c-18.88 2.41-31.7 19.51-29.19 38.91a33.31 33.31 0 0 0 33.6 29.59 37.93 37.93 0 0 0 4.49-.28c9.17-1.16 17.22-5 23.25-12.47a2 2 0 0 0 .44-1.45A1.74 1.74 0 0 0 322 98a71.57 71.57 0 0 0-6.59-3.42l-1.3-.64a3.14 3.14 0 0 0-1.41-.44 1.79 1.79 0 0 0-1.37.78 21.77 21.77 0 0 1-13.84 7.56 23.93 23.93 0 0 1-2.9.19c-9.17 0-18.41-6.14-21.1-14.56l-.07-.22.2-.09a26.79 26.79 0 0 1 11.12-2.23c.79 0 1.59 0 2.38.1 1.82.14 3.65.38 5.58.62a84.42 84.42 0 0 0 11.57 1 57.14 57.14 0 0 0 7.94-.56c10.49-2 14.65-5 14.69-5 1.48-1 1.43-1.75 1.33-3.19m164.33-29.44a1.6 1.6 0 0 0-1.56-1.59h-8.68a1.59 1.59 0 0 0-1.58 1.59v61.74a1.6 1.6 0 0 0 1.58 1.59H491a1.6 1.6 0 0 0 1.59-1.59V48.46m-5.96-23.61a7.84 7.84 0 1 0 7.84 7.85 7.86 7.86 0 0 0-7.84-7.85M371.7 56.32c12.3 0 21.95 10.13 21.95 23.06s-9.15 22.82-21.29 22.82a22.9 22.9 0 0 1-16-6.18 22.15 22.15 0 0 1-6.64-16.25c0-12.93 9.84-23.45 21.94-23.45m-.39 57.12h1.67a32.66 32.66 0 0 0 23.37-9.65A34.43 34.43 0 0 0 406 79.38c0-19.51-15-34.79-34.19-34.79A33.66 33.66 0 0 0 339 70.15c-.69 2.6-1.39 9.21-1.39 15.81v48.44a1.6 1.6 0 0 0 1.59 1.6h8.61a1.62 1.62 0 0 0 1.61-1.61v-30.51l.45.44a34.22 34.22 0 0 0 21.41 9.12M217 56.32c12.29 0 21.94 10.13 21.94 23.06s-9.15 22.82-21.29 22.82a22.84 22.84 0 0 1-15.99-6.2A22.14 22.14 0 0 1 195 79.77c0-12.93 9.85-23.45 22-23.45m-.38 57.12h1.66a32.63 32.63 0 0 0 23.37-9.65 34.43 34.43 0 0 0 9.69-24.45c0-19.51-15-34.79-34.21-34.79a33.66 33.66 0 0 0-32.8 25.56c-.7 2.6-1.4 9.21-1.4 15.81v48.48a1.6 1.6 0 0 0 1.58 1.6h8.64a1.62 1.62 0 0 0 1.61-1.61v-30.51l.44.44a34.24 34.24 0 0 0 21.44 9.12m197.69-10.82c7.5 6.86 15.69 10.78 26.32 10.78h.35c18.36-.12 26.56-10.15 26.56-20 0-13.67-12.9-17.41-16.85-18.24l-3.94-.76c-3.2-.62-6.51-1.25-9.53-2.08-2.11-.58-9-2.88-9-8 0-5.67 6.29-8.73 12.2-8.73a20.94 20.94 0 0 1 14.4 5 2.8 2.8 0 0 0 1.7.7 2.65 2.65 0 0 0 1.57-.57 63 63 0 0 0 5.89-5.21 1.79 1.79 0 0 0 .59-1.37 2.46 2.46 0 0 0-.89-1.6c-7.08-5.62-13.9-7.92-23.52-7.95h-.07c-13.75 0-24.13 8.84-24.13 20.56 0 9.29 7.64 15.88 21.47 18.6l8.67 1.66c5.7 1 8.9 4.07 8.79 8.31s-5.16 8.4-13.48 8.4a26 26 0 0 1-17.78-7.2l-.07-.07a2.08 2.08 0 0 0-1.35-.71 2.13 2.13 0 0 0-1.28.54c-.52.42-6.31 5-6.93 5.65a1.35 1.35 0 0 0-.41 1 2 2 0 0 0 .69 1.33m90.92 1.39a1 1 0 0 1 0 1.93h-1.34v-1.93zm.75 3.21a2.15 2.15 0 0 0 1.57-2.23 2.23 2.23 0 0 0-2.32-2.36h-2.79v7.17h1.41v-2.48h.47l1.78 2.48h1.72zm-1.1 4.88a5.93 5.93 0 1 0-5.86-5.92 5.85 5.85 0 0 0 5.87 5.92zm0-13.12a7.19 7.19 0 1 1-7.1 7.2 7.14 7.14 0 0 1 7.1-7.2"/><path fill="#fff" d="M134.75 134.75a78.93 78.93 0 1 1 0-111.63 78.93 78.93 0 0 1 0 111.63"/><path fill="#2153a1" d="M140.38 39.1a51.1 51.1 0 0 1-18.79 56.47c-22.11 16.29-54.34 16.31-98.85 30.33a73.23 73.23 0 0 0 117.64-86.8"/><path fill="#ed1a34" d="M122.86 20.33A73.25 73.25 0 0 0 20 122.41 152.06 152.06 0 0 0 122.86 20.33"/></svg>