<svg xmlns="http://www.w3.org/2000/svg" width="300" height="149.14"><path d="M161.69.51c-1 .15-1.93 3.76-3.82 5.64-1.39 1.36-3.12 1.28-4 3-.35.63-.24 1.7-.63 2.72-.78 2.06-3.5 2.24-3.5 4.48 0 2.42 2.27 2.88 4.25 4.6 1.54 1.38 1.69 2.33 3.56 3 1.6.54 4-1.23 6.11-.59 1.75.52 3.43.9 3.83 2.7s0 4.24-2.15 3.94a23.22 23.22 0 0 0-7.65-.72c-4.61.52-9.87 2-10.39 7.17-.28 2.87 3.27 6.26 6.7 5.57 2.37-.46 1.25-3.26 2.54-4.62 1.7-1.74 11.3 6.08 20.21 6.08a11.67 11.67 0 0 0 9.25-3.89c.26-.22.57-.7 1-.73a3.51 3.51 0 0 1 1.26.56c7.18 5.77 12.62 17.36 39 17.49a17.81 17.81 0 0 1 11.4 4.95c3.08 2.85 4.88 7.28 6.63 11.78 2.65 6.75 7.38 13.31 14.56 20.61.39.39 6.3 5 6.78 5.33a2.89 2.89 0 0 1 .36 1.67c-.17 4.38-.81 17.11 8.68 17.69 2.32.12 1.71-1.52 1.71-2.64 0-2.22-.41-4.42.76-6.7 1.6-3.12-3.39-4.56-3.25-11.31.1-5-4.13-4.18-6.27-8-1.24-2.22-2.34-3.4-2.26-6.12.48-15.3-3.25-25.35-5.12-27.82-1.46-1.86-2.66-2.6-1.33-3.46 7.92-5.24 9.72-10.1 9.72-10.1 4.21-9.9 8-18.95 13.23-22.93a38.66 38.66 0 0 1 5.4-3.63c4.88-2.3 7.44-3.69 8.86-5.07 2.24-2.18 4-6.74 1.86-9.5-2.67-3.41-7.29-.7-9.33.51-14.51 8.64-16.65 23.89-21.7 32.64-4 7-10.57 12.14-16.42 12.56a29.19 29.19 0 0 1-13.82-2.63 69.77 69.77 0 0 1-19.2-12.65c-3.07-2.37-27-25.82-46.31-26.78 0 0-2.4-4.81-3-4.89-1.41-.18-2.86 2.87-3.9 3.23s-2.63-3.3-3.61-3.14M76.51 140.43a3.45 3.45 0 0 1-3.37-3.38V76.69H53.25v66.53a5.91 5.91 0 0 0 5.88 5.92H93.9a5.89 5.89 0 0 0 5.88-5.92V76.69H79.9v60.36a3.45 3.45 0 0 1-3.38 3.38m66.59-63.74H113a6.48 6.48 0 0 0-6.47 6.5v66h19.91V88.64a3.38 3.38 0 0 1 6.76-.05v60.55H153V88.59a3.32 3.32 0 0 1 3.37-3.27 3.36 3.36 0 0 1 3.37 3.32v60.5h19.91v-66a6.49 6.49 0 0 0-6.47-6.5h-30.07M40 130.94H19.88v18.21H0V76.69h40.11a6.42 6.42 0 0 1 6.39 6.53v41.19a6.51 6.51 0 0 1-6.5 6.53zM26.63 88.77a3.4 3.4 0 0 0-3.37-3.45h-3.38V122h3.38a3.36 3.36 0 0 0 3.37-3.4V88.77"/><path d="M213.07 149.14V131h-6.76v18.19h-19.87v-66a6.48 6.48 0 0 1 6.47-6.5h33.57a6.48 6.48 0 0 1 6.47 6.5v66zm0-27.17V88.62a3.38 3.38 0 0 0-6.76.05V122h6.76"/></svg>