<svg data-name="Layer 3" xmlns="http://www.w3.org/2000/svg" width="397.89" height="119.02"><path d="M44.88 102.73c.53-.64 1-1.62 3.69-2.27 0 0 90.72-30.82 211.42-24.65 0 0 6.85-.25 5 2.75-1.09 1.76-3.13 1.87-7 2.07a51.67 51.67 0 0 1-6.45.15s12.34 4.79-36.38 3.79c0 0 4.3 4.39-13.61 3.12 0 0-50-2.27-151 16 0 0-7.94 1.72-5.71-1z" fill="#164194"/><path d="M147.36 3s-6-7.58-5 1.16a258.16 258.16 0 0 1-2.19 40.9 12 12 0 0 0-1.44-2.67s-5.24-7-11.11-5c0 0-7.49 2.36-11.83 13.67 0 0-3.06 7.82-2.19 13.7 0 0-.29 15.46 18.53 4.54a25.2 25.2 0 0 0 4.33-3.58c-.45 1.93-1.19 3.2-1.26 5.18 0 0-.67 4.08 1.19 5.11.71.39 1.48-.15 3.14-4.12 0 0 13.38-34.33 14.1-48.5 0 0 4.7-7-6.27-20.34zM124 64.83s-1.39-.92-1.3-5.07a24.23 24.23 0 0 1 5.28-13s1.36-1.73 2.48-1.94c.37-.07 1 .47 1.25 2.68.07.54-1.49.65-.92 2.38 0 0 2.61 6.59 8.09 3.62q-.34 2-.73 4.08c-2.86 4-8.87 10.83-14.15 7.23zM193.58 37S204.46 48.54 204 56.57c0 0-1.48 11.17-20 10.79 0 0-4.57-.68-.08-3.61 0 0 12-3.89 4.15-18.33 0 0-7.44 8.73-12.37 13.57-14.08 13.74-16.86 8.7-16.86 8.7-5.36-7.67-1.43-24.46-1.43-24.46 2.08-8.89 6.68-5.74 6.68-5.74 6.72 1.09 4.2 6.9 4.2 6.9-.85 4.46-1.94 4-1.94 4-2.07 1.68-2.51 9-2.51 9 .83 4.05-2.77 9.69 7.65.64 2.48-2.48 15-16.55 17-22.08 0 0 2.08-5.39 5.05 1zm-16.13-17.19a5.27 5.27 0 0 1-2.38 4c-1.81 1.36-5.55 3.69-6.75 3.38s.16-4.17.22-5.26a19.28 19.28 0 0 1 .32-3.24c.39-2.63 2.5-4.54 4.81-4.29s4.08 2.69 3.78 5.45zm76.75 15c3.22-4.26 5.48-2.34 5.48-2.34.31.17 1 0 1.22-.06 4.28-.32.77 3.88.77 3.88-3.61 4.9-6.87 14.06-6.87 14.06a49.87 49.87 0 0 0-1.62 5.41c-1.31 5.56 4.55 1.63 4.55 1.63a18.07 18.07 0 0 0 2-1.81 2.48 2.48 0 0 1 1.25-.71c1.22-.17-.86-6.54-.86-6.54-.89-2.52-.73-2.63-.73-2.63-.57-3.09 1.15-3.89 1.15-3.89 1.83-1.12 3.31 1.81 3.31 1.81 1.64 2.49 3.09 9.06 3.09 9.06 1.4 5.82-3 5.36-3 5.36-1.81.36-4.9 3.43-4.9 3.43-4.81 4-11.52 4.37-11.52 4.37-6.66.23-6.13-5.63-6.13-5.63 0-6.35 12.78-25.42 12.78-25.42zm-26.8 8.37c3.07 2.15 8.22 6.9 7.37 11.86 0 0-1.48 11.17-20 10.79 0 0-2-.11-2.05-1.36 0-.92.38-1.65 2-2.26 0 0 12-3.89 4.15-18.33l-7.14 5.54s-2.91 3.21-2.7-1.35c0 0 .25-2.52 1.34-3.49 0 0 6.7-4 8.93-10.14 1.12-4.08 7.09-7.53 7.67-4.1.26 1.55-1.52 2.52-2.4 3.61-2 2.51.57 7.79 2.84 9.23zM108.26 65.47a.74.74 0 0 0-.23-.39c-.5-.34-2.94.76-5.37 2.22l-1.06.61a21.9 21.9 0 0 0-2.1 1.4s-1.5 1.25-1.37-1.55v-.11c0-.62.15-1.41.19-2.26 0 0 2.14-8.54 3.06-10.93 0 0 .51-2.25 1.31-4.82 0 0 3.64-3.79-3-5 0 0-3.2-7.86-6.64 4.52a6 6 0 0 0-3.21-4 3.81 3.81 0 0 0-1.58-.42 7.73 7.73 0 0 1-1 0s-3.26-1.17-6.73 3.13c-3.65 4-14.31 16.8-11.88 27.51 0 0 1.32 5.54 6.24 5.51a17.91 17.91 0 0 0 11.43-4.59 30.47 30.47 0 0 0 3.06-3.23 12.88 12.88 0 0 0 .35 2.09c0 .14.06.28.1.41A4.08 4.08 0 0 0 91 77.75a4.51 4.51 0 0 0 3.87 1c.19 0 .39-.09.6-.15 0 0 6.89-1.67 6.72-4.59-.09-1.45.44-1.74.44-1.74a.64.64 0 0 0 .28-.75s5.5-3.68 5.31-6zm-19.87 4.07a7.65 7.65 0 0 1-2.58 2.88s-7.54 4.62-7.28-1.9a28.58 28.58 0 0 1 1.49-7s3.47-8.82 8.85-14c.49-.5.92-.55 1.2-.17.75 1 .88 2.2 1.45 3.16.15.25.31.52.49.77-.64 3.31-2.3 9.58-2.57 14.33a8.89 8.89 0 0 1-1.06 1.88zM35.83 33.77c1.45 2.64-.48 6.84-.48 6.84C27 57.7 16.53 98.07 14.44 106.31s-.05.13-.13.36l-.29 1.14c-.14.61-.28 1.15-.43 1.66a23.21 23.21 0 0 0-.36 4.68c.07 2.18 0 4.42-.68 4.73-1.88.86-2.85-1.66-3.37-4.39-1.84-.43-3.35-2.82-3.35-2.82-6.77-4.57-1.7-17.19-1.7-17.19 4.6-18.28 27.41-56.81 27.41-56.81 2.67-4.31 3.78-4.82 4.29-3.9zm34.65 64.61c3.62 5 6.38 8.61 5.62 9.27-2.46 2.14-13.53-6.51-13.53-6.51a104.6 104.6 0 0 1-29.64-41.29 1.49 1.49 0 0 1 .27-1.37c.66-.73 1.71-1.13 4.5-1.45-1.46-.7-1.92-.89-1.79-1.38.28-.8 3-.78 3-.78 2.13-.1 3.68-.23 3.68-.23 3.12-.33 4.71-.62 4.71-.62 6.65-1.06 9.25-4 9.25-4 6.58-6.66-4-13.34-4-13.34-26.78-15.33-48.34-8.03-48.34-8.03a5.11 5.11 0 0 1-3.35-.08C-2 27.63 3 23.66 3 23.66c13.28-11 20.25-7.7 20.25-7.7 25.79 1.71 37.15 15.2 37.15 15.2 9 9.51 6.66 17.09 5.45 19.3-4.4 8-14.82 8.25-14.82 8.25-1.62.09-3 .13-4.3.14a14.36 14.36 0 0 1 2.07 3.75c2 6.27 21.65 35.79 21.65 35.79zm241.58-36.91s14.13 11.65-3.4 11.05c0 0-3.41.26-5.5-6.76 0 0-6-13.76-5.58-19a39.26 39.26 0 0 0-5.84 9.13 31.76 31.76 0 0 1-3.13 5.92 20.36 20.36 0 0 1-2.47 3.06c-7.74 7.17-8.49-2-8.49-2-1.6-7.81 2.41-20.35 2.41-20.35 2.91-8.65 7.19-5.09 7.19-5.09 5.93 1.55 3.53 7.26 3.53 7.26-1.27 4.36-2.4 3.42-2.4 3.42-1.46 1-1.87 3.06-2 4.38 0 0-.55 4.84 1.61 1.13 1.63-3.31 4.79-8.83 7.08-10.59 0 0 3.38-3.6 5.36-.63 0 0 8.52 17.12 11.6 19z" fill="#1d1d1b"/><path d="M273.19 76.52c3.69.23 7.84.28 13.59.83 3 .29 7.59.29 8.25 2.23.6 1.78-1.65 3.61-5.67 4.38a21 21 0 0 1-5.16.66c-2.17-.08-6.82.09-7-2.41-.1-1.56-3.14-1.55-5.17-1.63-4.06-.16-3.64-1.31-2.76-2.69.53-.85 1.64-1.4 3.86-1.37zM397.88 15.09a2.14 2.14 0 0 0-2.14-2.09h-66.92a2.14 2.14 0 0 0-2.14 2.14V82a2.14 2.14 0 0 0 2.14 2.14h66.92a2.14 2.14 0 0 0 2.15-2.14z" fill="#164194"/><path d="M388.3 58.38a27.37 27.37 0 0 1-1.54-8.4c-2.52 5.59-6.28 14.2-10.55 13.54-2.55-.4-2.73-4.81-2.13-9.08-1.69 3.63-3.3 7.39-5.24 9.66 0 0-.14.19-.46.54a6.65 6.65 0 0 1-2.74 2.15l-.33.06a2.79 2.79 0 0 1-1-.06c-.86-.27-1.66-1.12-2.36-2.73a6.87 6.87 0 0 1-.32-.9q-.14-.64-.21-1.25a16.66 16.66 0 0 1-2.55 3.28 23.57 23.57 0 0 1-10.41 6c-3.57 1-7.95 1.86-11.47.12s-4.2-5.92-2.61-9.44c.59-1.3.95-.53.71 1a13 13 0 0 0-.19 1.64c-.29 9 13.73 4.74 17.58 2.51a21.64 21.64 0 0 0 5.41-4.31 14.75 14.75 0 0 0 3.59-8.07c.79-6.77-7.64-6.72-11.61-6.55a1.06 1.06 0 0 1-.38-.06q-.68 1.85-1.42 3.66c-1 2.36-1.84 4.34-2.78 6.7a32.92 32.92 0 0 1-3.29 6.24c-.73 1-1.3.68-1.25-.53.09-2.14 1.24-4.5 2-6.41.91-2.18 1.85-4.34 2.76-6.52a79.62 79.62 0 0 0 4.59-13.3 1 1 0 1 1 2 .3 42.48 42.48 0 0 1-1 4.85 59.25 59.25 0 0 0 3.69-5.37c1.11-1.91 3.52-7.07.52-8.64-2.45-1.28-5.77.78-7.66 2.31a27.25 27.25 0 0 0-6.13 6.63c-.81 1-1.33.42-.94-.37a24.74 24.74 0 0 1 7-8c2.41-1.81 6.3-4.24 9.18-2.19 3.27 2.33 2 7.16.46 10.21a71.79 71.79 0 0 1-5.25 8.07c3.89 0 8.61.52 10.8 4.15a7.87 7.87 0 0 1 .59 1.2c1-2.61 2-4.78 2.79-6.46a79.35 79.35 0 0 1 8.21-14.66c.53-.77 1.31.09.86.89-5.31 9.28-8.8 16.37-11 25.08-.18.73-.33 1.44-.38 1.85v.07c-.21 1.6-.32 3.78.4 5.12a1.87 1.87 0 0 0 .48.6c.94.71 2.12-.56 2.72-1.37a36.69 36.69 0 0 0 4.09-6.54 72.52 72.52 0 0 0 5.2-12.5c.38-1.38 2-1.09 2 .5a51.88 51.88 0 0 1-1.38 7.4c-.33 1.7-2.46 11.88.87 8.72 3.64-3.46 6-9 8.41-13.92.43-.89 1.62-.73 1.76.43.46 3.77.51 7.25 1.71 10.84.56 1.66-1.1 2.93-1.8 1.31z" fill="#516fb4"/><path d="M349.41 50.21a2.66 2.66 0 0 0 1.37-2.4v-1.33c0-1.47-.6-3.95-4.62-3.95h-13.82V59.1h14c3 0 5-1.49 5-3.79v-1.86a3.11 3.11 0 0 0-1.93-3.24zm-1.7-2.42c0 .67-.21 1.45-1.86 1.45H335.4v-4H346c.29 0 1.75.06 1.75 1.17zm-12.31 4.13h10.38c2 0 2.53.36 2.53 1.77v1.12c0 1-.37 1.62-2.2 1.62H335.4zm22.67 4.52h12.13v2.66H355V42.53h3.06zm34.07-13.9V54.7c0 3.81-2.31 4.58-6 4.58h-7.24c-3.73 0-6-.76-6-4.58V42.53h3.06v12.15c0 1.16.2 1.93 2.91 1.93h7.34c2.71 0 2.92-.76 2.92-1.93V42.53z" fill="#fff"/></svg>