<svg xmlns="http://www.w3.org/2000/svg" width="200" height="49.16"><path d="M199.94 22.51c0-1.25-.11-2.33-.19-3.22a20.34 20.34 0 0 0-.35-2.37 20 20 0 0 0-.54-2 14.1 14.1 0 0 0-5.45-7.56 16.31 16.31 0 0 0-9.29-2.56 16 16 0 0 0-9.22 2.6 14.2 14.2 0 0 0-5.45 7.6 19 19 0 0 0-.54 2 19.94 19.94 0 0 0-.35 2.37c-.08.89-.15 2-.19 3.22s-.06 2.74-.06 4.49 0 3.26.06 4.49.1 2.33.19 3.22a19.29 19.29 0 0 0 .35 2.37 19.08 19.08 0 0 0 .54 2 14.08 14.08 0 0 0 5.45 7.56 18 18 0 0 0 18.52 0 14.21 14.21 0 0 0 5.45-7.72 17.94 17.94 0 0 0 .88-4.33c.08-.89.14-2 .19-3.22s.06-2.73.06-4.45 0-3.22-.06-4.49zM193.7 31a34.41 34.41 0 0 1-.53 4.89 10.41 10.41 0 0 1-.33 1.36 8.68 8.68 0 0 1-3.12 4.5 9.48 9.48 0 0 1-5.62 1.53 9.25 9.25 0 0 1-5.57-1.53 8.78 8.78 0 0 1-3.07-4.51 10.4 10.4 0 0 1-.33-1.36 32.6 32.6 0 0 1-.52-4.89c-.04-1.1-.06-2.44-.06-4s0-2.87.06-4 .11-2.08.21-2.89.21-1.53.31-2a10.35 10.35 0 0 1 .33-1.36 8.8 8.8 0 0 1 3.07-4.5 9.31 9.31 0 0 1 5.57-1.53 9.58 9.58 0 0 1 5.62 1.53 8.71 8.71 0 0 1 3.12 4.51 10.39 10.39 0 0 1 .33 1.36c.1.56.2 1.25.31 2s.18 1.79.22 2.89.06 2.46.06 4-.01 2.84-.06 4zM161 5.54h-4.34a.86.86 0 0 0-.95.94v41a.86.86 0 0 0 .95.93H161a.86.86 0 0 0 .95-.93v-41a.86.86 0 0 0-.95-.94zm-11.07 0h-4.34a1.1 1.1 0 0 0-1.12.84L134.25 38.3 123.68 6.39a1.14 1.14 0 0 0-1.18-.84h-4.28a.79.79 0 0 0-.71.33.94.94 0 0 0 0 .84l13.72 40.91a1.06 1.06 0 0 0 1 .85h3.68a1.06 1.06 0 0 0 1-.84L150.6 6.73a.94.94 0 0 0 0-.87.81.81 0 0 0-.67-.32zm-35 13.75a20 20 0 0 0-.35-2.37 19.23 19.23 0 0 0-.54-2 14.13 14.13 0 0 0-5.45-7.56A16.32 16.32 0 0 0 99.3 4.8 16 16 0 0 0 90 7.4a14.2 14.2 0 0 0-5.41 7.6 19.27 19.27 0 0 0-.54 2 19.94 19.94 0 0 0-.35 2.37c-.08.89-.15 2-.19 3.22s-.06 2.74-.06 4.49 0 3.26.06 4.49.1 2.33.19 3.22a19.82 19.82 0 0 0 .35 2.37 19.27 19.27 0 0 0 .54 2A14.08 14.08 0 0 0 90 46.61a18 18 0 0 0 18.52 0A14.22 14.22 0 0 0 114 39a19.2 19.2 0 0 0 .54-2 19.91 19.91 0 0 0 .35-2.37c.08-.9.15-2 .19-3.22s.06-2.77.06-4.49 0-3.23-.06-4.49-.12-2.31-.21-3.22zM108.82 31a33.09 33.09 0 0 1-.53 4.89 10.41 10.41 0 0 1-.33 1.36 8.68 8.68 0 0 1-3.12 4.5 9.49 9.49 0 0 1-5.62 1.53 9.26 9.26 0 0 1-5.57-1.53 8.77 8.77 0 0 1-3.07-4.51 10.4 10.4 0 0 1-.33-1.36 32.9 32.9 0 0 1-.52-4.89c-.04-1.09-.06-2.43-.06-4s0-2.87.06-4 .11-2.08.21-2.89.21-1.53.31-2a10.35 10.35 0 0 1 .33-1.36 8.8 8.8 0 0 1 3.07-4.5 9.31 9.31 0 0 1 5.57-1.53 9.58 9.58 0 0 1 5.62 1.53 8.71 8.71 0 0 1 3.16 4.5 10.39 10.39 0 0 1 .33 1.36c.1.55.2 1.25.31 2s.18 1.79.22 2.89.06 2.46.06 4-.06 2.85-.1 4.01zm-38.71-1.27A12.28 12.28 0 0 0 76 25.51 12.14 12.14 0 0 0 78.32 18a13 13 0 0 0-1-5.11 11.3 11.3 0 0 0-2.77-4 12.77 12.77 0 0 0-4.29-2.52 16.48 16.48 0 0 0-5.53-.89H49.4a.87.87 0 0 0-.94.94v41a.86.86 0 0 0 .95.93h4.34a.86.86 0 0 0 .95-.93v-17h9.13l8.34 17.09a1.16 1.16 0 0 0 1.11.82h5a.76.76 0 0 0 .71-.38.78.78 0 0 0-.06-.83l-8.82-17.39zm-15.38-5h-.05V11.35h9.92a8.08 8.08 0 0 1 5.56 1.75 6.31 6.31 0 0 1 1.94 5 6.33 6.33 0 0 1-1.94 5 8.13 8.13 0 0 1-5.56 1.75h-9.87zm-20.37 2.58c3.09-2.61 4.73-5.92 4.8-10.67.09-5.92-3.85-11.83-10.79-14.28A45.35 45.35 0 0 0 15.91.09 66.23 66.23 0 0 0 4.84.44 17.39 17.39 0 0 0 1.77 1c-.26.1-.41.24-.35.3a1 1 0 0 0 .51.07c.28 0 1.49-.11 3.58-.1a58.09 58.09 0 0 1 9.29.85c8.53 1.42 13.72 5.23 13.29 11.54-.33 5-8.91 7.3-16.73 10.4-7 2.79-10.19 6.23-11.08 9.8-1 4 .85 8.18 3.16 11.81a28.36 28.36 0 0 0 1.63 2.37.69.69 0 0 0 .51.36.8.8 0 0 0 0-.43 14.94 14.94 0 0 1-.43-2.63c0-2.5 1.3-4.63 4.6-6.73a57.5 57.5 0 0 1 12-5.2c5.47-1.84 9.67-3.66 12.59-6.11zm4.44 20.54a19.16 19.16 0 0 1-4.87-2.58c-1.88-1.38-3.62-3.22-3.87-5.32-.44-3.69.56-5.43.83-5.9a.61.61 0 0 0 .12-.44.61.61 0 0 0-.46 0 19 19 0 0 0-6.72 3.54 5.71 5.71 0 0 0-2.19 5.25 6.67 6.67 0 0 0 3.87 4.6 17.82 17.82 0 0 0 6.91 1.53 44.85 44.85 0 0 0 6.14-.1 2.17 2.17 0 0 0 1-.26 2.59 2.59 0 0 0-.77-.34z" fill="#ee2437"/></svg>