<svg xmlns="http://www.w3.org/2000/svg" width="128" height="76"><path d="M125.25 5.15c.89-3 0-5.15-4.23-5.15H107a6 6 0 0 0-6.09 4S93.8 21.31 83.72 32.59c-3.26 3.26-4.75 4.3-6.53 4.3-.89 0-2.18-1-2.18-4V5.15C75 1.59 74 0 71 0H49a3.37 3.37 0 0 0-3.56 3.22c0 3.37 5 4.15 5.56 13.65v20.61c0 4.52-.82 5.34-2.6 5.34-4.75 0-16.29-17.43-23.14-37.38C23.94 1.57 22.59 0 19 0H5C1 0 .21 1.88.21 4c0 3.71 4.75 22.1 22.1 46.42C33.88 67 50.18 76 65 76c8.9 0 10-2 10-5.44V58c0-4 .84-4.8 3.66-4.8 2.08 0 5.64 1 13.94 9C102.11 71.74 103.68 76 109 76h14c4 0 6-2 4.85-5.95s-5.79-9.64-11.81-16.41c-3.26-3.86-8.16-8-9.64-10.09-2.08-2.67-1.48-3.86 0-6.23.01.01 17.07-24.02 18.85-32.17z" fill="#5181b8" fill-rule="evenodd"/></svg>